<svg width="10" height="6" viewBox="0 0 10 6" fill="none" xmlns="http://www.w3.org/2000/svg">
<path d="M6.28009 0.875C6.28009 0.671875 6.43634 0.5 6.65509 0.5H9.40509C9.60822 0.5 9.78009 0.671875 9.78009 0.875V3.625C9.78009 3.84375 9.60822 4 9.40509 4C9.18634 4 9.03009 3.84375 9.03009 3.625V1.78125L6.04572 4.76562C5.88947 4.92188 5.65509 4.92188 5.51447 4.76562L3.78009 3.03125L1.42072 5.39062C1.26447 5.54688 1.03009 5.54688 0.889465 5.39062C0.733215 5.25 0.733215 5.01562 0.889465 4.875L3.51447 2.23438C3.65509 2.09375 3.88947 2.09375 4.03009 2.23438L5.76447 3.96875L8.49884 1.25H6.65509C6.43634 1.25 6.28009 1.09375 6.28009 0.875Z" fill="#75B940"/>
</svg>
