<svg width="10" height="6" viewBox="0 0 10 6" fill="none" xmlns="http://www.w3.org/2000/svg">
<path d="M6.40991 5.125C6.40991 4.92188 6.56616 4.75 6.78491 4.75H8.62866L5.89429 2.03125L4.15991 3.76562C4.01929 3.92188 3.78491 3.92188 3.64429 3.76562L1.01929 1.14062C0.863037 1 0.863037 0.765625 1.01929 0.609375C1.15991 0.46875 1.39429 0.46875 1.55054 0.609375L3.90991 2.96875L5.64429 1.23438C5.78491 1.09375 6.01929 1.09375 6.17554 1.23438L9.15991 4.23438V2.375C9.15991 2.17188 9.31616 2 9.53491 2C9.73804 2 9.90991 2.17188 9.90991 2.375V5.125C9.90991 5.34375 9.73804 5.5 9.53491 5.5H6.78491C6.56616 5.5 6.40991 5.34375 6.40991 5.125Z" fill="#E74545"/>
</svg>
