<svg width="8" height="8" viewBox="0 0 8 8" fill="none" xmlns="http://www.w3.org/2000/svg">
<path d="M2.97009 0C3.17322 0 3.34509 0.171875 3.34509 0.375V1H5.59509V0.375C5.59509 0.171875 5.75134 0 5.97009 0C6.17322 0 6.34509 0.171875 6.34509 0.375V1H6.97009C7.51697 1 7.97009 1.45312 7.97009 2V2.25V3V7C7.97009 7.5625 7.51697 8 6.97009 8H1.97009C1.40759 8 0.970093 7.5625 0.970093 7V3V2.25V2C0.970093 1.45312 1.40759 1 1.97009 1H2.59509V0.375C2.59509 0.171875 2.75134 0 2.97009 0ZM7.22009 3H1.72009V7C1.72009 7.14062 1.82947 7.25 1.97009 7.25H6.97009C7.09509 7.25 7.22009 7.14062 7.22009 7V3ZM2.72009 4H6.22009C6.34509 4 6.47009 4.125 6.47009 4.25V5.25C6.47009 5.39062 6.34509 5.5 6.22009 5.5H2.72009C2.57947 5.5 2.47009 5.39062 2.47009 5.25V4.25C2.47009 4.125 2.57947 4 2.72009 4Z" fill="#14C6A5"/>
</svg>
