<svg width="15" height="25" viewBox="0 0 15 25" fill="none" xmlns="http://www.w3.org/2000/svg">
<path d="M9.74994 3.13965C9.74994 3.9834 9.28119 4.68652 8.62494 5.1084C7.92181 5.53027 7.03119 5.53027 6.37494 5.1084C5.67181 4.68652 5.24994 3.9834 5.24994 3.13965C5.24994 2.34277 5.67181 1.63965 6.37494 1.21777C7.03119 0.795898 7.92181 0.795898 8.62494 1.21777C9.28119 1.63965 9.74994 2.34277 9.74994 3.13965ZM10.7343 11.8584L12.4687 17.9521C12.6093 18.4209 12.2343 18.8896 11.7187 18.8896H10.4999V23.7646C10.4999 24.4209 9.98431 24.8896 9.37494 24.8896C8.71869 24.8896 8.24994 24.4209 8.24994 23.7646V18.8896H6.74994V23.7646C6.74994 24.4209 6.23431 24.8896 5.62494 24.8896C4.96869 24.8896 4.49994 24.4209 4.49994 23.7646V18.8896H3.23431C2.71869 18.8896 2.34369 18.4209 2.48431 17.9521L4.21869 11.8584L2.43744 14.9521C2.15619 15.5146 1.45306 15.7021 0.937439 15.374C0.374939 15.0928 0.187439 14.3896 0.515564 13.874L2.90619 9.56152C3.84369 7.9209 5.57806 6.93652 7.49994 6.93652C9.37494 6.93652 11.1093 7.9209 12.0468 9.56152L14.4374 13.874C14.7656 14.3896 14.5781 15.0928 14.0156 15.374C13.4999 15.7021 12.7968 15.5146 12.5156 14.9521L10.7343 11.8584ZM7.49994 9.13965C7.35931 9.13965 7.31244 9.2334 7.26556 9.32715L5.20306 16.6396H9.74994L7.68744 9.32715C7.68744 9.2334 7.59369 9.13965 7.49994 9.13965Z" fill="#1A2523"/>
</svg>
