<svg width="15" height="25" viewBox="0 0 15 25" fill="none" xmlns="http://www.w3.org/2000/svg">
<path d="M5.24994 3.13965C5.24994 2.34277 5.67181 1.63965 6.37494 1.21777C7.03119 0.795898 7.92181 0.795898 8.62494 1.21777C9.28119 1.63965 9.74994 2.34277 9.74994 3.13965C9.74994 3.9834 9.28119 4.68652 8.62494 5.1084C7.92181 5.53027 7.03119 5.53027 6.37494 5.1084C5.67181 4.68652 5.24994 3.9834 5.24994 3.13965ZM6.74994 9.18652V15.1396H8.24994V9.18652C8.20306 9.18652 8.15619 9.13965 8.10931 9.13965H6.84369C6.79681 9.13965 6.74994 9.13965 6.74994 9.18652ZM6.74994 17.3896V23.7646C6.74994 24.4209 6.23431 24.8896 5.62494 24.8896C4.96869 24.8896 4.49994 24.4209 4.49994 23.7646V11.3896L2.43744 14.9521C2.15619 15.5146 1.45306 15.7021 0.937439 15.374C0.374939 15.0928 0.187439 14.3896 0.515564 13.874L3.23431 8.99902C3.98431 7.7334 5.34369 6.88965 6.84369 6.88965H8.10931C9.60931 6.88965 10.9687 7.7334 11.7187 8.99902L14.4374 13.874C14.7656 14.3896 14.5781 15.0928 14.0156 15.374C13.4999 15.7021 12.7968 15.5146 12.5156 14.9521L10.4999 11.3896V23.7646C10.4999 24.4209 9.98431 24.8896 9.37494 24.8896C8.71869 24.8896 8.24994 24.4209 8.24994 23.7646V17.3896H6.74994Z" fill="#1A2523"/>
</svg>
