<svg width="30" height="25" viewBox="0 0 30 25" fill="none" xmlns="http://www.w3.org/2000/svg">
<path d="M7.49994 5.38965C6.65619 5.38965 5.95306 4.96777 5.53119 4.26465C5.10931 3.6084 5.10931 2.71777 5.53119 2.01465C5.95306 1.3584 6.65619 0.889648 7.49994 0.889648C8.29681 0.889648 8.99994 1.3584 9.42181 2.01465C9.84369 2.71777 9.84369 3.6084 9.42181 4.26465C8.99994 4.96777 8.29681 5.38965 7.49994 5.38965ZM6.84369 9.13965C6.79681 9.13965 6.74994 9.18652 6.74994 9.18652V15.1396H8.24994V9.18652C8.20306 9.13965 8.15619 9.13965 8.10931 9.13965H6.84369ZM6.74994 23.7646C6.74994 24.4209 6.23431 24.8896 5.62494 24.8896C4.96869 24.8896 4.49994 24.4209 4.49994 23.7646V11.3896L2.43744 14.9521C2.15619 15.5146 1.45306 15.7021 0.937439 15.374C0.374939 15.0928 0.187439 14.3896 0.515564 13.874L3.23431 8.99902C3.98431 7.7334 5.34369 6.88965 6.84369 6.88965H8.10931C9.60931 6.88965 10.9687 7.7334 11.7187 8.99902L14.4374 13.874C14.7656 14.3896 14.5781 15.0928 14.0156 15.374C13.4999 15.7021 12.7968 15.5146 12.5156 14.9521L10.4999 11.3896V23.7646C10.4999 24.4209 9.98431 24.8896 9.37494 24.8896C8.71869 24.8896 8.24994 24.4209 8.24994 23.7646V17.3896H6.74994V23.7646ZM22.4999 5.38965C21.6562 5.38965 20.9531 4.96777 20.5312 4.26465C20.1093 3.6084 20.1093 2.71777 20.5312 2.01465C20.9531 1.3584 21.6562 0.889648 22.4999 0.889648C23.2968 0.889648 23.9999 1.3584 24.4218 2.01465C24.8437 2.71777 24.8437 3.6084 24.4218 4.26465C23.9999 4.96777 23.2968 5.38965 22.4999 5.38965ZM27.5156 14.9521L25.2656 11.0146L27.4218 17.9521C27.5624 18.4209 27.2343 18.8896 26.7187 18.8896H25.4999V23.7646C25.4999 24.4209 24.9843 24.8896 24.3749 24.8896C23.7187 24.8896 23.2499 24.4209 23.2499 23.7646V18.8896H21.7499V23.7646C21.7499 24.4209 21.2343 24.8896 20.6249 24.8896C19.9687 24.8896 19.4999 24.4209 19.4999 23.7646V18.8896H18.2343C17.7656 18.8896 17.3906 18.4209 17.5312 17.9521L19.6874 11.0146L17.4374 14.9521C17.1562 15.5146 16.4531 15.7021 15.9374 15.374C15.3749 15.0928 15.1874 14.3896 15.5156 13.874L17.9062 9.56152C18.8437 7.9209 20.5781 6.93652 22.4999 6.93652C24.3749 6.93652 26.1093 7.9209 27.0468 9.56152L29.4374 13.874C29.7656 14.3896 29.5781 15.0928 29.0156 15.374C28.4999 15.7021 27.7968 15.5146 27.5156 14.9521ZM24.6562 16.6396L22.4999 9.65527L20.2968 16.6396H24.6562Z" fill="#1A2523"/>
</svg>
