<svg width="30" height="25" viewBox="0 0 30 25" fill="none" xmlns="http://www.w3.org/2000/svg">
<path d="M5.24994 2.01465C5.24994 3.28027 5.71869 3.84277 6.42181 4.68652H6.46869C7.21869 5.53027 8.24994 6.65527 8.24994 8.76465C8.24994 9.4209 7.73431 9.88965 7.12494 9.88965C6.46869 9.88965 5.99994 9.4209 5.99994 8.76465C5.99994 7.5459 5.48431 6.9834 4.78119 6.13965H4.73431C3.98431 5.24902 2.99994 4.1709 2.99994 2.01465C2.99994 1.40527 3.46869 0.889648 4.12494 0.889648C4.73431 0.889648 5.24994 1.40527 5.24994 2.01465ZM10.4999 2.01465C10.4999 3.28027 10.9687 3.84277 11.6718 4.68652H11.7187C12.4687 5.53027 13.4999 6.65527 13.4999 8.76465C13.4999 9.4209 12.9843 9.88965 12.3749 9.88965C11.7187 9.88965 11.2499 9.4209 11.2499 8.76465C11.2499 7.5459 10.7343 6.9834 10.0312 6.13965H9.98431C9.23431 5.24902 8.24994 4.1709 8.24994 2.01465C8.24994 1.40527 8.71869 0.889648 9.37494 0.889648C9.98431 0.889648 10.4999 1.40527 10.4999 2.01465ZM20.2499 6.13965C22.5937 6.13965 24.6093 7.7334 25.2656 9.88965H15.1874C15.8437 7.7334 17.8593 6.13965 20.2499 6.13965ZM0.749939 14.0146C0.749939 13.4053 1.21869 12.8896 1.87494 12.8896H3.09369C3.42181 12.0459 4.26556 11.3896 5.24994 11.3896H24.7499C25.6874 11.3896 26.5312 12.0459 26.8593 12.8896H28.1249C28.7343 12.8896 29.2499 13.4053 29.2499 14.0146C29.2499 14.6709 28.7343 15.1396 28.1249 15.1396H26.8593C26.3437 18.749 23.9999 21.7959 20.8124 23.249C20.4374 24.2334 19.4531 24.8896 18.3281 24.8896H11.6249C10.4999 24.8896 9.51556 24.2334 9.14056 23.249C5.95306 21.7959 3.60931 18.749 3.09369 15.1396H1.87494C1.21869 15.1396 0.749939 14.6709 0.749939 14.0146ZM11.2499 22.4053C11.2968 22.5459 11.4374 22.6396 11.6249 22.6396H18.3749C18.5156 22.6396 18.6562 22.5459 18.7031 22.4053C18.9374 21.8896 19.3593 21.4209 19.8749 21.1865C22.7343 19.874 24.7499 17.0146 24.7499 13.6396H5.24994C5.24994 17.0146 7.21869 19.874 10.0781 21.1865C10.6406 21.4209 11.0156 21.8896 11.2499 22.4053Z" fill="#1A2523"/>
</svg>
