<svg width="24" height="25" viewBox="0 0 24 25" fill="none" xmlns="http://www.w3.org/2000/svg">
<path d="M12.5156 1.0304L23.1562 6.93665C23.6719 7.2179 24 7.73352 24 8.29602C24 9.18665 23.25 9.88977 22.3594 9.88977H1.59375C0.703125 9.88977 0 9.18665 0 8.29602C0 7.73352 0.28125 7.2179 0.796875 6.93665L11.4375 1.0304C11.7656 0.842896 12.1875 0.842896 12.5156 1.0304ZM10.6875 7.63977C10.5469 7.45227 10.5 7.17102 10.5 6.88977C10.5 6.0929 11.1562 5.38977 12 5.38977C12.7969 5.38977 13.5 6.0929 13.5 6.88977C13.5 7.17102 13.4062 7.45227 13.2656 7.63977H19.8281L12 3.32727L4.125 7.63977H10.6875ZM3 11.3898H5.25V18.8898H8.25V11.3898H10.5V18.8898H13.5V11.3898H15.75V18.8898H18.75V11.3898H21V18.8898H21.375C21.9844 18.8898 22.5 19.4054 22.5 20.0148C22.5 20.671 21.9844 21.1398 21.375 21.1398H3C2.34375 21.1398 1.875 20.671 1.875 20.0148C1.875 19.4054 2.34375 18.8898 3 18.8898V11.3898ZM1.5 22.6398H22.875C23.4844 22.6398 24 23.1554 24 23.7648C24 24.421 23.4844 24.8898 22.875 24.8898H1.5C0.84375 24.8898 0.375 24.421 0.375 23.7648C0.375 23.1554 0.84375 22.6398 1.5 22.6398Z" fill="#1A2523"/>
</svg>
