<svg width="30" height="25" viewBox="0 0 30 25" fill="none" xmlns="http://www.w3.org/2000/svg">
<path d="M5.25 2.01477C5.25 3.2804 5.71875 3.8429 6.42188 4.68665H6.46875C7.21875 5.5304 8.25 6.6554 8.25 8.76477C8.25 9.42102 7.73438 9.88977 7.125 9.88977C6.46875 9.88977 6 9.42102 6 8.76477C6 7.54602 5.48438 6.98352 4.78125 6.13977H4.73438C3.98438 5.24915 3 4.17102 3 2.01477C3 1.4054 3.46875 0.889771 4.125 0.889771C4.73438 0.889771 5.25 1.4054 5.25 2.01477ZM10.5 2.01477C10.5 3.2804 10.9688 3.8429 11.6719 4.68665H11.7188C12.4688 5.5304 13.5 6.6554 13.5 8.76477C13.5 9.42102 12.9844 9.88977 12.375 9.88977C11.7188 9.88977 11.25 9.42102 11.25 8.76477C11.25 7.54602 10.7344 6.98352 10.0312 6.13977H9.98438C9.23438 5.24915 8.25 4.17102 8.25 2.01477C8.25 1.4054 8.71875 0.889771 9.375 0.889771C9.98438 0.889771 10.5 1.4054 10.5 2.01477ZM20.25 6.13977C22.5938 6.13977 24.6094 7.73352 25.2656 9.88977H15.1875C15.8438 7.73352 17.8594 6.13977 20.25 6.13977ZM0.75 14.0148C0.75 13.4054 1.21875 12.8898 1.875 12.8898H3.09375C3.42188 12.046 4.26562 11.3898 5.25 11.3898H24.75C25.6875 11.3898 26.5312 12.046 26.8594 12.8898H28.125C28.7344 12.8898 29.25 13.4054 29.25 14.0148C29.25 14.671 28.7344 15.1398 28.125 15.1398H26.8594C26.3438 18.7491 24 21.796 20.8125 23.2491C20.4375 24.2335 19.4531 24.8898 18.3281 24.8898H11.625C10.5 24.8898 9.51562 24.2335 9.14062 23.2491C5.95312 21.796 3.60938 18.7491 3.09375 15.1398H1.875C1.21875 15.1398 0.75 14.671 0.75 14.0148ZM11.25 22.4054C11.2969 22.546 11.4375 22.6398 11.625 22.6398H18.375C18.5156 22.6398 18.6562 22.546 18.7031 22.4054C18.9375 21.8898 19.3594 21.421 19.875 21.1866C22.7344 19.8741 24.75 17.0148 24.75 13.6398H5.25C5.25 17.0148 7.21875 19.8741 10.0781 21.1866C10.6406 21.421 11.0156 21.8898 11.25 22.4054Z" fill="#1A2523"/>
</svg>
