<svg width="32" height="25" viewBox="0 0 32 25" fill="none" xmlns="http://www.w3.org/2000/svg">
<path d="M2.64062 4.0304L2.6875 4.07727C2.6875 4.07727 2.73438 4.07727 2.82812 4.12415C2.92188 4.17102 3.15625 4.26477 3.4375 4.4054C4 4.63977 4.84375 4.92102 5.96875 5.24915C8.21875 5.9054 11.5938 6.51477 16 6.51477C20.3594 6.51477 23.7344 5.9054 25.9844 5.24915C27.1094 4.9679 27.9531 4.63977 28.5156 4.4054C28.7969 4.31165 29.0312 4.2179 29.125 4.12415C29.2188 4.12415 29.2656 4.07727 29.2656 4.07727L29.3125 4.0304C29.875 3.74915 30.5312 3.98352 30.8594 4.49915C31.1406 5.06165 30.9062 5.7179 30.3906 6.04602L29.875 5.01477C30.3906 6.04602 30.3906 6.04602 30.3906 6.04602H30.3438H30.2969C30.25 6.0929 30.2031 6.13977 30.1094 6.13977C29.9219 6.23352 29.6875 6.37415 29.3594 6.4679C28.75 6.74915 27.8125 7.07727 26.5938 7.45227C24.1562 8.10852 20.5938 8.76477 16 8.76477C11.3594 8.76477 7.79688 8.10852 5.35938 7.45227C4.14062 7.07727 3.20312 6.74915 2.59375 6.4679C2.26562 6.37415 2.03125 6.23352 1.84375 6.13977C1.75 6.13977 1.70312 6.0929 1.65625 6.04602H1.60938H1.5625C1.5625 6.04602 1.5625 6.04602 2.125 5.01477L1.5625 6.04602C1.04688 5.7179 0.8125 5.06165 1.09375 4.49915C1.42188 3.93665 2.07812 3.74915 2.64062 4.0304ZM6.39062 11.3429L7.09375 9.37415C7.75 9.56165 8.5 9.70227 9.29688 9.79602L8.5 12.0929C9.76562 13.0304 10.3281 14.7648 9.76562 16.3116C9.01562 18.4679 5.3125 21.0929 4.23438 20.7179C3.15625 20.3429 1.9375 15.9366 2.73438 13.8273C3.29688 12.2335 4.79688 11.2491 6.39062 11.3429ZM14.875 13.0773V10.2648C15.2031 10.2648 15.5781 10.2648 16 10.2648C16.375 10.2648 16.75 10.2648 17.125 10.2648V13.0773C18.625 13.546 19.75 14.9991 19.75 16.6398C19.75 18.8898 17.125 22.6398 16 22.6398C14.875 22.6398 12.25 18.8898 12.25 16.6398C12.25 14.9991 13.3281 13.546 14.875 13.0773ZM23.4531 12.0929L22.6562 9.79602C23.4531 9.70227 24.2031 9.56165 24.9062 9.37415L25.5625 11.3429C27.1562 11.2491 28.7031 12.2335 29.2656 13.8273C30.0156 15.9366 28.7969 20.3429 27.7188 20.7179C26.6406 21.0929 22.9375 18.4679 22.1875 16.3116C21.625 14.7648 22.1875 13.0304 23.4531 12.0929ZM4.84375 14.5773C4.79688 14.7179 4.70312 15.0929 4.75 15.6554C4.75 16.2179 4.84375 16.8273 4.98438 17.3898C5.03125 17.6241 5.125 17.8585 5.17188 18.0929C5.35938 17.9523 5.54688 17.8116 5.78125 17.671C6.25 17.296 6.71875 16.8741 7.04688 16.4991C7.42188 16.0304 7.60938 15.7491 7.65625 15.5616C7.9375 14.8116 7.51562 13.921 6.76562 13.6398C5.96875 13.3585 5.125 13.7804 4.84375 14.5773ZM14.5 16.6398C14.5 16.8273 14.5469 17.2023 14.7344 17.7179C14.9688 18.2335 15.25 18.7491 15.5781 19.2648C15.7188 19.4991 15.8594 19.6866 16 19.8741C16.0938 19.6866 16.2344 19.4991 16.375 19.2648C16.7031 18.7491 16.9844 18.2335 17.2188 17.7179C17.4062 17.2023 17.5 16.8273 17.5 16.6398C17.5 15.8429 16.7969 15.1398 16 15.1398C15.1562 15.1398 14.5 15.8429 14.5 16.6398ZM25.1875 13.6398C24.4375 13.921 24.0156 14.8116 24.2969 15.5616C24.3438 15.7491 24.5312 16.0773 24.9062 16.4991C25.2812 16.921 25.7031 17.296 26.2188 17.671C26.4062 17.8116 26.5938 17.9523 26.7812 18.0929C26.875 17.8585 26.9219 17.671 26.9688 17.3898C27.1094 16.8273 27.2031 16.2179 27.25 15.6554C27.25 15.0929 27.2031 14.7179 27.1094 14.5773C26.875 13.7804 25.9844 13.4054 25.2344 13.6866L25.1875 13.6398Z" fill="#1A2523"/>
</svg>
