<?xml version="1.0" encoding="UTF-8" standalone="no"?>
<!-- Uploaded to: SVG Repo, www.svgrepo.com, Generator: SVG Repo Mixer Tools -->

<svg
   fill="#000000"
   version="1.1"
   id="Layer_1"
   viewBox="0 0 18.5 20.5"
   xml:space="preserve"
   sodipodi:docname="accounting-svgrepo-com.svg"
   width="18.5"
   height="20.5"
   inkscape:version="1.4.2 (f4327f4, 2025-05-13)"
   xmlns:inkscape="http://www.inkscape.org/namespaces/inkscape"
   xmlns:sodipodi="http://sodipodi.sourceforge.net/DTD/sodipodi-0.dtd"
   xmlns="http://www.w3.org/2000/svg"
   xmlns:svg="http://www.w3.org/2000/svg"><defs
   id="defs1" /><sodipodi:namedview
   id="namedview1"
   pagecolor="#ffffff"
   bordercolor="#000000"
   borderopacity="0.25"
   inkscape:showpageshadow="2"
   inkscape:pageopacity="0.0"
   inkscape:pagecheckerboard="0"
   inkscape:deskcolor="#d1d1d1"
   inkscape:zoom="10.105734"
   inkscape:cx="-8.6089735"
   inkscape:cy="11.775493"
   inkscape:window-width="1600"
   inkscape:window-height="930"
   inkscape:window-x="-6"
   inkscape:window-y="-6"
   inkscape:window-maximized="1"
   inkscape:current-layer="surface1" />
<style
   type="text/css"
   id="style1">
	.st0{fill:none;}
</style>
<g
   id="surface1"
   transform="translate(-2.75,-1.75)">
	<path
   d="M 10.5,2 C 9.8,2 9.3,2.4 9.1,3 H 5 C 3.9,3 3,3.9 3,5 v 14 c 0,1.1 0.9,2 2,2 h 7 c 0,0.6 0.4,1 1,1 h 7 c 0.6,0 1,-0.4 1,-1 V 11 c 0,-0.6 -0.4,-1 -1,-1 H 18 V 5 C 18,3.9 17.1,3 16,3 H 11.9 C 11.7,2.4 11.2,2 10.5,2 Z m 0,1 C 10.8,3 11,3.2 11,3.5 11,3.8 10.8,4 10.5,4 10.2,4 10,3.8 10,3.5 10,3.2 10.2,3 10.5,3 Z m -5,2 H 8 v 1 h 5 V 5 h 2.5 C 15.8,5 16,5.2 16,5.5 V 10 h -3 c -0.6,0 -1,0.4 -1,1 v 8 H 5.5 C 5.2,19 5,18.8 5,18.5 V 5.5 C 5,5.2 5.2,5 5.5,5 Z m 5.1,3.4 h -4 z m 0,3 h -4 v 2 h 4 z m 0,3.1 h -4 v 2 h 4 z M 14,12 h 5 v 2 h -5 z m 0,3 h 2 v 2 h -2 z m 3,0 h 2 v 2 h -2 z m -3,3 h 2 v 2 h -2 z m 3,0 h 2 v 2 h -2 z"
   id="path1"
   style="stroke:none;stroke-width:0.5;stroke-linecap:round;stroke-linejoin:round;stroke-dasharray:none;stroke-opacity:1;paint-order:fill markers stroke"
   sodipodi:nodetypes="scsssscssssscsscsssssssccccsscsscsssscccccccccccccccccccccccccccccccccccccc" />
<g
   id="g5"
   transform="matrix(0.11904762,0,0,0.11904762,4.8875021,4.8617879)"
   style="stroke:#000000;stroke-width:3.5196;stroke-dasharray:none;stroke-opacity:1"><g
     id="g2"
     style="stroke:#000000;stroke-width:3.5196;stroke-dasharray:none;stroke-opacity:1">

<path
   class="st1"
   d="M 47.8,34.1 C 47.8,44 39.8,52 29.9,52 20,52 12,44 12,34.1 12,24.2 20,16.2 29.9,16.2 v 17.9 z"
   id="path1-5"
   style="fill:none;stroke:#000000;stroke-width:3.5196;stroke-linecap:round;stroke-linejoin:round;stroke-miterlimit:10;stroke-dasharray:none;stroke-opacity:1" />

<path
   class="st1"
   d="M 52,29.9 C 52,20 44,12 34.1,12 v 17.9 z"
   id="path2"
   style="fill:none;stroke:#000000;stroke-width:3.5196;stroke-linecap:round;stroke-linejoin:round;stroke-miterlimit:10;stroke-dasharray:none;stroke-opacity:1" />

<line
   class="st1"
   x1="29.9"
   x2="17.200001"
   y1="34.099998"
   y2="46.799999"
   id="line2"
   style="fill:none;stroke:#000000;stroke-width:3.5196;stroke-linecap:round;stroke-linejoin:round;stroke-miterlimit:10;stroke-dasharray:none;stroke-opacity:1" />

</g><line
     class="st1"
     x1="21.6"
     x2="31"
     y1="42.400002"
     y2="51.900002"
     id="line3"
     style="fill:none;stroke:#000000;stroke-width:3.5196;stroke-linecap:round;stroke-linejoin:round;stroke-miterlimit:10;stroke-dasharray:none;stroke-opacity:1" /><line
     class="st1"
     x1="26.1"
     x2="38"
     y1="37.900002"
     y2="49.900002"
     id="line4"
     style="fill:none;stroke:#000000;stroke-width:3.5196;stroke-linecap:round;stroke-linejoin:round;stroke-miterlimit:10;stroke-dasharray:none;stroke-opacity:1" /><polyline
     class="st1"
     points="43,46 34,37 31.2,34.2 "
     id="polyline4"
     style="fill:none;stroke:#000000;stroke-width:3.5196;stroke-linecap:round;stroke-linejoin:round;stroke-miterlimit:10;stroke-dasharray:none;stroke-opacity:1" /><line
     class="st1"
     x1="46.200001"
     x2="39.099998"
     y1="41.400002"
     y2="34.200001"
     id="line5"
     style="fill:none;stroke:#000000;stroke-width:3.5196;stroke-linecap:round;stroke-linejoin:round;stroke-miterlimit:10;stroke-dasharray:none;stroke-opacity:1" /></g></g>
<rect
   class="st0"
   width="24"
   height="24"
   id="rect1"
   x="-2.75"
   y="-1.75" />
</svg>
