<svg width="24" height="24" viewBox="0 0 24 24" fill="none" xmlns="http://www.w3.org/2000/svg">
<path d="M0.000937854 12.9211C0.000937854 10.4999 0.000937854 8.07859 0.000937854 5.65711C-0.00449172 4.8669 0.239323 4.09509 0.697703 3.45143C1.15608 2.80776 1.8057 2.32501 2.55419 2.07182C3.12538 1.8728 3.71722 1.86529 4.31141 1.87467C4.50525 1.87796 4.76292 1.93851 4.87463 1.83994C5.00792 1.72447 4.90654 1.45926 4.92156 1.25929C4.93377 1.07153 4.90326 0.886585 4.95676 0.701172C5.08724 0.247731 5.51012 -0.0498696 5.96398 0.00598916C6.18719 0.0321667 6.3936 0.137568 6.5457 0.303038C6.69781 0.468507 6.7855 0.683063 6.79284 0.907709C6.80223 1.1809 6.79895 1.45456 6.79284 1.72775C6.7905 1.83571 6.82054 1.87843 6.93647 1.87796C8.24813 1.87452 9.56027 1.87452 10.8729 1.87796C10.9893 1.87796 11.0184 1.83477 11.0137 1.72728C11.008 1.46958 11.0085 1.21094 11.0137 0.95418C11.0226 0.408266 11.4361 -0.00480689 11.9618 0.00176473C12.478 0.00786694 12.877 0.418123 12.8854 0.955118C12.8896 1.21282 12.8906 1.47146 12.8854 1.72869C12.8854 1.83759 12.9155 1.87843 13.03 1.87796C14.3576 1.87452 15.6854 1.87452 17.0133 1.87796C17.1307 1.87796 17.1579 1.83102 17.1541 1.72635C17.149 1.46864 17.1494 1.21 17.1541 0.953241C17.163 0.416716 17.5634 0.00692814 18.0797 0.00176473C18.6053 -0.00386809 19.0184 0.409206 19.0259 0.956058C19.0296 1.20578 19.0329 1.45597 19.0259 1.7071C19.0212 1.83806 19.0597 1.88359 19.1953 1.88031C19.5389 1.87139 19.8824 1.87608 20.2279 1.88031C22.3263 1.88923 23.9906 3.5448 23.9972 5.6388C24.0028 7.38826 23.9972 9.13819 23.9972 10.8876C23.9972 11.4838 23.6133 11.9034 23.0698 11.9086C22.5164 11.9138 22.1245 11.4908 22.124 10.8825C22.124 9.15649 22.124 7.43004 22.124 5.70405C22.124 4.77839 21.597 4.06584 20.7291 3.82644C20.2016 3.68187 19.6571 3.772 19.1202 3.75416C19.0066 3.7504 19.032 3.84147 19.0315 3.90577C19.0315 4.15596 19.0315 4.40569 19.0315 4.65682C19.0254 5.21071 18.6279 5.62425 18.1017 5.62754C17.5662 5.63129 17.163 5.21399 17.1593 4.64602C17.1569 4.40381 17.1513 4.1616 17.1593 3.91985C17.1649 3.78326 17.1152 3.7504 16.9856 3.75087C15.6815 3.75494 14.377 3.75494 13.0722 3.75087C12.9314 3.75087 12.8779 3.78232 12.8845 3.93159C12.8972 4.15737 12.8887 4.38456 12.8878 4.61081C12.885 5.20602 12.501 5.62519 11.9566 5.62801C11.4121 5.63082 11.0179 5.21118 11.0146 4.62208C11.0146 4.38738 11.0066 4.15268 11.017 3.91798C11.0231 3.78044 10.97 3.74946 10.8428 3.74993C9.54587 3.754 8.24923 3.754 6.95289 3.74993C6.83274 3.74993 6.78768 3.78138 6.79191 3.90718C6.80035 4.16441 6.79801 4.42352 6.79191 4.68028C6.78205 5.21446 6.37701 5.62378 5.86119 5.62613C5.34538 5.62847 4.93236 5.22057 4.9225 4.69014C4.91687 4.42446 4.91922 4.15878 4.9225 3.89216C4.9225 3.79828 4.90608 3.74759 4.79578 3.75134C4.39778 3.75932 3.99789 3.72928 3.60176 3.76918C2.56639 3.87479 1.88208 4.64836 1.87457 5.69372C1.86894 6.39782 1.87457 7.10193 1.87457 7.80274C1.87457 11.9109 1.87457 16.0193 1.87457 20.1278C1.87457 21.0971 2.38334 21.8003 3.26618 22.0561C3.47781 22.1113 3.69619 22.1363 3.91482 22.1303C6.22682 22.1303 8.53881 22.1303 10.8508 22.1303C11.3131 22.1303 11.6656 22.3626 11.8026 22.7503C11.8516 22.8887 11.8674 23.0367 11.8488 23.1823C11.8302 23.3279 11.7777 23.4672 11.6955 23.5888C11.6134 23.7105 11.5038 23.8112 11.3757 23.8828C11.2476 23.9544 11.1045 23.995 10.9578 24.0013C10.817 24.0079 10.6762 24.0013 10.5354 24.0013C8.28599 24.0013 6.03642 24.0013 3.78669 24.0013C2.1482 23.999 0.755183 23.0156 0.207457 21.475C0.0642547 21.0615 -0.00640285 20.6264 -0.00139971 20.1888C0.00172926 17.7645 0.00250234 15.3419 0.000937854 12.9211Z" fill="white"/>
<path d="M18.3223 23.998C15.203 23.9942 12.6503 21.4336 12.6573 18.3159C12.6643 15.1981 15.2246 12.6464 18.3448 12.6568C21.4557 12.6671 23.9976 15.2169 23.9981 18.3267C23.9986 21.4458 21.4402 24.0017 18.3223 23.998ZM18.3467 14.5301C16.2619 14.5198 14.5417 16.2233 14.5309 18.3084C14.5201 20.3934 16.2239 22.1138 18.3092 22.1241C20.3945 22.1344 22.1146 20.4315 22.1249 18.3464C22.1353 16.2613 20.4315 14.5409 18.3462 14.5301H18.3467Z" fill="white"/>
<path d="M6.79562 9.8526C6.79131 10.1003 6.68976 10.3364 6.5129 10.5098C6.33604 10.6833 6.09807 10.7802 5.85036 10.7797C5.60273 10.7755 5.3667 10.674 5.19325 10.4972C5.0198 10.3204 4.92287 10.0825 4.9234 9.83477C4.92759 9.58699 5.02909 9.3508 5.20596 9.17725C5.38283 9.00369 5.62088 8.9067 5.86867 8.90723C6.11634 8.91154 6.35237 9.0131 6.5258 9.18998C6.69924 9.36686 6.79615 9.60487 6.79562 9.8526Z" fill="white"/>
<path d="M10.8738 9.84505C10.8716 10.093 10.7718 10.33 10.5961 10.5049C10.4204 10.6798 10.183 10.7785 9.93508 10.7796C9.6872 10.7774 9.45016 10.6777 9.27527 10.502C9.10038 10.3263 9.00171 10.0887 9.00061 9.84083C9.00295 9.59296 9.10273 9.35596 9.27838 9.18108C9.45404 9.0062 9.69145 8.90747 9.9393 8.90625C10.1872 8.90847 10.4242 9.00823 10.5991 9.18393C10.774 9.35963 10.8727 9.59714 10.8738 9.84505Z" fill="white"/>
<path d="M14.9515 9.84884C14.9483 10.0966 14.8477 10.3331 14.6715 10.5073C14.4954 10.6815 14.2577 10.7793 14.01 10.7797C13.7622 10.7765 13.5257 10.6759 13.3514 10.4997C13.1772 10.3235 13.0793 10.0859 13.0788 9.83805C13.0821 9.59027 13.1828 9.35374 13.359 9.17957C13.5353 9.0054 13.773 8.90757 14.0208 8.90723C14.2685 8.91043 14.505 9.01101 14.6791 9.18721C14.8533 9.36341 14.9511 9.60108 14.9515 9.84884Z" fill="white"/>
<path d="M19.0291 9.83476C19.0298 10.0826 18.9328 10.3207 18.7593 10.4975C18.5857 10.6744 18.3495 10.7757 18.1017 10.7797C17.854 10.7803 17.616 10.6834 17.4392 10.5099C17.2624 10.3364 17.161 10.1003 17.1569 9.8526C17.1564 9.60479 17.2534 9.36671 17.4269 9.18982C17.6004 9.01293 17.8366 8.91142 18.0844 8.90723C18.3321 8.90682 18.57 9.00387 18.7468 9.17741C18.9235 9.35095 19.025 9.58707 19.0291 9.83476Z" fill="white"/>
<path d="M6.79562 13.9152C6.79552 14.163 6.69785 14.4008 6.52375 14.5771C6.34965 14.7534 6.11313 14.8541 5.86538 14.8573C5.61764 14.8571 5.37995 14.7594 5.20368 14.5853C5.02741 14.4112 4.92673 14.1747 4.9234 13.927C4.92363 13.6792 5.02133 13.4415 5.19541 13.2652C5.36948 13.0889 5.60593 12.9882 5.85364 12.9849C6.10134 12.9852 6.33896 13.083 6.51521 13.257C6.69145 13.4311 6.79217 13.6675 6.79562 13.9152Z" fill="white"/>
<path d="M10.8738 13.9312C10.8692 14.179 10.7674 14.4151 10.5903 14.5885C10.4131 14.7618 10.175 14.8586 9.92712 14.8578C9.67945 14.853 9.44358 14.751 9.27036 14.5739C9.09714 14.3968 9.00044 14.1587 9.0011 13.911C9.00566 13.6633 9.10744 13.4273 9.28448 13.2541C9.46151 13.0808 9.6996 12.9841 9.9473 12.9849C10.195 12.9894 10.431 13.0912 10.6043 13.2683C10.7777 13.4453 10.8745 13.6834 10.8738 13.9312Z" fill="white"/>
<path d="M6.79563 18.0006C6.79341 18.2485 6.69368 18.4856 6.51801 18.6606C6.34235 18.8356 6.10487 18.9344 5.85694 18.9356C5.60897 18.9335 5.37182 18.8338 5.19683 18.6581C5.02184 18.4824 4.9231 18.2448 4.922 17.9968C4.92409 17.7488 5.02378 17.5116 5.19947 17.3366C5.37517 17.1616 5.61272 17.0629 5.86069 17.0618C6.10865 17.0639 6.34581 17.1636 6.5208 17.3393C6.69579 17.515 6.79453 17.7526 6.79563 18.0006Z" fill="white"/>
<path d="M9.93557 17.063C10.1834 17.0641 10.4208 17.1627 10.5965 17.3375C10.7721 17.5123 10.8719 17.7493 10.8743 17.9971C10.873 18.245 10.7743 18.4824 10.5995 18.6581C10.4246 18.8338 10.1876 18.9336 9.93979 18.9359C9.69194 18.9347 9.45453 18.836 9.27887 18.6611C9.10322 18.4862 9.00344 18.2492 9.0011 18.0013C9.00232 17.7535 9.10105 17.5161 9.27592 17.3405C9.4508 17.1649 9.68777 17.0652 9.93557 17.063Z" fill="white"/>
<path d="M17.3911 17.3662C17.3911 17.0461 17.386 16.726 17.3911 16.4058C17.3911 16.1569 17.49 15.9181 17.6661 15.742C17.8421 15.5659 18.0809 15.467 18.3298 15.467C18.8461 15.467 19.2521 15.8782 19.2624 16.4105C19.2671 16.6837 19.2685 16.9569 19.2624 17.2301C19.2591 17.3507 19.2948 17.3944 19.4201 17.3911C19.59 17.3874 19.7609 17.3742 19.9308 17.4244C20.3752 17.5559 20.6639 17.9624 20.6202 18.4102C20.5996 18.6341 20.4987 18.843 20.3361 18.9983C20.1735 19.1536 19.9601 19.2448 19.7355 19.2551C19.2521 19.2698 18.7684 19.2698 18.2843 19.2551C18.0473 19.2467 17.8226 19.1476 17.6567 18.9782C17.4907 18.8088 17.3961 18.5821 17.3925 18.3449C17.3836 18.022 17.3916 17.6939 17.3911 17.3662Z" fill="white"/>
</svg>
