  <svg width="18" height="16" viewBox="0 0 18 16" fill="none" xmlns="http://www.w3.org/2000/svg">
<path d="M9 1.5C6.65625 1.5 4.53125 2.75 3.34375 4.75C2.1875 6.78125 2.1875 9.25 3.34375 11.25C4.53125 13.2812 6.65625 14.5 9 14.5C11.3125 14.5 13.4375 13.2812 14.625 11.25C15.7812 9.25 15.7812 6.78125 14.625 4.75C13.4375 2.75 11.3125 1.5 9 1.5ZM9 16C6.125 16 3.5 14.5 2.0625 12C0.625 9.53125 0.625 6.5 2.0625 4C3.5 1.53125 6.125 0 9 0C11.8438 0 14.4688 1.53125 15.9062 4C17.3438 6.5 17.3438 9.53125 15.9062 12C14.4688 14.5 11.8438 16 9 16ZM10.75 11C10.75 11.9688 9.9375 12.75 9 12.75C8.03125 12.75 7.25 11.9688 7.25 11C7.25 10.3125 7.65625 9.71875 8.25 9.4375V3.75C8.25 3.34375 8.5625 3 9 3C9.40625 3 9.75 3.34375 9.75 3.75V9.4375C10.3125 9.71875 10.75 10.3125 10.75 11ZM6 6C5.4375 6 5 5.5625 5 5C5 4.46875 5.4375 4 6 4C6.53125 4 7 4.46875 7 5C7 5.5625 6.53125 6 6 6ZM5.5 8C5.5 8.5625 5.03125 9 4.5 9C3.9375 9 3.5 8.5625 3.5 8C3.5 7.46875 3.9375 7 4.5 7C5.03125 7 5.5 7.46875 5.5 8ZM13.5 9C12.9375 9 12.5 8.5625 12.5 8C12.5 7.46875 12.9375 7 13.5 7C14.0312 7 14.5 7.46875 14.5 8C14.5 8.5625 14.0312 9 13.5 9ZM13 5C13 5.5625 12.5312 6 12 6C11.4375 6 11 5.5625 11 5C11 4.46875 11.4375 4 12 4C12.5312 4 13 4.46875 13 5Z" fill="#14C6A5"/>
</svg>
