<svg width="18" height="20" viewBox="0 0 18 20" fill="none" xmlns="http://www.w3.org/2000/svg">
<path d="M13.1667 11.6667C13.1667 11.8877 13.0789 12.0997 12.9226 12.2559C12.7663 12.4122 12.5544 12.5 12.3334 12.5H5.66669C5.44567 12.5 5.23371 12.4122 5.07743 12.2559C4.92115 12.0997 4.83335 11.8877 4.83335 11.6667C4.83335 11.4457 4.92115 11.2337 5.07743 11.0774C5.23371 10.9211 5.44567 10.8334 5.66669 10.8334H12.3334C12.5544 10.8334 12.7663 10.9211 12.9226 11.0774C13.0789 11.2337 13.1667 11.4457 13.1667 11.6667ZM9.83335 14.1667H5.66669C5.44567 14.1667 5.23371 14.2545 5.07743 14.4108C4.92115 14.567 4.83335 14.779 4.83335 15C4.83335 15.221 4.92115 15.433 5.07743 15.5893C5.23371 15.7456 5.44567 15.8334 5.66669 15.8334H9.83335C10.0544 15.8334 10.2663 15.7456 10.4226 15.5893C10.5789 15.433 10.6667 15.221 10.6667 15C10.6667 14.779 10.5789 14.567 10.4226 14.4108C10.2663 14.2545 10.0544 14.1667 9.83335 14.1667ZM17.3334 8.73752V15.8334C17.332 16.938 16.8926 17.9971 16.1115 18.7782C15.3304 19.5593 14.2713 19.9987 13.1667 20H4.83335C3.72869 19.9987 2.66965 19.5593 1.88854 18.7782C1.10742 17.9971 0.66801 16.938 0.666687 15.8334V4.16669C0.66801 3.06202 1.10742 2.00298 1.88854 1.22187C2.66965 0.440754 3.72869 0.00134242 4.83335 1.92072e-05H8.59585C9.3622 -0.00195323 10.1213 0.148009 10.8294 0.441235C11.5374 0.734461 12.1803 1.16513 12.7209 1.70835L15.6242 4.61335C16.1677 5.15355 16.5987 5.79623 16.892 6.50416C17.1854 7.2121 17.3354 7.9712 17.3334 8.73752ZM11.5425 2.88669C11.2803 2.63265 10.9858 2.41412 10.6667 2.23669V5.83335C10.6667 6.05437 10.7545 6.26633 10.9108 6.42261C11.067 6.57889 11.279 6.66669 11.5 6.66669H15.0967C14.9192 6.34768 14.7003 6.05347 14.4459 5.79169L11.5425 2.88669ZM15.6667 8.73752C15.6667 8.60002 15.64 8.46835 15.6275 8.33335H11.5C10.837 8.33335 10.2011 8.06996 9.73225 7.60112C9.26341 7.13228 9.00002 6.49639 9.00002 5.83335V1.70585C8.86502 1.69335 8.73252 1.66669 8.59585 1.66669H4.83335C4.17031 1.66669 3.53443 1.93008 3.06559 2.39892C2.59675 2.86776 2.33335 3.50364 2.33335 4.16669V15.8334C2.33335 16.4964 2.59675 17.1323 3.06559 17.6011C3.53443 18.07 4.17031 18.3334 4.83335 18.3334H13.1667C13.8297 18.3334 14.4656 18.07 14.9345 17.6011C15.4033 17.1323 15.6667 16.4964 15.6667 15.8334V8.73752Z" fill="white"/>
</svg>
