<svg width="20" height="19" viewBox="0 0 20 19" fill="none" xmlns="http://www.w3.org/2000/svg">
<path d="M15.8333 0.333496H4.16667C3.062 0.334819 2.00296 0.774231 1.22185 1.55535C0.440735 2.33646 0.00132321 3.3955 0 4.50016L0 14.5002C0.00132321 15.6048 0.440735 16.6639 1.22185 17.445C2.00296 18.2261 3.062 18.6655 4.16667 18.6668H15.8333C16.938 18.6655 17.997 18.2261 18.7782 17.445C19.5593 16.6639 19.9987 15.6048 20 14.5002V4.50016C19.9987 3.3955 19.5593 2.33646 18.7782 1.55535C17.997 0.774231 16.938 0.334819 15.8333 0.333496ZM4.16667 2.00016H15.8333C16.3323 2.00114 16.8196 2.15143 17.2325 2.43167C17.6453 2.71191 17.9649 3.10929 18.15 3.57266L11.7683 9.95516C11.2987 10.4229 10.6628 10.6856 10 10.6856C9.33715 10.6856 8.70131 10.4229 8.23167 9.95516L1.85 3.57266C2.03512 3.10929 2.35468 2.71191 2.76754 2.43167C3.1804 2.15143 3.66768 2.00114 4.16667 2.00016ZM15.8333 17.0002H4.16667C3.50363 17.0002 2.86774 16.7368 2.3989 16.2679C1.93006 15.7991 1.66667 15.1632 1.66667 14.5002V5.75016L7.05333 11.1335C7.83552 11.9137 8.89521 12.3519 10 12.3519C11.1048 12.3519 12.1645 11.9137 12.9467 11.1335L18.3333 5.75016V14.5002C18.3333 15.1632 18.0699 15.7991 17.6011 16.2679C17.1323 16.7368 16.4964 17.0002 15.8333 17.0002Z" fill="#B1B1B1"/>
</svg>
