<svg width="20" height="21" viewBox="0 0 20 21" fill="none" xmlns="http://www.w3.org/2000/svg">
<g clip-path="url(#clip0_80_5119)">
<path d="M19.3923 8.34907C18.0998 6.24407 15.1598 2.7124 9.9998 2.7124C4.8398 2.7124 1.8998 6.24407 0.607299 8.34907C0.207739 8.99532 -0.00390625 9.7401 -0.00390625 10.4999C-0.00390625 11.2597 0.207739 12.0045 0.607299 12.6507C1.8998 14.7557 4.8398 18.2874 9.9998 18.2874C15.1598 18.2874 18.0998 14.7557 19.3923 12.6507C19.7919 12.0045 20.0035 11.2597 20.0035 10.4999C20.0035 9.7401 19.7919 8.99532 19.3923 8.34907ZM17.9715 11.7782C16.8615 13.5832 14.349 16.6207 9.9998 16.6207C5.65063 16.6207 3.13813 13.5832 2.02813 11.7782C1.79074 11.3941 1.66501 10.9515 1.66501 10.4999C1.66501 10.0483 1.79074 9.6057 2.02813 9.22157C3.13813 7.41657 5.65063 4.37907 9.9998 4.37907C14.349 4.37907 16.8615 7.41324 17.9715 9.22157C18.2089 9.6057 18.3346 10.0483 18.3346 10.4999C18.3346 10.9515 18.2089 11.3941 17.9715 11.7782Z" fill="#51A79A"/>
<path d="M9.99968 6.3335C9.17559 6.3335 8.37001 6.57787 7.6848 7.03571C6.9996 7.49355 6.46554 8.14429 6.15018 8.90565C5.83481 9.66701 5.7523 10.5048 5.91307 11.313C6.07384 12.1213 6.47068 12.8637 7.0534 13.4464C7.63612 14.0292 8.37855 14.426 9.1868 14.5868C9.99505 14.7475 10.8328 14.665 11.5942 14.3497C12.3555 14.0343 13.0063 13.5002 13.4641 12.815C13.922 12.1298 14.1663 11.3243 14.1663 10.5002C14.165 9.3955 13.7256 8.33646 12.9445 7.55535C12.1634 6.77423 11.1043 6.33482 9.99968 6.3335ZM9.99968 13.0002C9.50522 13.0002 9.02187 12.8535 8.61075 12.5788C8.19963 12.3041 7.8792 11.9137 7.68998 11.4569C7.50076 11.0001 7.45125 10.4974 7.54771 10.0124C7.64418 9.52748 7.88228 9.08203 8.23191 8.7324C8.58154 8.38276 9.027 8.14466 9.51195 8.0482C9.9969 7.95174 10.4996 8.00124 10.9564 8.19046C11.4132 8.37968 11.8036 8.70011 12.0784 9.11124C12.3531 9.52236 12.4997 10.0057 12.4997 10.5002C12.4997 11.1632 12.2363 11.7991 11.7674 12.2679C11.2986 12.7368 10.6627 13.0002 9.99968 13.0002Z" fill="#51A79A"/>
</g>
<defs>
<clipPath id="clip0_80_5119">
<rect width="20" height="20" fill="white" transform="translate(0 0.5)"/>
</clipPath>
</defs>
</svg>
