<svg width="20" height="20" viewBox="0 0 20 20" fill="none" xmlns="http://www.w3.org/2000/svg">
<path d="M20 19.1667C20 19.6267 19.6275 20 19.1667 20H0.833333C0.3725 20 0 19.6267 0 19.1667C0 18.7067 0.3725 18.3333 0.833333 18.3333H19.1667C19.6275 18.3333 20 18.7067 20 19.1667ZM2.5 15V10H1.66667C1.20583 10 0.833333 9.62667 0.833333 9.16667C0.833333 8.70667 1.20583 8.33333 1.66667 8.33333H2.54667C2.9325 4.8625 5.69583 2.09833 9.16667 1.71333V0.833333C9.16667 0.373333 9.53917 0 10 0C10.4608 0 10.8333 0.373333 10.8333 0.833333V1.71333C14.3042 2.09917 17.0683 4.8625 17.4533 8.33333H18.3333C18.7942 8.33333 19.1667 8.70667 19.1667 9.16667C19.1667 9.62667 18.7942 10 18.3333 10H17.5V15H18.3333C18.7942 15 19.1667 15.3733 19.1667 15.8333C19.1667 16.2933 18.7942 16.6667 18.3333 16.6667H1.66667C1.20583 16.6667 0.833333 16.2933 0.833333 15.8333C0.833333 15.3733 1.20583 15 1.66667 15H2.5ZM8.33333 10V15H11.6667V10H8.33333ZM15.8333 15V10H13.3333V15H15.8333ZM4.22667 8.33333H15.7742C15.3683 5.51 12.9342 3.33333 10.0008 3.33333C7.0675 3.33333 4.6325 5.51 4.22667 8.33333ZM4.16667 15H6.66667V10H4.16667V15Z" fill="black"/>
</svg>
