<svg width="20" height="20" viewBox="0 0 20 20" fill="none" xmlns="http://www.w3.org/2000/svg">
<g clip-path="url(#clip0_761_3776)">
<path d="M9.16667 5H10.8333C11.9825 5 12.9167 4.06583 12.9167 2.91667V2.08333C12.9167 0.934167 11.9825 0 10.8333 0H9.16667C8.01833 0 7.08333 0.934167 7.08333 2.08333V2.91667C7.08333 4.06583 8.01833 5 9.16667 5ZM8.75 2.08333C8.75 1.85417 8.93667 1.66667 9.16667 1.66667H10.8333C11.0625 1.66667 11.25 1.85417 11.25 2.08333V2.91667C11.25 3.14583 11.0625 3.33333 10.8333 3.33333H9.16667C8.93667 3.33333 8.75 3.14583 8.75 2.91667V2.08333ZM10.8333 15H9.16667C8.01833 15 7.08333 15.9342 7.08333 17.0833V17.9167C7.08333 19.0658 8.01833 20 9.16667 20H10.8333C11.9825 20 12.9167 19.0658 12.9167 17.9167V17.0833C12.9167 15.9342 11.9825 15 10.8333 15ZM11.25 17.9167C11.25 18.1458 11.0625 18.3333 10.8333 18.3333H9.16667C8.93667 18.3333 8.75 18.1458 8.75 17.9167V17.0833C8.75 16.8542 8.93667 16.6667 9.16667 16.6667H10.8333C11.0625 16.6667 11.25 16.8542 11.25 17.0833V17.9167ZM17.9167 15H16.25C15.1008 15 14.1667 15.9342 14.1667 17.0833V17.9167C14.1667 19.0658 15.1008 20 16.25 20H17.9167C19.0658 20 20 19.0658 20 17.9167V17.0833C20 15.9342 19.0658 15 17.9167 15ZM18.3333 17.9167C18.3333 18.1458 18.1458 18.3333 17.9167 18.3333H16.25C16.0208 18.3333 15.8333 18.1458 15.8333 17.9167V17.0833C15.8333 16.8542 16.0208 16.6667 16.25 16.6667H17.9167C18.1458 16.6667 18.3333 16.8542 18.3333 17.0833V17.9167ZM3.75 15H2.08333C0.935 15 0 15.9342 0 17.0833V17.9167C0 19.0658 0.935 20 2.08333 20H3.75C4.89833 20 5.83333 19.0658 5.83333 17.9167V17.0833C5.83333 15.9342 4.89833 15 3.75 15ZM4.16667 17.9167C4.16667 18.1458 3.98 18.3333 3.75 18.3333H2.08333C1.85333 18.3333 1.66667 18.1458 1.66667 17.9167V17.0833C1.66667 16.8542 1.85333 16.6667 2.08333 16.6667H3.75C3.98 16.6667 4.16667 16.8542 4.16667 17.0833V17.9167ZM2.08333 12.9167V12.0833C2.08333 10.475 3.39167 9.16667 5 9.16667H9.16667V7.08333C9.16667 6.6225 9.54 6.25 10 6.25C10.46 6.25 10.8333 6.6225 10.8333 7.08333V9.16667H15C16.6083 9.16667 17.9167 10.475 17.9167 12.0833V12.9167C17.9167 13.3775 17.5442 13.75 17.0833 13.75C16.6225 13.75 16.25 13.3775 16.25 12.9167V12.0833C16.25 11.3942 15.6892 10.8333 15 10.8333H10.8333V12.9167C10.8333 13.3775 10.46 13.75 10 13.75C9.54 13.75 9.16667 13.3775 9.16667 12.9167V10.8333H5C4.31083 10.8333 3.75 11.3942 3.75 12.0833V12.9167C3.75 13.3775 3.37667 13.75 2.91667 13.75C2.45667 13.75 2.08333 13.3775 2.08333 12.9167Z" fill="white"/>
</g>
<defs>
<clipPath id="clip0_761_3776">
<rect width="20" height="20" fill="white"/>
</clipPath>
</defs>
</svg>
