<svg width="20" height="20" viewBox="0 0 20 20" fill="none" xmlns="http://www.w3.org/2000/svg">
<g clip-path="url(#clip0_458_12591)">
<path d="M0.760058 8.83368L8.50006 13.4745C8.95297 13.747 9.47152 13.8909 10.0001 13.8909C10.5286 13.8909 11.0471 13.747 11.5001 13.4745L19.2401 8.83368C19.4698 8.69592 19.6599 8.501 19.7919 8.26792C19.9239 8.03484 19.9933 7.77154 19.9933 7.50368C19.9933 7.23582 19.9239 6.97252 19.7919 6.73944C19.6599 6.50636 19.4698 6.31145 19.2401 6.17368L11.5001 1.52618C11.0472 1.25348 10.5286 1.10938 10.0001 1.10938C9.47147 1.10938 8.95287 1.25348 8.50006 1.52618L0.760058 6.16701C0.530338 6.30478 0.340217 6.4997 0.208216 6.73278C0.0762156 6.96586 0.00683594 7.22915 0.00683594 7.49701C0.00683594 7.76488 0.0762156 8.02817 0.208216 8.26125C0.340217 8.49433 0.530338 8.68925 0.760058 8.82701V8.83368ZM9.78589 3.66701C9.8506 3.62824 9.92462 3.60776 10.0001 3.60776C10.0755 3.60776 10.1495 3.62824 10.2142 3.66701L16.5984 7.50035L10.2142 11.3337C10.1495 11.3725 10.0755 11.3929 10.0001 11.3929C9.92462 11.3929 9.8506 11.3725 9.78589 11.3337L3.40172 7.50035L9.78589 3.66701Z" fill="white"/>
<path d="M11.0717 15.6921C10.7479 15.8863 10.3775 15.9888 10 15.9888C9.62249 15.9888 9.25207 15.8863 8.92833 15.6921L1.89333 11.4712C1.70366 11.3574 1.48717 11.2959 1.26597 11.2931C1.04477 11.2902 0.826784 11.3462 0.634266 11.4551C0.441747 11.5641 0.281596 11.7222 0.170164 11.9133C0.0587327 12.1044 1.26142e-05 12.3217 0 12.5429C1.23058e-05 12.7587 0.055894 12.9708 0.162206 13.1586C0.268519 13.3464 0.42164 13.5035 0.606667 13.6146L7.64167 17.8329C8.35367 18.2614 9.16898 18.4879 10 18.4879C10.831 18.4879 11.6463 18.2614 12.3583 17.8329L19.3933 13.6121C19.578 13.5012 19.7309 13.3445 19.8372 13.1572C19.9435 12.9699 19.9996 12.7583 20 12.5429C20 12.3217 19.9413 12.1044 19.8298 11.9133C19.7184 11.7222 19.5583 11.5641 19.3657 11.4551C19.1732 11.3462 18.9552 11.2902 18.734 11.2931C18.5128 11.2959 18.2963 11.3574 18.1067 11.4712L11.0717 15.6921Z" fill="white"/>
</g>
<defs>
<clipPath id="clip0_458_12591">
<rect width="20" height="20" fill="white"/>
</clipPath>
</defs>
</svg>
