<?xml version="1.0" encoding="UTF-8" standalone="no"?>
<svg
   viewBox="0 0 128 128"
   version="1.1"
   id="svg7"
   sodipodi:docname="reshot-icon-vip-card-SM3BC8EHZQ.svg"
   inkscape:version="1.4 (86a8ad7, 2024-10-11)"
   xmlns:inkscape="http://www.inkscape.org/namespaces/inkscape"
   xmlns:sodipodi="http://sodipodi.sourceforge.net/DTD/sodipodi-0.dtd"
   xmlns="http://www.w3.org/2000/svg"
   xmlns:svg="http://www.w3.org/2000/svg">
  <defs
     id="defs7" />
  <sodipodi:namedview
     id="namedview7"
     pagecolor="#ffffff"
     bordercolor="#000000"
     borderopacity="0.25"
     inkscape:showpageshadow="2"
     inkscape:pageopacity="0.0"
     inkscape:pagecheckerboard="0"
     inkscape:deskcolor="#d1d1d1"
     inkscape:zoom="2.6796875"
     inkscape:cx="72.769679"
     inkscape:cy="29.48105"
     inkscape:window-width="1600"
     inkscape:window-height="930"
     inkscape:window-x="-6"
     inkscape:window-y="-6"
     inkscape:window-maximized="1"
     inkscape:current-layer="vip_card" />
  <title
     id="title1">43.1</title>
  <g
     id="vip_card"
     data-name="vip card"
     style="fill:#1eab8f;fill-opacity:1">
    <path
       d="M99.8,22.32H77.64a1.034,1.034,0,0,1-.94-1.11A12.793,12.793,0,0,0,66,6.99V4.67a2,2,0,0,0-4,0V7a12.645,12.645,0,0,0-6.58,3.14,12.812,12.812,0,0,0-4.22,9.49,12.941,12.941,0,0,0,.11,1.65.972.972,0,0,1-.95,1.04H28.2a6.95,6.95,0,0,0-6.94,6.94v89.13a6.944,6.944,0,0,0,6.94,6.94H99.8a6.944,6.944,0,0,0,6.94-6.94V29.26A6.95,6.95,0,0,0,99.8,22.32ZM62.16,19.21a2,2,0,0,0,3.68,0c.513,1.259-.8,2.31-1.84,2.31A1.843,1.843,0,0,1,62.16,19.21Zm40.58,99.18a2.945,2.945,0,0,1-2.94,2.94H28.2a2.945,2.945,0,0,1-2.94-2.94V29.26a2.945,2.945,0,0,1,2.94-2.94H50.36a4.936,4.936,0,0,0,3.73-1.69,4.845,4.845,0,0,0,1.18-3.87,8.466,8.466,0,0,1-.07-1.13,8.841,8.841,0,0,1,2.9-6.53A8.481,8.481,0,0,1,62,11.07V14.1a5.89,5.89,0,1,0,4,0V11.07c3.33.75,7.129,4.5,6.8,8.55-.03.369-.02.73-.07,1.09a5,5,0,0,0,1.21,3.94,4.92,4.92,0,0,0,3.7,1.67H99.8a2.945,2.945,0,0,1,2.94,2.94Z"
       id="path1"
       style="fill:#1eab8f;fill-opacity:1" />
    <path
       d="M33.131,52.112a2,2,0,0,1-2-2V38.146A5.956,5.956,0,0,1,37.08,32.2H49.046a2,2,0,0,1,0,4H37.08a1.951,1.951,0,0,0-1.949,1.949V50.112A2,2,0,0,1,33.131,52.112Z"
       id="path2"
       style="fill:#1eab8f;fill-opacity:1" />
    <path
       d="M90.92,115.458H78.954a2,2,0,1,1,0-4H90.92a1.951,1.951,0,0,0,1.949-1.949V97.543a2,2,0,0,1,4,0v11.966A5.955,5.955,0,0,1,90.92,115.458Z"
       id="path3"
       style="fill:#1eab8f;fill-opacity:1" />
    <path
       d="M74.034,65.526a2,2,0,0,1-2-2v-14.6a2.989,2.989,0,0,1,2.619-2.965c3.739-.462,8.732-.535,11.285,1.724a4.7,4.7,0,0,1,1.619,3.618,5.369,5.369,0,0,1-1.932,4.245c-2.562,2.152-7.094,2.086-9.591,1.851v6.122A2,2,0,0,1,74.034,65.526Zm2-12.14c2.452.274,5.864.3,7.019-.9.844-.873.434-1.627.236-1.8-.959-.849-3.813-1.172-7.255-.848Z"
       id="path4"
       style="fill:#1eab8f;fill-opacity:1" />
    <path
       d="M63.437,65.526a2,2,0,0,1-2-2V47.716a2,2,0,1,1,4,0v15.81A2,2,0,0,1,63.437,65.526Z"
       id="path5"
       style="fill:#1eab8f;fill-opacity:1" />
    <path
       d="M48.2,65.915a2.971,2.971,0,0,1-2.855-2.11l-4.818-15.7a2,2,0,1,1,3.824-1.173L48.2,59.477l3.849-12.543a2,2,0,1,1,3.824,1.173l-4.817,15.7A2.973,2.973,0,0,1,48.2,65.915Z"
       id="path6"
       style="fill:#1eab8f;fill-opacity:1" />
    <path
       d="M69.356,101.675,64,98.859l-5.356,2.815a3.975,3.975,0,0,1-5.767-4.189L53.9,91.507,49.567,87.3a3.974,3.974,0,0,1,2.2-6.778l6-.873,2.665-5.424a3.974,3.974,0,0,1,7.128,0l2.684,5.44,5.982.858a3.974,3.974,0,0,1,2.2,6.778L74.09,91.53l1.033,5.954a3.952,3.952,0,0,1-1.582,3.888A4.746,4.746,0,0,1,69.356,101.675Zm-5.369-2.823h0Zm.894-21.027a1,1,0,0,0-1.8.006l-1.746,3.6a3.974,3.974,0,0,1-2.993,2.174l-3.978.578a1,1,0,0,0-.549,1.71L56.7,88.666a3.974,3.974,0,0,1,1.143,3.518l-.68,3.963A1,1,0,0,0,58.622,97.2l3.529-1.886a3.971,3.971,0,0,1,3.7,0l3.559,1.871a1,1,0,0,0,1.45-1.061l-.7-3.938A3.974,3.974,0,0,1,71.3,88.666l2.879-2.807a1,1,0,0,0-.561-1.706L69.653,83.6a3.971,3.971,0,0,1-2.992-2.173Z"
       id="path7"
       style="fill:#ffd42a;fill-opacity:1" />
    <path
       style="fill:#ffd42a;fill-opacity:1;stroke:#006a0b;stroke-width:0.0527753"
       d="m 57.484827,96.700984 c -0.0856,-0.223079 -0.0047,-1.504886 0.179752,-2.84846 0.494208,-3.599595 0.325708,-4.13312 -2.007772,-6.357248 -2.799429,-2.66824 -2.680536,-3.000691 1.276534,-3.56948 3.095343,-0.444925 3.743773,-0.910334 5.106839,-3.665423 0.596579,-1.205832 1.27936,-2.387092 1.51729,-2.625023 0.400884,-0.400884 0.466458,-0.398879 0.894385,0.02734 0.253982,0.252971 0.936762,1.43181 1.517291,2.619644 1.341989,2.745876 1.994373,3.210239 5.077824,3.614367 3.90264,0.511494 4.081027,0.962428 1.391963,3.51866 -1.025088,0.974451 -1.979875,2.077039 -2.121748,2.450194 -0.357157,0.939392 -0.322318,2.282408 0.119275,4.597991 0.585428,3.069815 0.218648,3.238653 -3.162083,1.455587 -1.542574,-0.813585 -2.572204,-1.187445 -3.270283,-1.187445 -0.698118,0 -1.727546,0.373816 -3.270028,1.187445 -2.418387,1.275651 -3.005533,1.416933 -3.249239,0.781846 z"
       id="path8" />
    <path
       style="fill:#ffd42a;fill-opacity:1;stroke:#ffd42a;stroke-width:1.453;stroke-opacity:1;stroke-dasharray:none"
       d="m 57.804348,93.831365 c 0.101992,-1.656237 0.107065,-3.323615 0.01127,-3.705284 -0.09579,-0.381668 -1.001874,-1.586624 -2.013514,-2.677679 -1.01164,-1.091055 -1.839345,-2.150223 -1.839345,-2.353707 0,-0.383838 1.104809,-0.74921 3.166519,-1.047202 2.880665,-0.416361 3.538134,-0.935166 5.354013,-4.224827 0.640899,-1.161057 1.318949,-2.111012 1.506778,-2.111012 0.187829,0 0.860915,0.949955 1.495745,2.111012 1.644998,3.008575 2.454345,3.688539 4.865964,4.088084 2.729585,0.452225 3.665602,0.768359 3.665602,1.238036 0,0.221911 -0.849806,1.279883 -1.888458,2.351049 -2.232086,2.30196 -2.413386,2.928848 -1.89185,6.541513 0.186026,1.288597 0.274478,2.446056 0.196559,2.572131 -0.250139,0.404733 -0.804181,0.251917 -3.126194,-0.862263 -1.482689,-0.711444 -2.637762,-1.091489 -3.317368,-1.091489 -0.679605,0 -1.834678,0.380045 -3.317367,1.091489 -1.251099,0.60032 -2.450016,1.09149 -2.66426,1.09149 -0.33154,0 -0.361927,-0.44834 -0.204096,-3.011341 z"
       id="path9" />
  </g>
</svg>
