<?xml version="1.0" encoding="utf-8"?>
<svg width="1024" height="1024" version="1.1" id="svg59" xmlns="http://www.w3.org/2000/svg">
  <defs id="defs2">
    <linearGradient id="gradient_0" gradientUnits="userSpaceOnUse" x1="805.69775" y1="326.24564" x2="374.35992" y2="758.81189" gradientTransform="matrix(-1,0,0,1,1024,0)">
      <stop offset="0" stop-color="#000814" id="stop1"/>
      <stop offset="1" stop-color="#1C2C35" id="stop2"/>
    </linearGradient>
  </defs>
  <path fill="url(#gradient_0)" d="m 897.387,776.648 c 0.081,-0.197 0.159,-0.396 0.245,-0.591 0.754,-1.708 2.128,-3.28 3.109,-4.892 3.804,-6.251 7.856,-12.348 11.621,-18.621 10.033,-16.714 19.4554,-34.423 27.1852,-52.324 47.1945,-112.234 50.2419,-238.155 8.5317,-352.54 C 917.05,260.435 859.819,184.91 784.218,131.44 761.07,115.632 736.659,101.757 711.235,89.9527 689.243,79.4812 665.771,71.4696 642.322,65.0316 563.034,42.7524 479.375,41.0658 399.254,60.1311 c -14.308,3.4392 -28.605,7.2151 -42.481,12.1404 -24.436,8.5405 -48.187,18.9242 -71.05,31.0615 -84.389,45.77 -152.22,116.955 -193.867,203.453 -53.693,113.783 -60.742,244.057 -19.639,362.969 20.026,56.477 50.789,108.545 90.594,153.335 6.659,7.573 13.595,16.258 21.157,22.925 9.662,11.241 22.367,19.605 32.778,30.013 l 1.1,0.589 c 6.726,6.213 15.243,11.653 22.869,16.771 11.994,8.05 24.148,16.125 36.747,23.192 9.468,5.31 19.426,10.009 29.217,14.696 5.766,2.761 11.666,5.89 17.714,7.952 7.425,3.724 15.706,6.312 23.537,9.028 22.441,7.782 50.37,16.716 73.959,19.612 24.715,4.405 49.71,7.057 74.798,7.938 3.154,0.162 6.336,0.11 9.494,0.129 58.316,0.969 116.333,-8.529 171.295,-28.041 3.051,-1.049 6.051,-2.285 9.059,-3.451 5.667,-2.245 11.446,-4.424 16.949,-7.045 4.852,-1.983 9.616,-4.246 14.403,-6.385 9.546,-4.412 19.144,-9.213 28.129,-14.685 4.283,-2.314 8.385,-4.95 12.516,-7.522 41.121,-23.596 78.919,-57.372 109.294,-93.628 10.402,-12.417 19.818,-25.605 29.561,-38.53 z" id="path2" style="fill:url(#gradient_0)"/>
  <path fill="#f2e3de" d="m 897.387,776.648 c 0.081,-0.197 0.159,-0.396 0.245,-0.591 0.754,-1.708 2.128,-3.28 3.109,-4.892 3.804,-6.251 7.856,-12.348 11.621,-18.621 10.033,-16.714 19.4554,-34.423 27.1852,-52.324 47.1945,-112.234 50.2419,-238.155 8.5317,-352.54 C 917.05,260.435 859.819,184.91 784.218,131.44 761.07,115.632 736.659,101.757 711.235,89.9527 689.243,79.4812 665.771,71.4696 642.322,65.0316 563.034,42.7524 479.375,41.0658 399.254,60.1311 c -14.308,3.4392 -28.605,7.2151 -42.481,12.1404 -24.436,8.5405 -48.187,18.9242 -71.05,31.0615 -84.389,45.77 -152.22,116.955 -193.867,203.453 -53.693,113.783 -60.742,244.057 -19.639,362.969 20.026,56.477 50.789,108.545 90.594,153.335 6.659,7.573 13.595,16.258 21.157,22.925 9.538,-36.556 16.975,-78.655 31.775,-113.232 21.204,-49.536 43.153,-52.865 88.861,-71.116 10.039,-4.384 19.764,-9.37 29.549,-14.289 3.075,-7.684 5.425,-15.778 8.095,-23.618 l 12.844,-36.814 c 5.6,-16.065 12.307,-31.861 17.42,-48.072 l -5.041,-10.817 c -13.314,-28.859 -24.252,-67.048 -25.194,-99.012 -0.319,-10.83 2.39,-22.709 1.078,-33.11 -1.635,-12.957 -5.926,-25.689 -8.257,-38.571 -8.106,-44.802 -10.916,-95.04 5.309,-138.472 14.229,-38.093 53.221,-71.559 89.57,-88.243 5.089,-3.341 11.795,-5.244 17.514,-7.256 35.278,-12.079 73.139,-14.532 109.68,-7.105 46.976,9.702 92.445,36.006 119.013,76.677 10.127,15.502 17.02,32.168 21.348,50.138 1.484,6.163 2.474,12.469 4.109,18.588 1.777,6.65 3.961,13.191 5.744,19.843 4.641,17.3 8.591,34.778 11.841,52.393 6.641,36.633 8.748,73.697 12.769,110.643 5.398,46.329 11.499,92.573 18.3,138.716 2.675,18.831 5.527,37.636 8.554,56.413 1.522,9.48 2.67,19.423 4.945,28.742 10.886,5.1 25.745,10.772 37.258,13.806 7.21,2.596 14.834,4.577 21.893,7.466 7.22,2.631 14.489,5.153 21.334,8.681 19.193,9.893 32.354,26.865 41.295,46.144 4.734,10.21 9.037,21.2 11.813,32.11 z" id="path3"/>
  <defs id="defs4">
    <linearGradient id="gradient_1" gradientUnits="userSpaceOnUse" x1="616.57111" y1="530.56641" x2="219.54964" y2="760.34796" gradientTransform="matrix(-1,0,0,1,1024,0)">
      <stop offset="0" stop-color="#00000B" id="stop3"/>
      <stop offset="1" stop-color="#19232A" id="stop4"/>
    </linearGradient>
  </defs>
  <path fill="url(#gradient_1)" d="m 672.821,625.552 c 13.997,-64.796 26.186,-130.542 30.349,-196.798 1.697,-32.04 1.945,-64.141 0.745,-96.203 -0.418,-12.904 -1.067,-25.799 -1.946,-38.679 -0.553,-8.974 -0.798,-18.341 -2.471,-27.186 -0.722,6.976 -0.665,14.138 -1.006,21.152 -2.641,54.343 -19.723,112.46 -38.484,163.407 -4.209,11.428 -8.02,22.952 -12.575,34.254 -25.603,63.527 -59.453,125.565 -102.807,178.733 -11.828,14.504 -24.354,29.14 -38.253,41.71 -19.99,18.077 -47.53,35.868 -75.582,34.278 -10.698,-0.606 -21.157,-3.994 -28.39,-12.232 -12.608,-14.359 -14.329,-36.409 -15.889,-54.6 -0.624,-7.279 -1.427,-14.71 -0.997,-22.019 -0.513,-11.475 1.735,-22.427 2.478,-33.796 -0.458,-4.615 0.226,-9.421 0.172,-14.073 -0.127,-10.772 -1.679,-26.392 0.113,-36.645 l -0.715,-1.336 c -1.247,3.147 -1.229,19.664 -1.506,24.183 -2.192,35.799 -7.289,95.872 6.948,128.553 2.417,5.549 7.565,11.06 9.346,15.373 3.386,3.585 9.062,5.88 13.672,7.38 20.291,6.603 41.349,2.611 59.934,-7.009 65.227,-33.762 116.225,-114.058 151.034,-176.665 l 14.176,-25.618 c 2.892,-5.305 6.392,-10.941 8.235,-16.699 4.789,-13.019 10.553,-25.671 15.786,-38.513 8.292,-20.345 16.139,-41.707 21.913,-62.909 3.448,-12.661 6.62,-25.931 8.56,-38.917 1.004,-6.725 0.746,-16.072 2.754,-22.226 0.855,3.104 -2.785,40.221 -3.302,46.301 -5.149,60.535 -17.714,119.452 -33.089,178.138 -10.16,38.783 -21.164,76.776 -34.574,114.593 -6.427,18.124 -12.705,36.812 -20.315,54.464 -9.933,23.041 -21.892,45.507 -34.273,67.324 -28.69,49.721 -66.511,93.576 -111.476,129.261 -7.6,5.983 -15.653,11.365 -24.087,16.099 -3.446,1.922 -10.35,4.412 -12.517,7.388 -0.182,0.25 -0.381,0.488 -0.568,0.734 -0.139,0.184 -0.275,0.37 -0.412,0.555 l -1.913,0.559 c 24.715,4.405 49.71,7.057 74.798,7.938 3.154,0.162 6.336,0.11 9.494,0.129 58.316,0.969 116.333,-8.529 171.295,-28.041 3.051,-1.049 6.051,-2.285 9.059,-3.451 5.667,-2.245 11.446,-4.424 16.949,-7.045 4.852,-1.983 9.616,-4.246 14.403,-6.385 9.546,-4.412 19.144,-9.213 28.129,-14.685 4.283,-2.314 8.385,-4.95 12.516,-7.522 41.121,-23.596 78.919,-57.372 109.294,-93.628 10.402,-12.417 19.818,-25.605 29.561,-38.53 -2.776,-10.91 -7.079,-21.9 -11.813,-32.11 -8.941,-19.279 -22.102,-36.251 -41.295,-46.144 -6.845,-3.528 -14.114,-6.05 -21.334,-8.681 -7.059,-2.889 -14.683,-4.87 -21.893,-7.466 -11.513,-3.034 -26.372,-8.706 -37.258,-13.806 -30.7,-13.935 -62.338,-24.681 -90.973,-42.889 z" id="path4" style="fill:url(#gradient_1)"/>
  <path fill="#1c2c35" d="m 897.387,776.648 c -2.776,-10.91 -7.079,-21.9 -11.813,-32.11 -8.941,-19.279 -22.102,-36.251 -41.295,-46.144 -6.845,-3.528 -14.114,-6.05 -21.334,-8.681 -0.207,0.116 -0.412,0.238 -0.621,0.349 -2.445,1.293 -6.779,1.475 -9.558,2.025 -4.466,0.876 -8.761,2.47 -12.719,4.718 -23.903,13.509 -42.263,52.523 -51.025,77.817 -13.858,40.007 -20.818,82.661 -26.972,124.435 -1.536,10.428 -4.12,21.405 -4.163,31.956 9.546,-4.412 19.144,-9.213 28.129,-14.685 4.283,-2.314 8.385,-4.95 12.516,-7.522 41.121,-23.596 78.919,-57.372 109.294,-93.628 10.402,-12.417 19.818,-25.605 29.561,-38.53 z" id="path5"/>
  <path fill="#030d1a" d="m 758.532,908.806 c 0.045,-0.166 0.086,-0.332 0.133,-0.497 3.666,-12.862 24.935,-46.83 20.7,-57.934 l -1.112,-0.709 c -5.932,1.598 -16.587,19.958 -20.008,25.9 -6.618,11.496 -11.393,19.494 -12.497,32.975 -0.181,2.208 -0.531,4.718 0.013,6.882 0.076,0.304 0.17,0.603 0.255,0.905 4.283,-2.314 8.385,-4.95 12.516,-7.522 z" id="path6"/>
  <path fill="#030d1a" d="m 778.28,776.436 c -0.763,0.009 -1.532,0.003 -2.291,0.101 -2.059,0.265 -3.618,1.072 -4.888,2.722 -8.236,10.703 -16.205,55.385 -18.239,70.471 -1.116,8.273 -1.629,16.632 -2.286,24.951 -0.268,3.389 -1.454,8.14 -0.984,11.377 l 0.832,-1.48 c 4.203,-13.989 7.738,-28.022 12.481,-41.87 5.352,-15.627 17.15,-40.875 18.606,-56.215 0.398,-4.191 -0.542,-6.865 -3.231,-10.057 z" id="path7"/>
  <path fill="#030d1a" d="m 506.181,975.935 c 4.815,-1.379 10.773,-7.746 14.669,-11.025 37.473,-31.534 68.123,-72.732 91.785,-115.371 19.438,-35.026 30.663,-64.853 41.843,-103.158 3.209,-10.994 6.55,-21.768 9.187,-32.926 3.595,-15.208 5.938,-30.696 9.458,-45.877 l -0.524,-0.092 0.533,-1.258 c -0.052,0.134 -0.107,0.268 -0.158,0.403 -2.853,7.537 -4.296,15.899 -6.499,23.667 -4.363,15.389 -9.554,30.745 -15.129,45.727 -10.15,27.274 -24.615,53.814 -38.732,79.236 -16.307,29.368 -36.318,63.899 -57.261,90.052 -11.913,14.877 -24.582,29.898 -38.046,43.389 -7.781,7.798 -17.691,14.787 -24.412,23.378 -0.6,0.768 -1.469,1.474 -2.171,2.161 0.982,0.598 1.579,0.56 2.687,0.573 1.487,0.018 2.058,0.171 3.276,0.992 3.154,0.162 6.336,0.11 9.494,0.129 z" id="path8"/>
  <path fill="#030d1a" d="m 822.945,689.713 c -7.059,-2.889 -14.683,-4.87 -21.893,-7.466 -0.122,0.271 -0.235,0.546 -0.366,0.814 -1.715,3.52 -10.563,5.651 -13.95,8.157 -10.268,7.598 -18.983,16.167 -26.163,26.763 -19.453,28.709 -28.846,62.67 -37.171,95.889 -8.163,32.57 -14.329,64.891 -17.801,98.292 -0.588,5.662 -3.68,20.537 -2.325,24.746 0.055,0.169 0.139,0.327 0.208,0.49 4.852,-1.983 9.616,-4.246 14.403,-6.385 0.043,-10.551 2.627,-21.528 4.163,-31.956 6.154,-41.774 13.114,-84.428 26.972,-124.435 8.762,-25.294 27.122,-64.308 51.025,-77.817 3.958,-2.248 8.253,-3.842 12.719,-4.718 2.779,-0.55 7.113,-0.732 9.558,-2.025 0.209,-0.111 0.414,-0.233 0.621,-0.349 z" id="path9"/>
  <path fill="#030d1a" d="m 686.535,944.443 c -0.008,-19.825 -1.882,-39.757 -2.63,-59.573 -1.383,-38.796 -2.314,-77.606 -2.794,-116.423 -0.227,-20.5 0.512,-41.086 1.38,-61.567 0.382,-9.01 1.788,-18.643 1.31,-27.597 l -0.071,0.57 c -0.367,2.789 -1.21,5.385 -1.694,8.138 -1.291,7.359 -2.182,15.022 -2.979,22.454 -2.394,22.331 -3.295,44.916 -4.33,67.342 -1.191,25.82 -2.29,51.571 -2.19,77.427 0.08,20.655 1.099,41.419 2.3,62.037 0.307,5.266 1.171,27.058 2.639,30.643 3.051,-1.049 6.051,-2.285 9.059,-3.451 z" id="path10"/>
  <path fill="#1c2c35" d="m 763.794,668.441 c -2.275,-9.319 -3.423,-19.262 -4.945,-28.742 -3.027,-18.777 -5.879,-37.582 -8.554,-56.413 -6.801,-46.143 -12.902,-92.387 -18.3,-138.716 -4.021,-36.946 -6.128,-74.01 -12.769,-110.643 -3.25,-17.615 -7.2,-35.093 -11.841,-52.393 -1.783,-6.652 -3.967,-13.193 -5.744,-19.843 -1.635,-6.119 -2.625,-12.425 -4.109,-18.588 -4.328,-17.97 -11.221,-34.636 -21.348,-50.138 -26.568,-40.671 -72.037,-66.975 -119.013,-76.677 -36.541,-7.427 -74.402,-4.974 -109.68,7.105 -5.719,2.012 -12.425,3.915 -17.514,7.256 l 0.507,1.128 c -2.022,3.14 -7.364,6.352 -10.308,8.816 -7.288,6.096 -14.399,12.111 -20.059,19.809 -1.441,1.497 -2.918,2.972 -4.316,4.508 0.258,-0.063 0.517,-0.122 0.775,-0.188 3.151,-0.817 6.516,-2.945 9.468,-4.361 4.581,-2.247 9.292,-4.22 14.107,-5.908 28.281,-9.648 61.244,-4.87 87.09,9.506 15.656,8.708 36.347,27.175 44.056,43.574 6.062,7.087 10.352,16.864 14.098,25.402 17.419,40.71 24.558,85.079 20.788,129.199 -0.336,4.422 -0.777,8.836 -1.323,13.238 -0.667,2.032 -0.831,4.132 -1.08,6.247 23.25,-7.882 37.092,-19.454 48.145,-41.695 16.774,-33.75 10.925,-84.625 -0.902,-119.362 -10.787,-31.679 -21.817,-52.575 -44.786,-77.225 l 0.346,-0.224 c 5.735,4.182 10.896,10.772 15.465,16.213 7.139,8.5 14.064,17.635 19.684,27.217 13.762,23.467 22.787,51.676 26.975,78.495 3.395,21.746 4.612,45.092 1.322,66.915 -1.102,7.309 -2.959,14.447 -4.744,21.611 12.209,-10.236 19.252,-16.169 22.637,-32.338 1.335,-6.466 2.294,-13.004 2.873,-19.58 2.056,-23.503 0.468,-47.692 -3.523,-70.911 -0.863,-5.021 -5.235,-17.614 -5.204,-21.185 3.04,3.498 4.682,11.356 6.01,15.904 8.962,30.683 14.13,63.02 11.898,95.027 -1.561,22.367 -5.536,46.896 -12.256,68.317 -3.576,11.398 -8.403,22.465 -12.942,33.505 -2.467,6.154 -5.12,12.233 -7.955,18.226 -1.945,4.089 -4.737,8.603 -6.021,12.922 -4.331,8.732 -8.771,18.716 -14.532,26.579 l -0.731,-0.025 c -1.252,1.472 -1.537,3.207 -2.683,4.654 -2.652,3.349 -5.939,5.861 -8.219,9.551 -3.179,5.145 -13.271,14.135 -17.971,18.83 -7.9,7.891 -15.764,16.132 -24.303,23.335 -26.927,22.715 -73.296,49.995 -107.823,57.779 -18.334,4.133 -39.457,2.86 -55.623,-7.509 -6.006,-3.853 -10.905,-8.805 -15.66,-14.078 -1.636,-1.814 -3.154,-4.139 -4.979,-5.712 -1.792,10.253 -0.24,25.873 -0.113,36.645 0.054,4.652 -0.63,9.458 -0.172,14.073 -0.743,11.369 -2.991,22.321 -2.478,33.796 -0.43,7.309 0.373,14.74 0.997,22.019 1.56,18.191 3.281,40.241 15.889,54.6 7.233,8.238 17.692,11.626 28.39,12.232 28.052,1.59 55.592,-16.201 75.582,-34.278 13.899,-12.57 26.425,-27.206 38.253,-41.71 43.354,-53.168 77.204,-115.206 102.807,-178.733 4.555,-11.302 8.366,-22.826 12.575,-34.254 18.761,-50.947 35.843,-109.064 38.484,-163.407 0.341,-7.014 0.284,-14.176 1.006,-21.152 1.673,8.845 1.918,18.212 2.471,27.186 0.879,12.88 1.528,25.775 1.946,38.679 1.2,32.062 0.952,64.163 -0.745,96.203 -4.163,66.256 -16.352,132.002 -30.349,196.798 28.635,18.208 60.273,28.954 90.973,42.889 z" id="path11"/>
  <path fill="#1c2c35" d="m 626.27,480.03 -0.731,-0.025 c -1.252,1.472 -1.537,3.207 -2.683,4.654 -2.652,3.349 -5.939,5.861 -8.219,9.551 -3.179,5.145 -13.271,14.135 -17.971,18.83 -7.9,7.891 -15.764,16.132 -24.303,23.335 -26.927,22.715 -73.296,49.995 -107.823,57.779 -18.334,4.133 -39.457,2.86 -55.623,-7.509 -6.006,-3.853 -10.905,-8.805 -15.66,-14.078 -1.636,-1.814 -3.154,-4.139 -4.979,-5.712 -1.792,10.253 -0.24,25.873 -0.113,36.645 0.054,4.652 -0.63,9.458 -0.172,14.073 0.767,-2.965 0.694,-6.528 0.896,-9.608 2.509,18.097 2.606,37.42 8.084,54.901 2.833,9.042 7.422,17.78 16.272,22.179 10.387,5.164 22.944,2.793 33.477,-0.625 57.056,-18.518 125.22,-115.649 156.484,-165.496 8.053,-12.839 16.155,-25.386 23.064,-38.894 z" id="path12"/>
  <path fill="#3d525d" d="m 385.515,651.369 c 2.55,12.157 5.192,28.106 13.647,37.609 5.85,6.577 13.705,10.176 22.458,10.665 29.304,1.637 59.024,-19.386 79.803,-38.173 45.56,-41.191 104.662,-129.168 130.092,-186.206 2.684,-6.019 8.977,-15.697 9.287,-21.813 -4.331,8.732 -8.771,18.716 -14.532,26.579 -6.909,13.508 -15.011,26.055 -23.064,38.894 -31.264,49.847 -99.428,146.978 -156.484,165.496 -10.533,3.418 -23.09,5.789 -33.477,0.625 -8.85,-4.399 -13.439,-13.137 -16.272,-22.179 -5.478,-17.481 -5.575,-36.804 -8.084,-54.901 -0.202,3.08 -0.129,6.643 -0.896,9.608 -0.743,11.369 -2.991,22.321 -2.478,33.796 z" id="path13"/>
  <path fill="#3d525d" d="m 584.86,375.372 0.4,0.26 c 0.228,-0.468 0.44,-0.943 0.628,-1.428 3.031,-7.789 3.893,-16.729 4.563,-25.006 2.977,-36.781 -2.905,-82.823 -18.003,-116.696 -15.384,-34.514 -40.957,-66.709 -77.167,-80.348 -23.168,-8.726 -50.542,-9.774 -73.938,-1.415 -7.465,2.667 -14.07,6.425 -21.226,9.663 -1.441,1.497 -2.918,2.972 -4.316,4.508 0.258,-0.063 0.517,-0.122 0.775,-0.188 3.151,-0.817 6.516,-2.945 9.468,-4.361 4.581,-2.247 9.292,-4.22 14.107,-5.908 28.281,-9.648 61.244,-4.87 87.09,9.506 15.656,8.708 36.347,27.175 44.056,43.574 6.062,7.087 10.352,16.864 14.098,25.402 17.419,40.71 24.558,85.079 20.788,129.199 -0.336,4.422 -0.777,8.836 -1.323,13.238 z" id="path14"/>
  <path fill="#f7d4b6" d="m 455.556,229.753 c -28.452,-7.091 -56.149,-3.608 -81.356,11.61 -6.841,4.13 -10.62,8.872 -16.417,12.851 -1.085,1.171 -2.32,2.397 -2.988,3.865 -4.82,10.588 -6.022,31.062 -7.2,43.047 l -0.197,6.484 c 6.855,-5.256 11.553,-6.251 20.043,-5.13 9.635,1.271 24.822,3.528 31.026,11.828 3.155,4.22 5.304,9.444 7.601,14.172 l -0.647,0.538 c 6.873,16.535 9.007,33.567 2.093,50.462 -2.805,6.853 -6.925,13.18 -11.398,19.053 -3.1,4.551 -6.211,9.426 -5.183,15.207 0.658,3.693 2.845,7.249 4.941,10.32 0.488,1.128 0.09,0.692 1.234,1.271 8.905,1.358 17.551,1.923 26.568,1.531 -1.116,-0.419 -2.259,-0.598 -3.426,-0.81 9.604,-0.362 19.28,0.151 28.901,-0.105 18.355,-0.603 36.634,-2.654 54.667,-6.133 19.953,-3.903 39.373,-8.42 58.546,-15.21 2.37,-0.839 7.461,-1.955 8.809,-3.961 1.039,-4.797 1.88,-9.547 1.785,-14.473 l 0.549,-3.208 c -0.117,-8.019 -0.835,-15.89 -1.778,-23.846 -2.227,-10.819 -5.68,-21.009 -10.325,-31.013 -20.721,-45.612 -58.839,-81.03 -105.848,-98.35 z" id="path15"/>
  <path fill="#e19f7e" d="m 455.556,229.753 c -28.452,-7.091 -56.149,-3.608 -81.356,11.61 -6.841,4.13 -10.62,8.872 -16.417,12.851 -1.085,1.171 -2.32,2.397 -2.988,3.865 -4.82,10.588 -6.022,31.062 -7.2,43.047 0.726,-0.67 1.08,-0.817 2.057,-0.952 2.164,-5.636 2.621,-11.854 4.463,-17.619 4.302,-13.461 18.343,-25.889 31.001,-31.397 27.23,-11.851 58.068,-7.956 84.939,2.853 20.109,8.089 49.553,26.815 63.27,43.839 3.27,4.059 5.633,8.649 7.679,13.422 0.613,1.43 1.343,2.483 0.903,4.009 3.512,4.411 9.978,10.991 12.275,15.884 l -0.126,0.386 c 1.624,6.369 6.999,12.274 9.573,18.489 5.553,13.414 6.314,22.523 9.329,36.13 l 0.549,-3.208 c -0.117,-8.019 -0.835,-15.89 -1.778,-23.846 -2.227,-10.819 -5.68,-21.009 -10.325,-31.013 -20.721,-45.612 -58.839,-81.03 -105.848,-98.35 z" id="path16"/>
  <path fill="#030d1a" d="m 505.704,325.964 c -2.795,-0.018 -6.984,-0.847 -9.587,-0.098 l 0.258,0.57 c 2.051,0.665 4.367,-0.016 6.184,1.043 -0.005,1.929 -1.786,4.112 -2.725,5.854 -0.778,-1.728 -1.521,-4.113 -2.877,-5.439 l -0.394,0.271 c -0.004,1.3 0.219,2.829 -0.362,3.999 l -0.916,-0.274 c -0.281,-1.274 -0.54,-2.551 -0.777,-3.834 -1.266,1.1 -0.399,3.347 -1.902,3.921 -0.683,-1.418 -0.236,-3.493 -1.327,-4.42 l -0.633,0.347 c -0.113,1.34 0.473,3.586 -0.405,4.482 -1.814,-1.172 -0.864,-3.232 -2.641,-4.239 -0.854,1.116 -0.347,3.155 -0.412,4.591 -1.565,-0.622 -1.417,-3.021 -3.106,-3.866 l -0.5,-0.625 c -2.019,0.098 -4.303,1.377 -5.885,2.606 -5.638,4.096 -10.15,9.069 -12.928,15.55 l 1.671,1.768 c -1.574,3.324 -3.061,6.638 -4.392,10.067 -0.523,1.83 -0.965,3.363 -0.88,5.276 3.073,3.542 23.401,4.975 28.849,5.376 1.313,0.096 2.704,-0.002 3.986,0.258 l -0.082,0.63 c 2.815,0.422 5.847,0.311 8.678,0.011 13.79,-2.897 19.274,-5.703 30.295,-14.3 3.976,-5.832 11.265,-3.41 14.942,-8.863 -1.296,-1.085 -4.473,0.808 -6.344,-0.117 l 0.375,-1.114 c -0.707,0.291 -1.391,0.48 -2.128,0.68 l -0.148,-0.815 1.61,-1.888 -0.203,-0.424 c -1.56,0.686 -3.08,1.273 -4.708,1.777 l -0.46,-0.403 c 0.719,-1.853 2.614,-3.076 3.948,-4.532 -0.756,0.113 -1.162,0.284 -1.807,0.705 -0.771,0.504 -1.528,1.065 -2.344,1.498 -1.203,0.639 -2.637,1.233 -3.994,0.865 0.416,-1.649 4.245,-4.536 5.44,-6.177 0.083,-0.114 0.162,-0.23 0.243,-0.346 -1.561,-0.742 -2.758,-1.217 -4.484,-1.397 l -0.537,0.707 c -1.943,1.613 -3.839,3.904 -6.265,4.709 l -0.535,-0.556 c 0.383,-1.886 2.008,-2.372 2.634,-4.06 0.049,-0.132 0.066,-0.273 0.099,-0.41 -1.454,-1.339 -2.235,-2.533 -3.08,-4.315 -0.173,-0.148 -0.452,-0.066 -0.68,-0.075 l -1.024,1.167 c -1.223,1.387 -3.349,4.409 -5.156,4.523 -0.259,-2.238 0.95,-4.402 2.162,-6.2 0.093,-0.139 0.19,-0.275 0.285,-0.413 -1.851,0.355 -6.315,5.09 -7.937,6.489 1.226,-2.811 2.818,-5.317 4.454,-7.902 l 0.23,-0.158 c -0.311,-0.053 -0.636,-0.052 -0.932,-0.159 -0.9,-0.324 -0.97,-0.731 -2.107,-0.783 -2.348,-0.109 -3.466,-0.167 -5.393,-1.585 -1.113,-0.04 -2.253,-0.176 -3.346,0.047 z" id="path17"/>
  <path fill="#fefefe" d="m 494.003,369.148 c 7.722,-0.031 18.292,-4.025 24.569,-8.492 2.214,-1.575 5.358,-4.152 5.565,-7.13 0.126,-1.815 -0.574,-3.185 -1.86,-4.421 -4.079,-3.916 -17.517,-9.296 -22.953,-9.084 -0.742,0.029 -0.426,-0.094 -0.973,0.489 0.935,0.713 1.899,1.428 2.755,2.237 1.876,1.775 2.426,5.025 2.421,7.483 -0.009,4.527 -1.781,9.497 -5.129,12.634 -2.682,2.512 -7.348,3.695 -10.947,3.365 -3.796,-0.347 -7.12,-2.349 -9.412,-5.359 -3.146,-4.132 -3.756,-8.761 -3.039,-13.762 -5.794,5.088 -9.937,9.735 -13.832,16.406 3.073,3.542 23.401,4.975 28.849,5.376 1.313,0.096 2.704,-0.002 3.986,0.258 z" id="path18"/>
  <path fill="#e19f7e" d="m 517.252,328.602 0.23,-0.158 c -0.311,-0.053 -0.636,-0.052 -0.932,-0.159 -0.9,-0.324 -0.97,-0.731 -2.107,-0.783 -2.348,-0.109 -3.466,-0.167 -5.393,-1.585 -1.113,-0.04 -2.253,-0.176 -3.346,0.047 -2.944,2.03 -3.049,4.294 -3.659,7.612 l -0.179,0.988 c 2.129,-2.144 3.74,-4.962 5.902,-6.942 -0.63,2.081 -0.941,3.668 -0.76,5.843 l 0.008,-0.169 1.302,0.062 c 0.498,-1.304 0.946,-2.433 1.775,-3.576 l 0.72,0.294 c -0.101,1.086 -0.283,2.112 -0.509,3.178 l 0.485,0.739 c 1.066,0.15 1.053,0.159 1.842,-0.518 1.795,-1.538 2.468,-3.568 4.621,-4.873 z" id="path19"/>
  <path fill="#f7d4b6" d="m 477.697,330.853 c -5.638,4.096 -10.15,9.069 -12.928,15.55 l 1.671,1.768 c 3.044,-5.17 6.894,-10.35 10.678,-15.011 0.269,1.135 0.195,1.991 1.162,2.705 0.215,-0.14 0.924,-0.581 1.065,-0.769 0.809,-1.079 -0.078,-2.879 -0.385,-4.09 z" id="path20"/>
  <path fill="#e19f7e" d="m 537.316,336.335 c -1.561,-0.742 -2.758,-1.217 -4.484,-1.397 l -0.537,0.707 c -1.579,2.613 -3.587,4.935 -5.067,7.592 3.712,-1.86 7.011,-4.102 10.088,-6.902 z" id="path21"/>
  <path fill="#e19f7e" d="m 525.148,331.013 c -0.895,3.333 -3.142,6.156 -4.698,9.216 2.717,-1.518 5.276,-3.039 7.778,-4.901 -1.454,-1.339 -2.235,-2.533 -3.08,-4.315 z" id="path22"/>
  <path fill="#e19f7e" d="m 483.582,328.247 c -2.019,0.098 -4.303,1.377 -5.885,2.606 l 1.263,0.153 c 1.333,1.302 1.955,2.489 3.832,3.092 l 0.7,-0.389 c 0.32,-1.403 0.237,-2.424 0.034,-3.849 l -0.079,-0.525 0.635,-0.463 z" id="path23"/>
  <defs id="defs24">
    <linearGradient id="gradient_2" gradientUnits="userSpaceOnUse" x1="540.5329" y1="359.48978" x2="533.2113" y2="352.25165" gradientTransform="matrix(-1,0,0,1,1024,0)">
      <stop offset="0" stop-color="#574342" id="stop23"/>
      <stop offset="1" stop-color="#79514B" id="stop24"/>
    </linearGradient>
  </defs>
  <path fill="url(#gradient_2)" d="m 489.14,344.216 c -1.146,-0.41 -1.714,-0.731 -2.879,-0.029 -0.475,0.286 -0.904,0.842 -1.097,1.355 -2.186,2.688 -5.389,8.218 -4.952,11.752 0.078,0.635 0.262,1.458 0.687,1.952 1.199,1.306 2.668,2.217 4.123,3.209 1.598,0.078 3.254,0.213 4.849,0.065 2.465,-0.23 3.446,-1.427 4.912,-3.302 0.537,-1.612 1.176,-3.192 1.79,-4.776 l -0.478,-4.487 c 1.515,-1.028 2.266,-1.635 3.022,-3.321 -3.662,-2.232 -6.272,-1.141 -9.977,-2.418 z" id="path24" style="fill:url(#gradient_2)"/>
  <path fill="#fefefe" d="m 489.14,344.216 c 0.659,1.173 1.078,1.407 0.832,2.802 -1.318,0.339 -1.631,0.398 -2.6,1.328 0.173,1.262 0.568,1.831 1.619,2.602 0.948,0.695 2.169,1.39 3.26,1.834 1.081,-0.73 2.098,-1.568 3.132,-2.364 l 0.712,-0.463 c 1.515,-1.028 2.266,-1.635 3.022,-3.321 -3.662,-2.232 -6.272,-1.141 -9.977,-2.418 z" id="path25"/>
  <path fill="#e19f7e" d="m 489.14,344.216 c 0.659,1.173 1.078,1.407 0.832,2.802 l 0.737,0.794 c 1.41,-0.524 1.513,-0.34 2.961,0.155 0.582,0.81 1.166,1.615 1.713,2.451 l 0.712,-0.463 c 1.515,-1.028 2.266,-1.635 3.022,-3.321 -3.662,-2.232 -6.272,-1.141 -9.977,-2.418 z" id="path26"/>
  <path fill="#131315" d="m 489.14,344.216 c -1.146,-0.41 -1.714,-0.731 -2.879,-0.029 -0.475,0.286 -0.904,0.842 -1.097,1.355 -0.471,2.367 -1.473,5.24 -0.723,7.59 1.211,1.068 2.028,1.41 3.668,1.303 1.595,-0.105 2.98,-0.634 4.437,-1.247 l -0.295,-0.406 c -1.091,-0.444 -2.312,-1.139 -3.26,-1.834 -1.051,-0.771 -1.446,-1.34 -1.619,-2.602 0.969,-0.93 1.282,-0.989 2.6,-1.328 0.246,-1.395 -0.173,-1.629 -0.832,-2.802 z" id="path27"/>
  <path fill="#584241" d="m 494.783,359.218 c -4.111,0.856 -7.715,0.807 -11.851,0.088 -0.825,-0.143 -1.237,-0.209 -2.033,-0.06 1.199,1.306 2.668,2.217 4.123,3.209 1.598,0.078 3.254,0.213 4.849,0.065 2.465,-0.23 3.446,-1.427 4.912,-3.302 z" id="path28"/>
  <path fill="#131315" d="m 496.573,354.442 c 0.769,0.366 1.29,0.599 1.853,1.266 0.124,0.147 0.23,0.308 0.345,0.463 1.017,-0.509 1.043,-0.8 1.462,-1.822 0.771,-1.879 1.311,-5.014 0.322,-6.895 -0.346,-0.657 -0.786,-0.608 -1.438,-0.82 -0.756,1.686 -1.507,2.293 -3.022,3.321 z" id="path29"/>
  <path fill="#030d1a" d="m 541.907,315.281 c -10.596,-10.398 -21.763,-17.941 -37.074,-17.714 -11.084,0.164 -53.531,5.206 -60.004,11.51 -1.694,1.651 -2.006,4.19 -1.91,6.438 0.115,2.692 0.817,5.479 1.678,8.018 11.588,0.114 27.822,-4.309 39.414,-6.672 19.977,-3.518 40.02,-9.258 57.929,3.436 4.548,3.224 7.786,7.926 12.116,11.254 l 0.126,-0.386 c -2.297,-4.893 -8.763,-11.473 -12.275,-15.884 z" id="path30"/>
  <path fill="#e19f7e" d="m 484.011,316.861 c -11.592,2.363 -27.826,6.786 -39.414,6.672 2.064,9.219 7.508,26.943 14.388,33.696 l 0.996,0.071 2.067,0.938 c 1.331,-3.429 2.818,-6.743 4.392,-10.067 l -1.671,-1.768 c 2.778,-6.481 7.29,-11.454 12.928,-15.55 1.582,-1.229 3.866,-2.508 5.885,-2.606 3.349,-1.663 8.499,-0.399 11.292,-2.731 -2.112,-0.865 -5.541,-0.297 -7.836,-0.221 -2.484,-3.085 -3.371,-4.361 -3.027,-8.434 z" id="path31"/>
  <path fill="#f2e3de" d="m 464.769,346.403 c -1.674,3.585 -3.476,7.162 -4.788,10.897 l 2.067,0.938 c 1.331,-3.429 2.818,-6.743 4.392,-10.067 z" id="path32"/>
  <path fill="#131315" d="m 406.068,328.48 -0.647,0.538 c 6.873,16.535 9.007,33.567 2.093,50.462 -2.805,6.853 -6.925,13.18 -11.398,19.053 -3.1,4.551 -6.211,9.426 -5.183,15.207 0.658,3.693 2.845,7.249 4.941,10.32 0.488,1.128 0.09,0.692 1.234,1.271 8.905,1.358 17.551,1.923 26.568,1.531 -1.116,-0.419 -2.259,-0.598 -3.426,-0.81 -6.084,-0.158 -12.167,-0.362 -18.248,-0.614 -2.949,-1.863 -5.799,-4.387 -7.339,-7.571 -4.769,-9.867 4.114,-19.087 8.934,-26.97 2.32,-3.748 4.207,-7.747 5.622,-11.92 6.152,-17.65 4.944,-33.755 -3.151,-50.497 z" id="path33"/>
  <path fill="#e19f7e" d="m 532.894,355.489 c -11.021,8.597 -16.505,11.403 -30.295,14.3 0.424,0.269 0.656,0.441 1.152,0.632 4.347,1.673 13.523,-1.311 17.623,-3.385 4.259,-2.155 9.965,-6.823 11.52,-11.547 z" id="path34"/>
  <path fill="#131315" d="m 420.967,417.948 c -3.384,-0.395 -7.654,-0.311 -10.769,1.115 l 0.293,0.96 c 0.712,0.225 1.378,0.27 2.118,0.346 3.756,-0.575 7.544,0.475 11.121,-0.23 -0.381,-1.124 -1.758,-1.584 -2.763,-2.191 z" id="path35"/>
  <path fill="#1c2c35" d="m 551.297,207.533 c -7.709,-16.399 -28.4,-34.866 -44.056,-43.574 -25.846,-14.376 -58.809,-19.154 -87.09,-9.506 -4.815,1.688 -9.526,3.661 -14.107,5.908 -2.952,1.416 -6.317,3.544 -9.468,4.361 -0.258,0.066 -0.517,0.125 -0.775,0.188 -14.745,13.701 -35.7,52.533 -42.43,71.741 -3.116,8.894 -4.923,18.161 -6.514,27.428 2.93,-3.794 6.165,-7.13 9.986,-10.036 0.854,0.039 0.589,-0.138 0.94,0.171 5.797,-3.979 9.576,-8.721 16.417,-12.851 25.207,-15.218 52.904,-18.701 81.356,-11.61 47.009,17.32 85.127,52.738 105.848,98.35 4.645,10.004 8.098,20.194 10.325,31.013 0.943,7.956 1.661,15.827 1.778,23.846 l -0.549,3.208 c 0.095,4.926 -0.746,9.676 -1.785,14.473 l 0.542,0.814 c 1.698,0.199 3.151,-0.454 4.73,-0.994 -1.24,-3.555 0.442,-14.309 0.685,-18.654 0.788,-14.102 0.796,-28.792 0.299,-42.91 -0.666,-16.428 -3.047,-32.74 -7.105,-48.672 -4.79,-18.136 -13.105,-35.37 -21.951,-51.842 -3.657,-6.809 -8.532,-13.39 -11.132,-20.699 -1.027,-2.889 -0.836,-5.513 -0.723,-8.523 1.07,-1.677 2.358,-3.865 4.373,-4.511 3.433,-1.099 7.378,1.475 10.406,2.881 z" id="path36"/>
  <path fill="#030d1a" d="m 572.973,354.899 c -0.227,-4.388 -1.991,-9.582 -3.377,-13.723 -13.26,-39.622 -50.814,-84.136 -88.307,-102.531 -4.616,-2.265 -21.388,-10.387 -25.733,-8.892 47.009,17.32 85.127,52.738 105.848,98.35 4.645,10.004 8.098,20.194 10.325,31.013 0.943,7.956 1.661,15.827 1.778,23.846 l 0.723,-0.467 c 1.41,-7.88 0.667,-19.856 -1.257,-27.596 z" id="path37"/>
  <path fill="#1c2c35" d="m 324.393,939.228 -0.058,-0.424 c -0.404,-0.638 -0.606,-0.796 -1.316,-1.104 -3.582,-1.555 -30.655,-13.443 -32.068,-15.583 -1.51,-2.289 -1.407,-14.389 -1.547,-17.602 -1.743,-49.914 1.998,-99.87 11.155,-148.968 1.478,-8.194 2.563,-16.169 4.488,-24.303 3.046,-12.878 6.284,-25.598 10.657,-38.104 2.827,-8.085 5.745,-16.112 8.417,-24.244 1.208,-3.675 2.855,-7.169 3.682,-10.966 -1.091,-0.562 -1.615,-0.696 -2.833,-0.364 -2.444,0.667 -5.651,2.442 -7.308,4.394 -2.361,2.78 -4.98,8.862 -6.966,12.356 -11.145,19.613 -20.249,39.736 -29.694,60.179 -4.054,8.774 -8.779,17.485 -12.562,26.343 -2.204,5.162 -3.708,10.638 -5.839,15.841 -4.338,10.597 -9.311,20.82 -13.121,31.637 -3.499,9.935 -6.636,19.993 -10.146,29.925 -1.823,5.161 -4.139,10.149 -5.802,15.363 -2.164,6.786 -5.286,21.777 -8.276,27.082 -2.164,-0.455 -5.138,-3.506 -7.131,-4.768 l -0.279,0.699 c 6.726,6.213 15.243,11.653 22.869,16.771 11.994,8.05 24.148,16.125 36.747,23.192 9.468,5.31 19.426,10.009 29.217,14.696 5.766,2.761 11.666,5.89 17.714,7.952 z" id="path38"/>
  <path fill="#1c2c35" d="m 304.604,661.667 c -45.708,18.251 -67.657,21.58 -88.861,71.116 -14.8,34.577 -22.237,76.676 -31.775,113.232 9.662,11.241 22.367,19.605 32.778,30.013 -0.031,-8.307 13.386,-35.466 15.765,-46.843 1.452,-6.943 0.19,-18.755 0.743,-26.663 1.437,-20.534 5.708,-41.515 10.316,-61.558 1.341,-5.832 2.483,-12.262 4.745,-17.806 1.257,1.883 -7.305,72.981 -6.608,81.749 0.015,0.184 0.036,0.367 0.054,0.551 2.887,-9.578 6.331,-19.006 9.628,-28.451 8.529,-24.432 17.789,-48.644 29.365,-71.817 4.875,-9.76 9.953,-19.598 15.348,-29.08 2.662,-4.681 5.764,-9.119 8.231,-13.906 z" id="path39"/>
  <path fill="#1c2c35" d="m 639.083,375.691 c -8.469,3.431 -16.095,10.556 -24.772,13.019 0.62,-0.634 1.315,-1.114 2.024,-1.648 -0.073,-0.162 -0.127,-0.335 -0.219,-0.488 -0.13,-0.216 -0.295,-0.409 -0.442,-0.613 0.793,-0.497 1.543,-1.015 2.291,-1.577 -1.126,-0.059 -0.772,-0.178 -1.688,0.224 -1.094,0.481 -1.976,1.072 -3.205,1.136 -0.192,0.01 -0.384,-0.023 -0.576,-0.035 -11.804,5.102 -23.783,10.914 -36.051,14.754 -1.579,0.54 -3.032,1.193 -4.73,0.994 l -0.542,-0.814 c -1.348,2.006 -6.439,3.122 -8.809,3.961 -19.173,6.79 -38.593,11.307 -58.546,15.21 -18.033,3.479 -36.312,5.53 -54.667,6.133 -9.621,0.256 -19.297,-0.257 -28.901,0.105 1.167,0.212 2.31,0.391 3.426,0.81 -9.017,0.392 -17.663,-0.173 -26.568,-1.531 -1.144,-0.579 -0.746,-0.143 -1.234,-1.271 -4.775,0.192 -9.662,-1.133 -14.284,-2.176 -9.794,-2.479 -18.002,-6.395 -26.88,-11.084 -1.941,-1.036 -3.303,-2.129 -4.833,-3.707 -1.762,3.876 -0.866,11.44 -0.427,15.625 21.177,15.904 53.954,25.479 80.388,27.042 8.876,0.524 17.673,-0.053 26.506,-0.884 54.553,-5.136 103.436,-27.051 151.055,-52.89 7.388,-4.009 26.808,-14.411 31.684,-20.295 z" id="path40"/>
  <defs id="defs41">
    <linearGradient id="gradient_3" gradientUnits="userSpaceOnUse" x1="524.27985" y1="423.81351" x2="529.04498" y2="398.83243" gradientTransform="matrix(-1,0,0,1,1024,0)">
      <stop offset="0" stop-color="#4D616D" id="stop40"/>
      <stop offset="1" stop-color="#627684" id="stop41"/>
    </linearGradient>
  </defs>
  <path fill="url(#gradient_3)" d="m 614.311,388.71 c 0.62,-0.634 1.315,-1.114 2.024,-1.648 -0.073,-0.162 -0.127,-0.335 -0.219,-0.488 -0.13,-0.216 -0.295,-0.409 -0.442,-0.613 0.793,-0.497 1.543,-1.015 2.291,-1.577 -1.126,-0.059 -0.772,-0.178 -1.688,0.224 -1.094,0.481 -1.976,1.072 -3.205,1.136 -0.192,0.01 -0.384,-0.023 -0.576,-0.035 -11.804,5.102 -23.783,10.914 -36.051,14.754 -1.579,0.54 -3.032,1.193 -4.73,0.994 l -0.542,-0.814 c -1.348,2.006 -6.439,3.122 -8.809,3.961 -19.173,6.79 -38.593,11.307 -58.546,15.21 -18.033,3.479 -36.312,5.53 -54.667,6.133 -9.621,0.256 -19.297,-0.257 -28.901,0.105 1.167,0.212 2.31,0.391 3.426,0.81 -9.017,0.392 -17.663,-0.173 -26.568,-1.531 -11.487,-0.456 -24.025,-3.94 -34.781,-7.841 l -0.18,0.275 c 5.57,3.432 12.143,6.042 18.407,7.934 31.639,9.558 76.63,6.488 108.927,0.951 21.633,-3.708 43.037,-9.299 64.11,-15.359 20.31,-5.841 42.066,-12.477 60.72,-22.581 z" id="path41" style="fill:url(#gradient_3)"/>
  <path fill="#3d525d" d="m 402.351,733.628 c -6.726,-3.03 -14.868,-14.949 -17.458,-21.529 -1.151,-2.922 -1.379,-9.945 -3.636,-11.915 l 0.083,1.119 -1.366,0.079 1.344,0.201 c 1.783,11.233 2.564,21.68 9.035,31.477 8.246,12.486 21.781,21.163 36.393,24.037 23.212,4.564 50.807,-6.836 69.729,-19.731 13.582,-9.255 26.023,-21.638 37.502,-33.381 50.741,-52.167 90.803,-113.744 117.933,-181.271 3.957,-9.646 11.257,-24.294 13.144,-34.019 -3.705,7.055 -9.702,21.996 -15.652,26.322 -1.843,5.758 -5.343,11.394 -8.235,16.699 l -14.176,25.618 c -34.809,62.607 -85.807,142.903 -151.034,176.665 -18.585,9.62 -39.643,13.612 -59.934,7.009 -4.61,-1.5 -10.286,-3.795 -13.672,-7.38 z" id="path42"/>
  <path fill="#f7d4b6" d="m 405.333,357.317 c -0.504,1.866 -0.874,3.784 -1.928,5.426 0.548,1.64 1.048,3.032 1.019,4.775 0.568,0.781 0.325,0.373 0.735,1.221 -10.913,-1.954 -20.818,0.403 -31.774,0.777 -3.789,0.13 -7.717,-1.558 -11.229,-2.898 -1.5,-0.303 -2.808,-0.771 -4.311,-0.368 -2.214,10.405 -2.972,33.259 -3.135,44.55 8.878,4.689 17.086,8.605 26.88,11.084 0.458,-0.817 0.301,-0.452 0.606,-1.326 2.664,-7.654 6.627,-14.298 10.976,-21.083 2.458,-5.098 5.728,-9.868 8.292,-14.942 4.332,-8.577 6.941,-17.741 3.869,-27.216 z" id="path43"/>
  <path fill="#e19f7e" d="m 405.421,329.018 c -0.827,-1.627 -1.746,-3.192 -2.669,-4.767 -1.039,0.705 -1.479,1.175 -2.782,1.156 -6.156,-0.094 -18.137,-4.232 -25.862,-4.866 -1.754,0.189 -2.155,0.055 -3.499,1.278 -0.477,1.709 0.553,4.096 -0.616,5.215 1.915,1.476 4.855,1.266 7.195,1.848 6.797,1.688 20.294,6.295 21.997,14.129 -1.812,-1.239 -3.107,-3.271 -4.597,-4.871 l -1.023,5.17 c 4.6,6.105 7.335,12.238 9.84,19.433 1.054,-1.642 1.424,-3.56 1.928,-5.426 3.072,9.475 0.463,18.639 -3.869,27.216 -2.564,5.074 -5.834,9.844 -8.292,14.942 -4.349,6.785 -8.312,13.429 -10.976,21.083 -0.305,0.874 -0.148,0.509 -0.606,1.326 4.622,1.043 9.509,2.368 14.284,2.176 -2.096,-3.071 -4.283,-6.627 -4.941,-10.32 -1.028,-5.781 2.083,-10.656 5.183,-15.207 4.473,-5.873 8.593,-12.2 11.398,-19.053 6.914,-16.895 4.78,-33.927 -2.093,-50.462 z" id="path44"/>
  <path fill="#fefefe" d="m 404.424,367.518 c -4.563,-7.627 -8.94,-16.653 -17.254,-20.857 0.047,3.039 0.091,6.031 -0.514,9.028 -0.769,3.807 -2.442,7.847 -5.841,10.017 -2.905,1.855 -6.992,2.169 -10.289,1.38 -3.076,-0.737 -5.735,-2.807 -7.365,-5.498 -2.899,-4.788 -2.294,-10.371 -0.95,-15.512 -2.113,2.181 -4.459,4.17 -5.741,6.972 0.011,4.792 0.225,8.527 3.913,12.059 0.564,0.54 1.166,1.022 1.773,1.511 3.512,1.34 7.44,3.028 11.229,2.898 10.956,-0.374 20.861,-2.731 31.774,-0.777 -0.41,-0.848 -0.167,-0.44 -0.735,-1.221 z" id="path45"/>
  <path fill="#f7d4b6" d="m 374.108,320.541 c -6.087,-1.475 -12.403,-3.495 -18.575,-4.435 -1.995,-0.304 -3.724,-0.385 -5.399,0.873 -0.2,4.594 -0.254,9.192 -0.163,13.789 1.897,2.743 5.236,5.213 6.576,8.121 0.309,0.035 0.867,-0.14 1.179,-0.203 l 0.184,-0.901 c -1.24,-1.925 -2.623,-3.744 -3.987,-5.582 l 0.208,-0.204 c 1.014,0.954 2.028,1.914 3.091,2.814 1.175,0.995 2.494,1.883 4.088,1.762 0.258,-1.304 -2.071,-5.33 -2.744,-6.747 l 1.139,1.485 c 1.314,1.72 2.56,2.934 4.298,4.235 l 0.035,-1.113 0.342,0.723 c -0.735,-1.903 -2.261,-3.776 -3.416,-5.463 l 0.297,-1.236 c 1.265,1.848 2.504,3.94 4.09,5.523 0.809,0.808 0.375,0.636 1.399,0.638 0.317,-0.96 0.309,-1.551 0.044,-2.509 -0.404,-1.458 -1.003,-2.56 -2.37,-3.296 -0.253,-0.136 -0.512,-0.259 -0.768,-0.389 1.232,-0.327 2.434,-0.606 3.692,-0.83 l 1.098,-0.02 1.547,-0.542 c 1.169,-1.119 0.139,-3.506 0.616,-5.215 1.344,-1.223 1.745,-1.089 3.499,-1.278 z" id="path46"/>
  <path fill="#e19f7e" d="m 356.47,353.048 -1.578,-0.808 -0.777,0.388 c -0.312,4.635 -0.301,9.293 -0.68,13.92 -0.587,7.173 -1.543,14.31 -2.102,21.487 -0.49,6.301 -0.601,12.803 -1.456,19.058 1.53,1.578 2.892,2.671 4.833,3.707 0.163,-11.291 0.921,-34.145 3.135,-44.55 1.503,-0.403 2.811,0.065 4.311,0.368 -0.607,-0.489 -1.209,-0.971 -1.773,-1.511 -3.688,-3.532 -3.902,-7.267 -3.913,-12.059 z" id="path47"/>
  <path fill="#3d525d" d="m 639.083,375.691 c 2.635,-1.713 24.491,-14.962 25.376,-15.993 -0.771,-0.245 -2.668,0.876 -3.477,1.224 -5.568,2.918 -18.307,10.868 -23.974,11.364 -2.779,1.587 -23.781,12.602 -24.512,13.423 0.192,0.012 0.384,0.045 0.576,0.035 1.229,-0.064 2.111,-0.655 3.205,-1.136 0.916,-0.402 0.562,-0.283 1.688,-0.224 -0.748,0.562 -1.498,1.08 -2.291,1.577 0.147,0.204 0.312,0.397 0.442,0.613 0.092,0.153 0.146,0.326 0.219,0.488 -0.709,0.534 -1.404,1.014 -2.024,1.648 8.677,-2.463 16.303,-9.588 24.772,-13.019 z" id="path48"/>
  <path fill="#1c2c35" d="m 662.258,351.119 c -7.718,8.365 -16.519,14.116 -25.25,21.167 5.667,-0.496 18.406,-8.446 23.974,-11.364 -0.09,-3.22 0.738,-6.621 1.276,-9.803 z" id="path49"/>
  <path fill="#e19f7e" d="m 350.134,316.979 c -2.253,1.408 -3.355,2.237 -3.971,4.879 -1.226,5.269 0.163,13.171 3.19,17.629 0.679,1 1.359,1.643 2.326,2.35 l 0.411,-0.319 c -0.763,-3.437 -2.42,-5.627 -4.446,-8.41 2.797,2.586 4.983,5.196 8.903,5.781 -1.34,-2.908 -4.679,-5.378 -6.576,-8.121 -0.091,-4.597 -0.037,-9.195 0.163,-13.789 z" id="path50"/>
  <path fill="#e19f7e" d="m 368.446,327.576 -1.098,0.02 -0.362,1.645 c 0.54,1.686 0.944,3.778 2.279,4.99 l 0.532,-0.333 -0.496,-3.639 0.378,-0.42 c 1.274,1.057 1.795,2.265 2.517,3.738 l 0.315,0.653 0.599,-0.012 c 0.296,-0.658 0.412,-0.851 0.603,-1.61 0.327,-1.301 0.115,-2.566 -0.506,-3.726 -1.359,-0.156 -2.989,-0.186 -4.18,-0.919 -0.198,-0.122 -0.387,-0.258 -0.581,-0.387 z" id="path51"/>
  <path fill="#1c2c35" d="m 656.913,369.255 c -4.419,2.292 -9.696,5.458 -12.493,9.633 -3.8,5.672 -6.262,12.511 -8.989,18.753 -3.348,7.664 -6.844,15.193 -10.874,22.527 -10.273,18.698 -22.345,35.919 -35.864,52.411 -4.341,5.295 -9.247,10.119 -13.511,15.448 -5.797,7.243 -42.366,41.449 -49.869,45.478 -1.036,0.556 -1.673,1.149 -2.543,1.918 -0.914,0.809 -1.724,1.877 -2.961,1.819 1.282,-2.55 12.342,-11.122 15.238,-13.856 10.965,-10.352 21.551,-21.83 31.159,-33.467 26.295,-31.847 42.698,-63.687 60.82,-100.499 -5.957,3.033 -11.668,6.664 -17.55,9.863 -11.102,6.039 -22.565,11.813 -33.967,17.262 -17.936,8.572 -36.816,15.251 -55.644,21.558 -22.659,7.591 -45.831,15.326 -69.807,17.181 -5.301,1.25 -11.769,1.187 -17.267,1.308 -28.66,0.631 -56.915,-5.669 -81.469,-20.83 1.226,29.801 24.98,92.448 39.822,118.455 8.34,14.614 21.008,29.718 37.919,34.236 24.468,6.538 49.078,-6.536 69.709,-18.338 59.731,-34.17 121.278,-102.904 147.748,-166.713 4.596,-11.078 7.265,-22.614 10.393,-34.147 z" id="path52"/>
  <path fill="#030d1a" d="m 381.673,561.596 -0.251,0.084 c -3.846,17.072 -9.399,33.764 -12.914,50.879 -12.93,62.959 -19.736,156.44 12.379,214.587 8.818,15.965 23.029,29.308 40.822,34.337 20.422,5.771 40.259,0.831 58.429,-9.322 38.985,-21.784 70.315,-67.835 92.485,-105.46 5.981,-10.152 12.051,-20.249 17.312,-30.804 7.062,-14.169 12.967,-28.905 19.158,-43.466 8.831,-20.773 17.466,-41.866 23.617,-63.609 2.687,-7.654 5.017,-15.652 7.165,-23.476 -3.618,7.114 -5.96,15.118 -8.619,22.64 -3.584,10.413 -7.538,20.696 -11.853,30.828 -23.172,54.14 -67.688,135.599 -112.562,173.714 -18.414,15.64 -44.48,28.996 -69.264,26.849 -17.665,-1.531 -31.166,-11.537 -42.169,-24.865 -8.696,-10.534 -14.116,-22.756 -18.723,-35.498 -19.702,-54.496 -14.609,-113.195 -5.079,-169.176 2.73,-16.034 8.659,-31.453 10.031,-47.718 0.015,-0.174 0.024,-0.349 0.036,-0.524 z" id="path53"/>
  <path fill="#3d525d" d="m 677.232,489.086 -0.426,0.029 c -1.584,7.431 -4.382,14.671 -6.699,21.895 -5.219,16.279 -10.849,32.404 -16.306,48.604 -15.488,45.975 -29.744,92.424 -48.949,137.017 -5.9,13.7 -11.839,27.329 -18.466,40.699 -5.303,10.698 -11.763,21.086 -15.637,32.4 5.116,-4.273 11.424,-15.397 15.291,-21.246 7.776,-11.758 15.536,-24.272 22.011,-36.802 5.718,-11.065 10.393,-22.583 15.009,-34.139 12.409,-31.06 22.203,-62.846 30.772,-95.162 2.35,-8.863 4.206,-17.855 6.503,-26.734 l 10.362,-40.833 c 2.2,-8.539 4.862,-17.071 6.535,-25.728 z" id="path54"/>
  <path fill="#3d525d" d="m 363.033,595.849 c -3.565,2.516 -18.163,62.238 -19.744,70.393 -10.117,52.172 -11.175,105.869 5.929,156.74 4.381,13.03 9.489,25.716 17.234,37.152 0.836,1.271 1.81,2.467 2.733,3.678 l 0.228,-0.123 c -3.917,-7.489 -8.556,-14.807 -11.425,-22.799 -3.332,-9.282 -5.252,-19.431 -7.151,-29.087 -9.053,-46.795 -10.219,-94.775 -3.448,-141.955 3.824,-24.956 10.583,-49.311 15.644,-73.999 z" id="path55"/>
  <path fill="#744443" d="m 374.663,343.892 c -2.44,0.057 -4.742,-0.134 -6.528,1.839 -2.448,2.706 -3.387,8.054 -3.186,11.612 0.011,0.198 0.069,0.389 0.104,0.584 1.36,2.543 2.519,4.782 5.471,5.62 2.266,0.643 4.303,-0.072 6.234,-1.289 1.081,-0.681 1.881,-1.625 2.684,-2.599 0.08,-0.107 0.164,-0.211 0.238,-0.322 2.198,-3.283 3.452,-8.091 2.447,-11.982 -0.514,-1.988 -1.444,-2.484 -3.095,-3.448 -1.42,0.104 -2.94,-0.005 -4.369,-0.015 z" id="path56"/>
  <path fill="#131315" d="m 374.663,343.892 c -2.44,0.057 -4.742,-0.134 -6.528,1.839 -2.448,2.706 -3.387,8.054 -3.186,11.612 0.011,0.198 0.069,0.389 0.104,0.584 1.201,-1.69 2.96,-2.123 4.833,-2.806 1.059,0.459 2.242,1.021 3.401,1.147 1.413,0.155 2.397,-0.127 3.516,-1.005 0.911,-1.453 1.034,-2.359 1.088,-4.06 0.454,-1.684 0.645,-2.537 0.035,-4.197 l 1.106,-3.099 c -1.42,0.104 -2.94,-0.005 -4.369,-0.015 z" id="path57"/>
  <path fill="#fefefe" d="m 379.032,343.907 c -1.42,0.104 -2.94,-0.005 -4.369,-0.015 l -1.418,1.8 c -1.602,0.861 -2.174,1.043 -3.162,2.619 0.012,1.294 -0.095,1.939 0.971,2.887 0.948,0.843 2.389,1.252 3.636,1.145 0.997,-0.086 2.308,-0.692 3.201,-1.14 0.454,-1.684 0.645,-2.537 0.035,-4.197 z" id="path58"/>
  <path fill="#584241" d="m 379.032,343.907 c -1.42,0.104 -2.94,-0.005 -4.369,-0.015 l -1.418,1.8 c 1.566,0.419 3.126,0.857 4.681,1.314 z" id="path59"/>
</svg>