<svg width="309" height="372" viewBox="0 0 309 372" fill="none" xmlns="http://www.w3.org/2000/svg">
<g opacity="0.4">
<path d="M102.236 12.7364C103.939 15.6859 104.146 18.925 102.843 22.49C101.632 25.8592 99.4403 28.531 96.2945 30.4907C96.0909 30.6082 95.9126 30.7112 95.7089 30.8288C92.221 32.8425 88.6711 33.5142 84.9965 32.7939C82.2939 32.2875 80.1167 31.162 78.5149 29.4459C77.901 28.853 77.3895 28.1437 76.9296 27.3471C75.2392 24.4192 75.0194 21.2163 76.2578 17.7169C77.5086 14.239 79.8653 11.5005 83.3278 9.50148C86.7903 7.50244 90.3655 6.81611 94.0792 7.42769C97.7929 8.03928 100.495 9.83785 102.173 12.7442L102.236 12.7364Z" fill="url(#paint0_linear_40_5471)"/>
<path d="M133.068 -5.06336C134.759 -2.13544 134.965 1.10375 133.676 4.6903C132.411 8.26215 130.016 11.0515 126.554 13.0505C123.091 15.0496 119.529 15.6998 115.854 14.9795C112.192 14.2808 109.503 12.4459 107.813 9.51799C106.122 6.59006 105.902 3.38717 107.153 -0.0906984C108.404 -3.56856 110.761 -6.30709 114.223 -8.30613C117.686 -10.3052 121.261 -10.9915 124.975 -10.3799C128.688 -9.76833 131.378 -7.99129 133.068 -5.06336Z" fill="url(#paint1_linear_40_5471)"/>
<path d="M266.859 126.953L268.425 129.666C276.231 143.186 269.573 161.698 253.585 170.929L214.912 193.257C214.793 193.814 214.672 194.486 214.551 195.159C206.632 236.416 177.876 274.92 137.65 298.145C109.391 314.46 78.7449 321.705 49.9825 320.629C46.7193 320.503 43.4319 320.277 40.209 319.928C22.1091 318.034 4.98059 312.767 -10.0398 304.331C-11.6879 303.417 -13.285 302.473 -14.8561 301.457C-19.8471 298.339 -24.5687 294.864 -28.9699 291.004L-28.9948 290.961C-37.6344 283.405 -45.1206 274.437 -51.0496 264.168L-126.088 134.198C-133.744 120.936 -138.376 106.387 -139.898 90.875C-140.808 81.0668 -140.476 71.0003 -138.879 60.9498C-132.08 17.9859 -103.043 -22.0878 -61.1877 -46.2527C-5.10103 -78.6344 63.3484 -75.7274 105.294 -39.1759C106.673 -37.9629 107.798 -36.6028 108.68 -35.0743C113.876 -26.0752 109.447 -13.8155 98.8301 -7.68609C90.3268 -2.77667 79.9177 -3.22568 73.5222 -8.77628C44.3167 -34.1972 -3.35259 -36.2129 -42.407 -13.6648C-64.3529 -0.994397 -81.43 18.0508 -90.4892 39.9301C-94.5252 49.6375 -96.868 59.573 -97.4134 69.4467C-98.3177 84.6371 -94.9151 99.3503 -87.6064 112.009L-12.5683 241.979C-11.9344 243.077 -11.3004 244.175 -10.6025 245.207C-10.6025 245.207 -10.6025 245.207 -10.5777 245.25C-1.13796 259.837 12.9384 270.224 29.3528 276.019C33.16 277.38 37.0839 278.473 41.1368 279.319C65.5549 284.454 93.5998 280.29 118.881 265.694C137.288 255.067 152.416 239.759 162.139 222.146C147.989 226.154 135.382 226.601 121.346 225.691C112.621 225.159 104.07 223.637 95.9605 221.115C72.9162 214.067 54.0745 199.542 42.9126 180.209C23.7584 147.033 30.1849 106.953 54.2684 73.6435C64.847 58.9819 77.1178 47.0748 94.3792 37.109L140.588 10.4305L218.012 144.534L179.518 166.759L119.172 62.2359L111.432 66.7043C106.035 69.8205 103.036 72.2696 98.5914 76.2134C72.3615 99.3373 62.3434 133.137 77.8681 160.027C91.0187 182.805 118.866 193.997 148.502 188.943C150.429 188.634 152.369 188.232 154.309 187.771C154.487 187.726 154.69 187.666 154.906 187.628C162.834 185.663 168.574 183.727 175.854 179.581L266.846 127.047L266.859 126.953Z" fill="url(#paint2_linear_40_5471)"/>
</g>
<defs>
<linearGradient id="paint0_linear_40_5471" x1="160.251" y1="-297.878" x2="128.188" y2="264.827" gradientUnits="userSpaceOnUse">
<stop stop-color="#002037"/>
<stop offset="0.03" stop-color="#015A5E"/>
<stop offset="1" stop-color="#29E9C4"/>
</linearGradient>
<linearGradient id="paint1_linear_40_5471" x1="186.783" y1="-296.374" x2="154.721" y2="266.332" gradientUnits="userSpaceOnUse">
<stop stop-color="#002037"/>
<stop offset="0.03" stop-color="#015A5E"/>
<stop offset="1" stop-color="#29E9C4"/>
</linearGradient>
<linearGradient id="paint2_linear_40_5471" x1="364.501" y1="276.245" x2="-16.4241" y2="50.7008" gradientUnits="userSpaceOnUse">
<stop stop-color="#002037"/>
<stop offset="0.03" stop-color="#015A5E"/>
<stop offset="1" stop-color="#29E9C4"/>
</linearGradient>
</defs>
</svg>
