<svg width="12" height="12" viewBox="0 0 12 12" fill="none" xmlns="http://www.w3.org/2000/svg">
<path d="M4.3125 0.5625V1.5H7.6875V0.5625C7.6875 0.257812 7.92188 0 8.25 0C8.55469 0 8.8125 0.257812 8.8125 0.5625V1.5H9.75C10.5703 1.5 11.25 2.17969 11.25 3V3.375V4.5V10.5C11.25 11.3438 10.5703 12 9.75 12H2.25C1.40625 12 0.75 11.3438 0.75 10.5V4.5V3.375V3C0.75 2.17969 1.40625 1.5 2.25 1.5H3.1875V0.5625C3.1875 0.257812 3.42188 0 3.75 0C4.05469 0 4.3125 0.257812 4.3125 0.5625ZM1.875 4.5V10.5C1.875 10.7109 2.03906 10.875 2.25 10.875H9.75C9.9375 10.875 10.125 10.7109 10.125 10.5V4.5H1.875Z" fill="#14C6A5"/>
</svg>
