<svg width="18" height="15" viewBox="0 0 18 15" fill="none" xmlns="http://www.w3.org/2000/svg">
<path d="M8.28125 12.25C8.4375 12.2188 8.5625 12.1875 8.71875 12.1562C10.4688 11.7188 12.4375 11.1875 14.5 11.25C14.625 10.2812 15.4688 9.53125 16.5 9.53125V4C15.375 4 14.5 3.125 14.5 2.03125C13.0312 1.96875 11.4688 2.3125 9.6875 2.78125C9.53125 2.8125 9.40625 2.84375 9.25 2.875C7.5 3.3125 5.53125 3.84375 3.46875 3.78125C3.34375 4.75 2.5 5.5 1.5 5.5V11C2.59375 11 3.46875 11.9062 3.5 13C4.96875 13.0625 6.5 12.7188 8.28125 12.25ZM0 12.6875V3.03125C0 2.28125 0.78125 1.78125 1.5 1.96875C4 2.65625 6.5 2.03125 9 1.40625C11.6875 0.71875 14.4062 0 17.125 1.03125C17.6562 1.21875 18 1.75 18 2.34375V11.9688C18 12.75 17.1875 13.25 16.4688 13.0312C13.9688 12.3438 11.4688 13 9 13.625C6.28125 14.3125 3.5625 15 0.84375 14C0.3125 13.8125 0 13.25 0 12.6875ZM9 10.5C7.59375 10.5 6.5 9.15625 6.5 7.5C6.5 5.84375 7.59375 4.5 9 4.5C10.375 4.5 11.5 5.84375 11.5 7.5C11.5 9.15625 10.375 10.5 9 10.5Z" fill="#1A2523"/>
</svg>
