<svg width="46" height="46" viewBox="0 0 46 46" fill="none" xmlns="http://www.w3.org/2000/svg">
<path d="M0 23C0 10.2975 10.2975 0 23 0C35.7025 0 46 10.2975 46 23C46 35.7025 35.7025 46 23 46C10.2975 46 0 35.7025 0 23Z" fill="white"/>
<path d="M30.151 15.849C29.9275 15.6255 29.6244 15.5 29.3084 15.5C28.9924 15.5 28.6893 15.6255 28.4658 15.849L23 21.3147L17.5342 15.849C17.3107 15.6255 17.0076 15.5 16.6916 15.5C16.3756 15.5 16.0725 15.6255 15.849 15.849C15.6255 16.0725 15.5 16.3756 15.5 16.6916C15.5 17.0076 15.6255 17.3107 15.849 17.5342L21.3147 23L15.849 28.4658C15.6255 28.6893 15.5 28.9924 15.5 29.3084C15.5 29.6244 15.6255 29.9275 15.849 30.151C16.0725 30.3745 16.3756 30.5 16.6916 30.5C17.0076 30.5 17.3107 30.3745 17.5342 30.151L23 24.6853L28.4658 30.151C28.6893 30.3745 28.9924 30.5 29.3084 30.5C29.6244 30.5 29.9275 30.3745 30.151 30.151C30.3745 29.9275 30.5 29.6244 30.5 29.3084C30.5 28.9924 30.3745 28.6893 30.151 28.4658L24.6853 23L30.151 17.5342C30.3745 17.3107 30.5 17.0076 30.5 16.6916C30.5 16.3756 30.3745 16.0725 30.151 15.849Z" fill="black"/>
</svg>
