<svg width="110" height="65" viewBox="0 0 110 65" fill="none" xmlns="http://www.w3.org/2000/svg">
<g opacity="0.25">
<path d="M43.7984 32.0064L48.7008 51.455C48.714 51.5106 48.6782 51.5681 48.6188 51.5823L12.6127 60.6507C12.5533 60.6658 12.4949 60.6319 12.4807 60.5772L7.99316 42.7713L11.9753 37.5143L15.9999 39.7198L21.6029 34.8042L25.7774 38.3318L29.3437 33.9338L33.3701 36.6307L37.7162 31.9932L40.9431 35.4605L43.7993 32.0064H43.7984Z" fill="#F4F4F4" stroke="#C1C1C1" stroke-width="0.188592" stroke-miterlimit="10"/>
<path d="M39.4371 15.117L42.9044 28.8739L40.0482 32.3279L36.8214 28.8607L32.4753 33.4982L28.4488 30.8013L24.8825 35.1993L20.7081 31.6716L15.105 36.5873L11.0804 34.3817L7.09832 39.6387L1.00303 15.4537C0.988886 15.398 1.02566 15.3405 1.08412 15.3254L27.2682 8.73131L29.1211 16.0855C29.3352 16.9322 30.2301 17.4367 31.1221 17.2113L39.4362 15.117H39.4371Z" fill="#F4F4F4" stroke="#C1C1C1" stroke-width="0.188592" stroke-miterlimit="10"/>
<path d="M30.0509 14.7974L28.7053 9.45647L37.6154 14.1326L31.5738 15.6545C30.8949 15.8252 30.2131 15.4414 30.0509 14.7974Z" fill="#CCCCCC"/>
</g>
<g opacity="0.25">
<path d="M109.8 25.6244L100.297 61.1873C100.281 61.2467 100.22 61.2825 100.159 61.2665L63.5506 51.4842C63.4912 51.4682 63.4553 51.4069 63.4714 51.3465L75.4885 6.37391C75.5045 6.3145 75.5658 6.27867 75.6261 6.2947L102.248 13.4084L100.143 21.284C99.9008 22.1921 100.438 23.1218 101.346 23.3642L109.799 25.6226L109.8 25.6244Z" fill="#F4F4F4" stroke="#C1C1C1" stroke-width="0.188592" stroke-miterlimit="10"/>
<path d="M101.626 20.5438L103.154 14.8238L108.684 23.7678L102.541 22.1261C101.851 21.9412 101.442 21.2331 101.626 20.5428V20.5438Z" fill="#CCCCCC"/>
<path d="M83.795 34.8777L84.1703 34.6307C88.4485 35.3879 90.1874 34.8089 90.6013 33.2587L90.6108 33.2228C90.938 31.997 90.1676 30.9795 88.4363 30.5175C86.7418 30.0648 84.6361 30.4288 82.5362 31.4906L80.2023 25.7678C82.9897 24.1563 86.4061 23.3698 90.5513 24.4769C95.8508 25.8932 98.7938 29.7697 97.5415 34.4562L97.5227 34.5279C96.3091 39.0711 92.7598 40.2083 88.4976 40.1121L87.4481 42.3035L83.0859 41.138L83.7931 34.8758L83.795 34.8777ZM81.051 42.8354L88.1534 44.7335L86.5155 50.8628L79.4131 48.9646L81.051 42.8354Z" fill="#CCCCCC"/>
</g>
<path d="M81.0896 14.2797V63.8964C81.0896 63.9794 81.0217 64.0473 80.9387 64.0473H29.8623C29.7793 64.0473 29.7114 63.9794 29.7114 63.8964V1.15087C29.7114 1.06789 29.7793 1 29.8623 1H63.6256C65.4923 1 67.0055 2.51323 67.0055 4.37989V11.9883C67.0055 13.2547 68.0296 14.2788 69.296 14.2788H81.0887C81.0892 14.2788 81.0896 14.2792 81.0896 14.2797Z" fill="#FBEDED" stroke="#E74545" stroke-width="0.188592" stroke-miterlimit="10"/>
<path d="M68.2578 10.8464V2.8661L78.57 12.5899H70.0004C69.0376 12.5899 68.2578 11.8091 68.2578 10.8473V10.8464Z" fill="#FBEDED"/>
<path d="M46.2361 28.1123L49.5405 24.9643L54.787 30.4712L60.352 25.1696L63.417 28.3871L57.852 33.6888L63.1258 39.225L59.8215 42.373L54.5476 36.8368L48.9826 42.1384L45.9176 38.9209L51.4826 33.6192L46.2361 28.1123Z" fill="#E74545"/>
</svg>
