<svg width="19" height="11" viewBox="0 0 19 11" fill="none" xmlns="http://www.w3.org/2000/svg">
<path d="M12 9.75C12 9.34375 12.3125 9 12.75 9H16.4375L10.9688 3.5625L7.5 7.03125C7.21875 7.34375 6.75 7.34375 6.46875 7.03125L1.21875 1.78125C0.90625 1.5 0.90625 1.03125 1.21875 0.71875C1.5 0.4375 1.96875 0.4375 2.28125 0.71875L7 5.4375L10.4688 1.96875C10.75 1.6875 11.2188 1.6875 11.5312 1.96875L17.5 7.96875V4.25C17.5 3.84375 17.8125 3.5 18.25 3.5C18.6562 3.5 19 3.84375 19 4.25V9.75C19 10.1875 18.6562 10.5 18.25 10.5H12.75C12.3125 10.5 12 10.1875 12 9.75Z" fill="#1A2523"/>
</svg>
