<svg width="327" height="228" viewBox="0 0 327 228" fill="none" xmlns="http://www.w3.org/2000/svg">
<circle opacity="0.3" cx="163.5" cy="88.25" r="86.75" stroke="url(#paint0_linear_761_5586)" stroke-width="2"/>
<circle cx="163.75" cy="91.5" r="60" fill="url(#paint1_linear_761_5586)"/>
<g filter="url(#filter0_f_761_5586)">
<path d="M122.133 82.3094C122.379 68.5785 122.503 61.713 124.165 59.4324C125.828 57.1518 132.323 55.0578 145.313 50.8699L147.787 50.072C154.559 47.8889 157.944 46.7974 161.429 46.8599C164.913 46.9223 168.257 48.1345 174.946 50.5589L177.391 51.445L177.391 51.445C190.222 56.0958 196.638 58.4212 198.218 60.76C199.797 63.0988 199.674 69.9642 199.428 83.6951L199.307 90.4571C198.873 114.668 180.459 126.091 168.949 130.875C165.827 132.172 164.266 132.821 159.889 132.743C155.512 132.664 153.975 131.96 150.901 130.551C139.57 125.358 121.578 113.282 122.012 89.0714L122.133 82.3094Z" fill="#E35757" fill-opacity="0.3"/>
</g>
<rect x="129.75" y="56.5" width="67" height="67" rx="33.5" fill="url(#paint2_linear_761_5586)"/>
<path d="M150.696 77.4463C151.958 76.1846 154.004 76.1846 155.265 77.4463L163.75 85.931L172.235 77.4464C173.496 76.1847 175.542 76.1847 176.804 77.4464C178.065 78.7081 178.065 80.7537 176.804 82.0154L168.319 90.5L176.804 98.9846C178.065 100.246 178.065 102.292 176.804 103.554C175.542 104.815 173.496 104.815 172.235 103.554L163.75 95.069L155.265 103.554C154.004 104.815 151.958 104.815 150.696 103.554C149.435 102.292 149.435 100.246 150.696 98.9847L159.181 90.5L150.696 82.0153C149.435 80.7536 149.435 78.708 150.696 77.4463Z" fill="white"/>
<path d="M51.6645 201.024C52.3472 200.32 53.2058 199.968 54.2405 199.968C55.2752 199.968 56.1285 200.309 56.8005 200.992C57.4725 201.664 57.8085 202.523 57.8085 203.568C57.8085 204.24 57.5632 204.901 57.0725 205.552C56.9445 205.712 56.8752 205.797 56.8645 205.808L57.0085 205.824C57.3605 205.867 57.8618 205.888 58.5125 205.888C58.6192 205.888 58.6725 205.941 58.6725 206.048V207.824C58.6725 207.941 58.6192 208 58.5125 208C57.7125 208 56.7898 207.893 55.7445 207.68C55.3285 207.605 54.8912 207.499 54.4325 207.36L54.2565 207.408C52.9872 207.803 51.5525 208 49.9525 208C49.8458 207.989 49.7925 207.931 49.7925 207.824V206.048C49.7925 205.941 49.8458 205.888 49.9525 205.888C50.6352 205.888 51.1685 205.867 51.5525 205.824C51.4992 205.771 51.4298 205.691 51.3445 205.584C50.8752 204.997 50.6405 204.325 50.6405 203.568C50.6405 202.576 50.9818 201.728 51.6645 201.024ZM55.4085 205.024C55.6858 204.651 55.8245 204.245 55.8245 203.808C55.8245 203.275 55.6698 202.848 55.3605 202.528C55.0512 202.197 54.6512 202.032 54.1605 202.032C53.6805 202.032 53.2912 202.192 52.9925 202.512C52.6938 202.832 52.5445 203.248 52.5445 203.76C52.5445 204.208 52.6832 204.619 52.9605 204.992C53.2378 205.355 53.6272 205.621 54.1285 205.792C54.7258 205.611 55.1525 205.355 55.4085 205.024ZM44.0645 201.792H45.9525C45.7925 202.571 45.7125 203.157 45.7125 203.552C45.7125 204.384 45.9098 204.981 46.3045 205.344C46.6992 205.707 47.4085 205.888 48.4325 205.888H50.1925C50.2992 205.888 50.3525 205.941 50.3525 206.048V207.824C50.3525 207.941 50.2992 208 50.1925 208H47.9685C46.6032 208 45.5632 207.669 44.8485 207.008C44.1338 206.336 43.7765 205.371 43.7765 204.112C43.7765 203.461 43.8725 202.688 44.0645 201.792ZM52.6885 197.696L54.1765 196.208L55.6805 197.696L54.1925 199.184L52.6885 197.696ZM60.1156 196.4H62.1316V199.984C62.1316 200.72 62.0463 201.483 61.8756 202.272L61.6836 203.136L61.7476 203.072C62.857 201.771 63.8223 200.848 64.6436 200.304C65.465 199.76 66.2756 199.488 67.0756 199.488C68.089 199.488 68.9263 199.829 69.5876 200.512C70.249 201.184 70.5796 202.032 70.5796 203.056C70.5796 204.539 69.9823 205.733 68.7876 206.64C67.593 207.547 65.9983 208 64.0036 208H58.5156C58.409 208 58.3556 207.941 58.3556 207.824V206.048C58.3556 205.941 58.409 205.888 58.5156 205.888H59.4276C59.5023 205.803 59.6143 205.664 59.7636 205.472C59.9236 205.28 60.041 205.136 60.1156 205.04V196.4ZM61.3476 205.888H63.8276C65.2463 205.888 66.3876 205.653 67.2516 205.184C68.1156 204.704 68.5476 204.091 68.5476 203.344C68.5476 202.832 68.3716 202.416 68.0196 202.096C67.6783 201.765 67.2356 201.6 66.6916 201.6C66.1263 201.6 65.545 201.819 64.9476 202.256C64.3503 202.693 63.5503 203.467 62.5476 204.576L61.3476 205.888ZM63.1396 197.552L64.6276 196.064L66.1316 197.552L64.6436 199.04L63.1396 197.552ZM75.5395 200.128C76.5528 200.128 77.3688 200.459 77.9875 201.12C78.6168 201.771 78.9635 202.693 79.0275 203.888L79.0755 205.232C79.0862 205.371 79.0915 205.589 79.0915 205.888H80.0035C80.1102 205.888 80.1635 205.941 80.1635 206.048V207.824C80.1635 207.941 80.1102 208 80.0035 208H79.0755C79.0328 208.309 78.9528 208.619 78.8355 208.928C78.1848 210.603 76.2915 211.44 73.1555 211.44V209.616C74.4995 209.616 75.5022 209.419 76.1635 209.024C76.6222 208.757 76.9262 208.416 77.0755 208H75.9875C74.7075 208 73.6888 207.659 72.9315 206.976C72.1742 206.283 71.7955 205.344 71.7955 204.16C71.7955 202.997 72.1475 202.037 72.8515 201.28C73.5662 200.512 74.4622 200.128 75.5395 200.128ZM77.1235 205.52L77.0275 204.048C76.9528 202.821 76.4248 202.208 75.4435 202.208C74.9528 202.208 74.5422 202.384 74.2115 202.736C73.8915 203.088 73.7315 203.541 73.7315 204.096C73.7315 205.323 74.5635 205.936 76.2275 205.936C76.3875 205.936 76.5635 205.936 76.7555 205.936C76.9475 205.925 77.0755 205.92 77.1395 205.92C77.1288 205.824 77.1235 205.691 77.1235 205.52ZM84.64 200.384C85.9413 200.384 86.8373 201.189 87.328 202.8L87.712 204.128C87.8827 204.757 88.064 205.211 88.256 205.488C88.448 205.755 88.6933 205.888 88.992 205.888C89.0987 205.888 89.152 205.941 89.152 206.048V207.824C89.152 207.941 89.0987 208 88.992 208C88.1707 208 87.504 207.691 86.992 207.072C86.8747 206.912 86.768 206.757 86.672 206.608L86.336 208C85.44 208 84.6027 207.925 83.824 207.776C83.1627 207.648 82.592 207.445 82.112 207.168L81.68 207.504C81.1787 207.835 80.6187 208 80 208C79.8933 208 79.84 207.941 79.84 207.824V206.048C79.84 205.941 79.8933 205.888 80 205.888C80.384 205.888 80.7093 205.851 80.976 205.776C80.9333 205.616 80.912 205.429 80.912 205.216C80.912 204.768 80.9973 204.272 81.168 203.728C81.3387 203.184 81.5733 202.661 81.872 202.16C82.1707 201.648 82.5653 201.227 83.056 200.896C83.5467 200.555 84.0747 200.384 84.64 200.384ZM86 204.912L85.712 203.936C85.4133 202.933 84.9973 202.432 84.464 202.432C84.1013 202.432 83.7387 202.661 83.376 203.12C83.0133 203.579 82.7253 204.213 82.512 205.024C83.28 205.483 84.2187 205.765 85.328 205.872C85.5413 205.893 85.8827 205.915 86.352 205.936C86.2453 205.659 86.128 205.317 86 204.912ZM90.5516 196.4H92.5676V204.848C92.5676 205.84 92.2636 206.613 91.6556 207.168C91.0476 207.723 90.1676 208 89.0156 208C88.909 208 88.8556 207.941 88.8556 207.824V206.048C88.8556 205.941 88.909 205.888 89.0156 205.888C89.5916 205.888 89.9916 205.781 90.2156 205.568C90.4396 205.355 90.5516 205.003 90.5516 204.512V196.4ZM95.1405 196.4H97.1565V208H95.1405V196.4ZM102.674 201.792H104.546C104.397 202.571 104.322 203.173 104.322 203.6C104.322 204.421 104.519 205.008 104.914 205.36C105.309 205.712 106.018 205.888 107.042 205.888H110.722C110.829 205.888 110.882 205.941 110.882 206.048V207.824C110.882 207.941 110.829 208 110.722 208H106.578C105.213 208 104.173 207.669 103.458 207.008C102.743 206.336 102.386 205.371 102.386 204.112C102.386 203.483 102.482 202.709 102.674 201.792ZM111.778 200.24H113.778C114.098 202.448 114.258 203.984 114.258 204.848C114.258 205.84 113.954 206.613 113.346 207.168C112.738 207.723 111.858 208 110.706 208C110.599 208 110.546 207.941 110.546 207.824V206.048C110.546 205.941 110.599 205.888 110.706 205.888C111.282 205.888 111.682 205.781 111.906 205.568C112.141 205.355 112.258 205.003 112.258 204.512C112.258 203.829 112.098 202.405 111.778 200.24ZM107.09 210.336L108.578 208.848L110.082 210.336L108.594 211.824L107.09 210.336ZM116.279 196.4H118.295V204.512C118.295 205.003 118.407 205.355 118.631 205.568C118.855 205.781 119.255 205.888 119.831 205.888C119.938 205.888 119.991 205.941 119.991 206.048V207.824C119.991 207.941 119.938 208 119.831 208C118.679 208 117.799 207.723 117.191 207.168C116.583 206.613 116.279 205.84 116.279 204.848V196.4ZM121.396 202.08H123.268C123.268 203.456 123.14 204.587 122.884 205.472C123.097 205.589 123.327 205.68 123.572 205.744C123.935 205.84 124.276 205.888 124.596 205.888C125.3 205.888 125.764 205.637 125.988 205.136C126.223 204.635 126.34 203.616 126.34 202.08H128.212C128.212 203.051 128.159 203.872 128.052 204.544C128.009 204.875 127.935 205.205 127.828 205.536C128.052 205.632 128.239 205.701 128.388 205.744C128.761 205.84 129.103 205.888 129.412 205.888C130.116 205.888 130.58 205.637 130.804 205.136C131.039 204.635 131.156 203.616 131.156 202.08V200.96H133.028V202.08C133.028 203.051 132.975 203.872 132.868 204.544C132.815 204.875 132.751 205.168 132.676 205.424C132.964 205.573 133.231 205.68 133.476 205.744C133.849 205.84 134.217 205.888 134.58 205.888C134.687 205.888 134.74 205.941 134.74 206.048V207.824C134.74 207.941 134.687 208 134.58 208C133.972 208 133.423 207.867 132.932 207.6C132.601 207.419 132.281 207.189 131.972 206.912C131.791 207.147 131.545 207.365 131.236 207.568C130.788 207.856 130.228 208 129.556 208C129.087 208 128.644 207.899 128.228 207.696C127.908 207.557 127.519 207.333 127.06 207.024C126.836 207.259 126.623 207.44 126.42 207.568C125.972 207.856 125.412 208 124.74 208C124.271 208 123.828 207.899 123.412 207.696C123.049 207.525 122.639 207.285 122.18 206.976C121.999 207.2 121.775 207.397 121.508 207.568C121.049 207.856 120.489 208 119.828 208C119.721 208 119.668 207.941 119.668 207.824V206.048C119.668 205.941 119.721 205.888 119.828 205.888C120.425 205.888 120.831 205.637 121.044 205.136C121.279 204.635 121.396 203.616 121.396 202.08ZM137.602 200.128C138.135 200.128 138.669 200.256 139.202 200.512C139.735 200.757 140.205 201.045 140.61 201.376C141.015 201.696 141.522 202.032 142.13 202.384C142.749 202.736 143.373 202.987 144.002 203.136L143.426 205.184C142.743 205.291 142.125 205.461 141.57 205.696C141.015 205.931 140.541 206.176 140.146 206.432C139.751 206.677 139.325 206.923 138.866 207.168C138.418 207.413 137.831 207.616 137.106 207.776C136.391 207.925 135.554 208 134.594 208C134.477 208 134.418 207.941 134.418 207.824V206.048C134.418 205.941 134.477 205.888 134.594 205.888C135.533 205.888 136.407 205.808 137.218 205.648C138.029 205.488 138.589 205.344 138.898 205.216C139.218 205.088 139.741 204.864 140.466 204.544C140.765 204.395 141.101 204.251 141.474 204.112C141.069 203.92 140.759 203.755 140.546 203.616C140.461 203.563 140.285 203.451 140.018 203.28C139.751 203.099 139.57 202.981 139.474 202.928C139.378 202.864 139.218 202.773 138.994 202.656C138.781 202.528 138.605 202.443 138.466 202.4C138.338 202.357 138.178 202.315 137.986 202.272C137.794 202.229 137.607 202.208 137.426 202.208C136.925 202.208 136.306 202.336 135.57 202.592V200.72C136.189 200.325 136.866 200.128 137.602 200.128ZM148.643 201.792H150.515C150.365 202.571 150.291 203.173 150.291 203.6C150.291 204.421 150.488 205.008 150.883 205.36C151.277 205.712 151.987 205.888 153.011 205.888H156.691C156.797 205.888 156.851 205.941 156.851 206.048V207.824C156.851 207.941 156.797 208 156.691 208H152.547C151.181 208 150.141 207.669 149.427 207.008C148.712 206.336 148.355 205.371 148.355 204.112C148.355 203.483 148.451 202.709 148.643 201.792ZM158.675 199.968C159.709 199.968 160.568 200.325 161.251 201.04C161.944 201.755 162.291 202.645 162.291 203.712C162.291 205.003 161.901 206.043 161.123 206.832C160.355 207.611 159.325 208 158.035 208H154.451C154.344 207.989 154.291 207.931 154.291 207.824V206.048C154.291 205.941 154.344 205.888 154.451 205.888H155.923L155.699 205.552C155.219 204.88 154.979 204.187 154.979 203.472C154.979 202.48 155.331 201.648 156.035 200.976C156.739 200.304 157.619 199.968 158.675 199.968ZM157.859 205.888H158.067C158.739 205.888 159.272 205.707 159.667 205.344C160.061 204.971 160.259 204.464 160.259 203.824C160.259 203.312 160.099 202.885 159.779 202.544C159.469 202.192 159.075 202.016 158.595 202.016C158.093 202.016 157.683 202.187 157.363 202.528C157.053 202.859 156.899 203.269 156.899 203.76C156.899 204.165 157.085 204.645 157.459 205.2C157.683 205.573 157.816 205.803 157.859 205.888ZM156.947 197.696L158.435 196.208L159.939 197.696L158.451 199.184L156.947 197.696ZM163.066 207.456V205.424C164.132 205.733 165.098 205.888 165.962 205.888C166.388 205.888 166.815 205.861 167.242 205.808C167.423 205.797 167.615 205.765 167.818 205.712C167.743 205.573 167.679 205.408 167.626 205.216C167.263 204.149 166.874 202.491 166.458 200.24H168.538C168.89 202.448 169.172 203.872 169.386 204.512C169.674 205.429 170.239 205.888 171.082 205.888C171.188 205.888 171.242 205.941 171.242 206.048V207.824C171.242 207.941 171.188 208 171.082 208C170.154 208 169.386 207.712 168.778 207.136C167.892 207.712 166.927 208 165.882 208C165.359 208 164.916 207.968 164.554 207.904C164.191 207.829 163.695 207.68 163.066 207.456ZM165.978 197.776L167.466 196.288L168.97 197.776L167.482 199.264L165.978 197.776ZM174.102 200.128C174.635 200.128 175.169 200.256 175.702 200.512C176.235 200.757 176.705 201.045 177.11 201.376C177.515 201.696 178.022 202.032 178.63 202.384C179.249 202.736 179.873 202.987 180.502 203.136L179.926 205.184C179.243 205.291 178.625 205.461 178.07 205.696C177.515 205.931 177.041 206.176 176.646 206.432C176.251 206.677 175.825 206.923 175.366 207.168C174.918 207.413 174.331 207.616 173.606 207.776C172.891 207.925 172.054 208 171.094 208C170.977 208 170.918 207.941 170.918 207.824V206.048C170.918 205.941 170.977 205.888 171.094 205.888C172.033 205.888 172.907 205.808 173.718 205.648C174.529 205.488 175.089 205.344 175.398 205.216C175.718 205.088 176.241 204.864 176.966 204.544C177.265 204.395 177.601 204.251 177.974 204.112C177.569 203.92 177.259 203.755 177.046 203.616C176.961 203.563 176.785 203.451 176.518 203.28C176.251 203.099 176.07 202.981 175.974 202.928C175.878 202.864 175.718 202.773 175.494 202.656C175.281 202.528 175.105 202.443 174.966 202.4C174.838 202.357 174.678 202.315 174.486 202.272C174.294 202.229 174.107 202.208 173.926 202.208C173.425 202.208 172.806 202.336 172.07 202.592V200.72C172.689 200.325 173.366 200.128 174.102 200.128ZM191.927 196.4H193.943V204.64C193.943 205.472 194.487 205.888 195.575 205.888C195.681 205.888 195.735 205.941 195.735 206.048V207.824C195.735 207.941 195.681 208 195.575 208C194.871 208 194.305 207.797 193.879 207.392C193.836 207.765 193.756 208.123 193.639 208.464C193.329 209.403 192.796 210.133 192.039 210.656C191.281 211.179 190.321 211.44 189.159 211.44C187.783 211.44 186.716 211.056 185.959 210.288C185.212 209.531 184.839 208.437 184.839 207.008C184.839 206.357 184.892 205.792 184.999 205.312C185.105 204.821 185.287 204.197 185.543 203.44H187.415C186.956 204.645 186.727 205.707 186.727 206.624C186.727 207.456 186.935 208.112 187.351 208.592C187.777 209.083 188.407 209.328 189.239 209.328C190.177 209.328 190.86 209.083 191.287 208.592C191.713 208.112 191.927 207.365 191.927 206.352V196.4ZM200.651 199.92C201.707 199.92 202.576 200.203 203.259 200.768C203.941 201.333 204.283 202.027 204.283 202.848C204.283 203.904 203.819 204.869 202.891 205.744L202.859 205.776L203.195 205.808C203.664 205.861 204.267 205.888 205.003 205.888C205.109 205.888 205.163 205.941 205.163 206.048V207.824C205.163 207.941 205.109 208 205.003 208C203.861 208 202.907 207.883 202.139 207.648C201.691 207.509 201.248 207.339 200.811 207.136L200.187 207.376C199.547 207.621 198.891 207.787 198.219 207.872C197.547 207.957 196.661 208 195.562 208C195.456 207.989 195.402 207.931 195.402 207.824V206.048C195.402 205.941 195.456 205.888 195.562 205.888C196.331 205.888 197.003 205.872 197.579 205.84C197.824 205.829 198.192 205.792 198.683 205.728C198.608 205.579 198.528 205.451 198.443 205.344C197.941 204.544 197.483 203.909 197.067 203.44C197.056 203.429 197.003 203.376 196.907 203.28C196.821 203.173 196.757 203.093 196.715 203.04C196.661 203.061 196.555 203.109 196.395 203.184C196.245 203.259 196.133 203.317 196.059 203.36V201.472C196.741 201.003 197.504 200.629 198.347 200.352C199.189 200.064 199.957 199.92 200.651 199.92ZM200.539 205.52L200.827 205.376C201.285 205.131 201.648 204.827 201.915 204.464C202.181 204.101 202.315 203.739 202.315 203.376C202.315 202.96 202.149 202.629 201.819 202.384C201.488 202.128 201.035 202 200.459 202C199.861 202 199.173 202.128 198.395 202.384H198.379C198.688 202.704 198.992 203.083 199.291 203.52C199.675 204.064 200.091 204.731 200.539 205.52ZM206.743 201.024C207.426 200.32 208.285 199.968 209.319 199.968C210.354 199.968 211.207 200.309 211.879 200.992C212.551 201.664 212.887 202.523 212.887 203.568C212.887 204.24 212.642 204.901 212.151 205.552C212.023 205.712 211.954 205.797 211.943 205.808L212.087 205.824C212.439 205.867 212.941 205.888 213.591 205.888C213.698 205.888 213.751 205.941 213.751 206.048V207.824C213.751 207.941 213.698 208 213.591 208C212.791 208 211.869 207.893 210.823 207.68C210.407 207.605 209.97 207.499 209.511 207.36L209.335 207.408C208.066 207.803 206.631 208 205.031 208C204.925 207.989 204.871 207.931 204.871 207.824V206.048C204.871 205.941 204.925 205.888 205.031 205.888C205.714 205.888 206.247 205.867 206.631 205.824C206.578 205.771 206.509 205.691 206.423 205.584C205.954 204.997 205.719 204.325 205.719 203.568C205.719 202.576 206.061 201.728 206.743 201.024ZM210.487 205.024C210.765 204.651 210.903 204.245 210.903 203.808C210.903 203.275 210.749 202.848 210.439 202.528C210.13 202.197 209.73 202.032 209.239 202.032C208.759 202.032 208.37 202.192 208.071 202.512C207.773 202.832 207.623 203.248 207.623 203.76C207.623 204.208 207.762 204.619 208.039 204.992C208.317 205.355 208.706 205.621 209.207 205.792C209.805 205.611 210.231 205.355 210.487 205.024ZM207.831 197.696L209.319 196.208L210.823 197.696L209.335 199.184L207.831 197.696ZM215.13 196.4H217.146V204.848C217.146 205.84 216.842 206.613 216.234 207.168C215.626 207.723 214.746 208 213.594 208C213.487 208 213.434 207.941 213.434 207.824V206.048C213.434 205.941 213.487 205.888 213.594 205.888C214.17 205.888 214.57 205.781 214.794 205.568C215.018 205.355 215.13 205.003 215.13 204.512V196.4ZM219.639 196.4H221.655V204.512C221.655 205.003 221.767 205.355 221.991 205.568C222.215 205.781 222.615 205.888 223.191 205.888C223.297 205.888 223.351 205.941 223.351 206.048V207.824C223.351 207.941 223.297 208 223.191 208C222.039 208 221.159 207.723 220.551 207.168C219.943 206.613 219.639 205.84 219.639 204.848V196.4ZM224.26 200.24H226.26C226.58 202.448 226.74 203.984 226.74 204.848C226.74 205.84 226.436 206.613 225.828 207.168C225.22 207.723 224.34 208 223.188 208C223.081 208 223.027 207.941 223.027 207.824V206.048C223.027 205.941 223.081 205.888 223.188 205.888C223.764 205.888 224.164 205.781 224.388 205.568C224.622 205.355 224.74 205.003 224.74 204.512C224.74 203.829 224.58 202.405 224.26 200.24ZM223.444 210.432L224.932 208.944L226.436 210.432L224.948 211.92L223.444 210.432ZM231.237 207.456V205.424C232.304 205.733 233.269 205.888 234.133 205.888C234.56 205.888 234.987 205.861 235.413 205.808C235.595 205.797 235.787 205.765 235.989 205.712C235.915 205.573 235.851 205.408 235.797 205.216C235.435 204.149 235.045 202.491 234.629 200.24H236.709C237.061 202.448 237.344 203.872 237.557 204.512C237.845 205.429 238.411 205.888 239.253 205.888C239.36 205.888 239.413 205.941 239.413 206.048V207.824C239.413 207.941 239.36 208 239.253 208C238.325 208 237.557 207.712 236.949 207.136C236.064 207.712 235.099 208 234.053 208C233.531 208 233.088 207.968 232.725 207.904C232.363 207.829 231.867 207.68 231.237 207.456ZM241.618 200.24H243.634C243.954 202.437 244.114 203.973 244.114 204.848C244.114 205.84 243.81 206.613 243.202 207.168C242.594 207.723 241.714 208 240.562 208H239.25C239.143 208 239.09 207.941 239.09 207.824V206.048C239.09 205.941 239.143 205.888 239.25 205.888H240.562C241.138 205.888 241.538 205.781 241.762 205.568C241.986 205.355 242.098 205.003 242.098 204.512C242.098 203.829 241.938 202.405 241.618 200.24ZM238.93 210.448L240.418 208.96L241.618 210.112L242.786 208.96L244.29 210.448L242.802 211.936L241.618 210.768L240.45 211.936L238.93 210.448ZM246.445 200.96H248.445C248.626 202.176 248.749 203.259 248.812 204.208L248.861 204.896V204.944C248.925 205.307 249.095 205.552 249.373 205.68C249.65 205.819 250.018 205.888 250.477 205.888C250.583 205.888 250.637 205.941 250.637 206.048V207.824C250.637 207.941 250.583 208 250.477 208C249.794 208 249.303 207.819 249.005 207.456L248.957 207.408V207.648C248.957 208.885 248.583 209.824 247.837 210.464C247.101 211.115 246.05 211.44 244.684 211.44V209.616C245.41 209.616 245.981 209.44 246.397 209.088C246.813 208.747 247.021 208.224 247.021 207.52C247.021 206.315 246.829 204.128 246.445 200.96ZM252.868 200.24H254.884C255.204 202.437 255.364 203.973 255.364 204.848C255.364 205.84 255.06 206.613 254.452 207.168C253.844 207.723 252.964 208 251.812 208H250.5C250.393 208 250.34 207.941 250.34 207.824V206.048C250.34 205.941 250.393 205.888 250.5 205.888H251.812C252.388 205.888 252.788 205.781 253.012 205.568C253.236 205.355 253.348 205.003 253.348 204.512C253.348 203.829 253.188 202.405 252.868 200.24ZM250.964 197.712L252.452 196.208L253.684 197.408L254.884 196.208L256.388 197.712L254.916 199.2L253.684 198.016L252.468 199.2L250.964 197.712ZM267.833 196.4H269.849V204.64C269.849 205.472 270.393 205.888 271.481 205.888C271.588 205.888 271.641 205.941 271.641 206.048V207.824C271.641 207.941 271.588 208 271.481 208C270.777 208 270.212 207.797 269.785 207.392C269.742 207.765 269.662 208.123 269.545 208.464C269.236 209.403 268.702 210.133 267.945 210.656C267.188 211.179 266.228 211.44 265.065 211.44C263.689 211.44 262.622 211.056 261.865 210.288C261.118 209.531 260.745 208.437 260.745 207.008C260.745 206.357 260.798 205.792 260.905 205.312C261.012 204.821 261.193 204.197 261.449 203.44H263.321C262.862 204.645 262.633 205.707 262.633 206.624C262.633 207.456 262.841 208.112 263.257 208.592C263.684 209.083 264.313 209.328 265.145 209.328C266.084 209.328 266.766 209.083 267.193 208.592C267.62 208.112 267.833 207.365 267.833 206.352V196.4ZM275.277 198.96V196.96C277.741 196.96 279.655 197.504 281.021 198.592C282.397 199.669 283.085 201.184 283.085 203.136C283.085 204.053 282.855 205.136 282.397 206.384L280.493 208.208C279.213 208.208 277.895 207.963 276.541 207.472C276.509 207.461 276.439 207.44 276.333 207.408C276.237 207.365 276.157 207.333 276.093 207.312L275.773 207.408C274.503 207.803 273.069 208 271.469 208C271.362 207.989 271.309 207.931 271.309 207.824V206.048C271.309 205.941 271.362 205.888 271.469 205.888C272.151 205.888 272.685 205.867 273.069 205.824C273.015 205.771 272.946 205.691 272.861 205.584C272.391 204.997 272.157 204.325 272.157 203.568C272.157 202.576 272.498 201.728 273.181 201.024C273.863 200.32 274.722 199.968 275.757 199.968C276.791 199.968 277.645 200.309 278.317 200.992C278.989 201.664 279.325 202.523 279.325 203.568C279.325 204.24 279.079 204.901 278.589 205.552C278.397 205.776 278.295 205.893 278.285 205.904C278.53 205.947 278.695 205.973 278.781 205.984C279.271 206.059 279.831 206.096 280.461 206.096C280.887 205.083 281.101 204.128 281.101 203.232C281.101 201.984 280.589 200.96 279.565 200.16C278.541 199.36 277.111 198.96 275.277 198.96ZM276.925 205.024C277.202 204.651 277.341 204.245 277.341 203.808C277.341 203.275 277.186 202.848 276.877 202.528C276.567 202.197 276.167 202.032 275.677 202.032C275.197 202.032 274.807 202.192 274.509 202.512C274.21 202.832 274.061 203.248 274.061 203.76C274.061 204.208 274.199 204.619 274.477 204.992C274.754 205.355 275.143 205.621 275.645 205.792C276.242 205.611 276.669 205.355 276.925 205.024Z" fill="#fff"/>
<defs>
<filter id="filter0_f_761_5586" x="98.0044" y="22.8574" width="125.57" height="133.892" filterUnits="userSpaceOnUse" color-interpolation-filters="sRGB">
<feFlood flood-opacity="0" result="BackgroundImageFix"/>
<feBlend mode="normal" in="SourceGraphic" in2="BackgroundImageFix" result="shape"/>
<feGaussianBlur stdDeviation="12" result="effect1_foregroundBlur_761_5586"/>
</filter>
<linearGradient id="paint0_linear_761_5586" x1="163.75" y1="-10" x2="163.5" y2="154.4" gradientUnits="userSpaceOnUse">
<stop stop-color="#E35757"/>
<stop offset="1" stop-color="white"/>
</linearGradient>
<linearGradient id="paint1_linear_761_5586" x1="171.25" y1="-551.357" x2="163.75" y2="137.786" gradientUnits="userSpaceOnUse">
<stop stop-color="#E35757"/>
<stop offset="1" stop-color="white"/>
</linearGradient>
<linearGradient id="paint2_linear_761_5586" x1="163.859" y1="46.1455" x2="163.859" y2="139.945" gradientUnits="userSpaceOnUse">
<stop stop-color="#E35757"/>
<stop offset="1" stop-color="white"/>
</linearGradient>
</defs>
</svg>
