<svg width="109" height="112" viewBox="0 0 109 112" fill="none" xmlns="http://www.w3.org/2000/svg">
  <path
    d="M35.7992 48.1827L26.0437 103.604L24.7666 110.86L89.8927 110.504C92.8154 110.489 95.4057 107.621 96.3461 103.36L107.894 51.0364C108.608 47.802 107.042 44.4379 104.823 44.4407L38.9079 44.5172C37.4526 44.5193 36.1802 46.0198 35.7992 48.1827Z"
    fill="#E8505B" />
  <g opacity="0.5">
    <path
      d="M35.7992 48.1827L26.0437 103.604L24.7666 110.86L89.8927 110.504C92.8154 110.489 95.4057 107.621 96.3461 103.36L107.894 51.0364C108.608 47.802 107.042 44.4379 104.823 44.4407L38.9079 44.5172C37.4526 44.5193 36.1802 46.0198 35.7992 48.1827Z"
      fill="#FBEDED" />
  </g>
  <path
    d="M83.6453 99.8496L76.7499 38.4501C76.4674 35.9342 74.6537 34.0575 72.5123 34.0655L57.3922 34.12C56.2732 34.124 55.2003 34.6499 54.4052 35.5836L47.2253 44.0173L5.17334 44.2597C2.60348 44.2746 0.629249 46.9613 0.969966 49.9802L7.37214 106.729C7.65547 109.241 9.46582 111.116 11.6042 111.111L84.892 110.951C93.0546 111.138 93.8337 108.474 93.8337 108.474C84.4793 110.765 83.6461 99.8566 83.6453 99.8496Z"
    fill="#E74545" />
  <g opacity="0.5">
    <path d="M52.0446 87.5615L49.573 90.4947L30.5361 71.5711L33.0081 68.6378L52.0446 87.5615Z" fill="white" />
    <path d="M48.5373 67.9875L51.2691 70.7029L34.0443 91.1453L31.3125 88.4297L48.5373 67.9875Z" fill="white" />
  </g>
  <path
    d="M93.6459 14.2633C93.9894 14.6048 94.0136 15.1526 93.7015 15.523C93.3509 15.9391 92.7196 15.967 92.3337 15.5834L84.3892 7.68613C84.0457 7.34463 84.0215 6.7967 84.3337 6.42629C84.6843 6.01019 85.3156 5.98236 85.7015 6.36598L93.6459 14.2633Z"
    fill="#E74545" />
  <path
    d="M91.8922 6.11286C92.2443 5.69503 92.8782 5.66704 93.2657 6.05222C93.6106 6.39511 93.6349 6.94527 93.3215 7.31723L86.1432 15.8365C85.7911 16.2543 85.1571 16.2823 84.7696 15.8971C84.4247 15.5542 84.4004 15.004 84.7138 14.632L91.8922 6.11286Z"
    fill="#E74545" />
  <path
    d="M79.7274 10.4269C79.7307 10.4269 79.7393 10.3641 79.7522 10.2413C79.7652 10.1087 79.7834 9.92819 79.8063 9.69619C79.8187 9.45506 79.8744 9.16362 79.9398 8.82005C79.9762 8.64933 79.995 8.45941 80.0516 8.26736C80.1054 8.07408 80.1625 7.86892 80.2226 7.65186C80.4897 6.79584 80.9016 5.7691 81.5946 4.74785C82.2826 3.72873 83.2502 2.72181 84.4919 1.95907C85.1036 1.55606 85.8029 1.27529 86.5362 1.02745C87.2808 0.832645 88.0701 0.665586 88.8948 0.687231C89.3072 0.662843 89.723 0.729605 90.1467 0.768931C90.3583 0.791185 90.5666 0.85368 90.7793 0.89453C90.992 0.937818 91.2058 0.983851 91.4141 1.06372C92.2658 1.30516 93.0932 1.74903 93.8817 2.29928C95.4644 3.39949 96.7972 5.18958 97.5283 7.35951C97.8949 8.44509 98.0704 9.63523 98.069 10.8373C98.0908 12.0417 97.8798 13.2651 97.4919 14.4168L97.3674 14.765L97.3512 14.811L97.368 14.854C98.0599 16.6151 98.7386 18.3424 99.396 20.016L99.5122 19.8703C98.0875 19.2655 96.7059 18.6789 95.3805 18.1162L95.3295 18.0945L95.2895 18.1375C94.1432 19.3649 92.774 20.1944 91.3879 20.6266C89.9975 21.0598 88.5971 21.0821 87.3233 20.8318C86.0468 20.5821 84.8975 20.0425 83.9391 19.349C82.9779 18.6555 82.207 17.8123 81.6128 16.9553C81.023 16.0889 80.6345 15.2006 80.341 14.4071C80.0827 13.5962 79.9244 12.8764 79.8477 12.2807C79.8151 11.9832 79.7862 11.7186 79.7611 11.4878C79.7555 11.2598 79.7511 11.0659 79.7473 10.9052C79.7429 10.7556 79.7393 10.6373 79.7365 10.5483C79.7332 10.4681 79.7302 10.4269 79.7274 10.4269C79.7249 10.4269 79.7227 10.4675 79.7208 10.548C79.7197 10.6373 79.7183 10.7552 79.7166 10.9058C79.7164 11.0671 79.7158 11.2625 79.7158 11.4918C79.7371 11.7244 79.7613 11.9911 79.7889 12.2911C79.8568 12.8926 80.0074 13.6212 80.2604 14.4439C80.5484 15.2491 80.9344 16.1523 81.5253 17.0352C82.1207 17.9086 82.8968 18.7695 83.8682 19.4798C84.8368 20.1901 86.0013 20.7452 87.2971 21.0056C88.5899 21.2659 90.0138 21.2498 91.4299 20.8138C92.8418 20.3791 94.2389 19.538 95.4098 18.2893L95.3184 18.3107C96.6432 18.8756 98.0235 19.4645 99.4479 20.0718L99.6562 20.1605L99.5643 19.9261C98.9074 18.2518 98.2299 16.5243 97.5388 14.7628L97.5393 14.8515L97.6665 14.4958C98.0632 13.3187 98.2781 12.0673 98.2558 10.8363C98.2566 9.60779 98.0756 8.39113 97.6999 7.28238C96.9509 5.06581 95.5872 3.24432 93.9727 2.12796C93.1685 1.56947 92.3246 1.12134 91.4574 0.878067C91.2453 0.797891 91.0276 0.751859 90.8113 0.70857C90.595 0.66772 90.3829 0.605226 90.1677 0.583277C89.737 0.54517 89.3141 0.479628 88.8953 0.50615C88.0572 0.488468 87.2555 0.661624 86.5006 0.86435C85.7569 1.12012 85.0487 1.41003 84.4301 1.8228C83.1746 2.60536 82.2007 3.63423 81.5124 4.67286C80.8188 5.71331 80.4124 6.75682 80.1539 7.62443C80.096 7.84422 80.0411 8.05244 79.9898 8.24785C79.9354 8.44234 79.9191 8.63409 79.8855 8.80664C79.8256 9.15417 79.7754 9.44805 79.7691 9.69101C79.7539 9.92422 79.742 10.1065 79.7332 10.2397C79.7263 10.3635 79.7244 10.4266 79.7274 10.4269Z"
    fill="#DCE3E2" />
</svg>
