<svg width="141" height="36" viewBox="0 0 141 36" fill="none" xmlns="http://www.w3.org/2000/svg">
<path d="M135.564 12.8487C135.564 13.1342 135.472 13.3781 135.287 13.5824C135.113 13.7763 134.907 13.8785 134.672 13.8889C134.657 13.8889 134.644 13.8889 134.629 13.8889C134.373 13.8889 134.156 13.7888 133.976 13.5824C133.843 13.4323 133.759 13.2593 133.726 13.0675C133.711 12.9987 133.705 12.9258 133.705 12.8487C133.705 12.5652 133.795 12.3233 133.974 12.1211C134.154 11.9209 134.371 11.8209 134.625 11.8209C134.879 11.8209 135.098 11.9209 135.283 12.1211C135.468 12.3212 135.56 12.5652 135.56 12.8465L135.564 12.8487Z" fill="#14C6A5"/>
<path d="M137.828 12.8491C137.828 13.1326 137.737 13.3764 137.552 13.5828C137.368 13.7892 137.148 13.8913 136.893 13.8913C136.639 13.8913 136.422 13.7892 136.243 13.5828C136.063 13.3786 135.973 13.1326 135.973 12.8491C135.973 12.5656 136.063 12.3238 136.243 12.1236C136.422 11.9235 136.639 11.8235 136.893 11.8235C137.148 11.8235 137.366 11.9235 137.552 12.1236C137.737 12.3238 137.828 12.5656 137.828 12.8491Z" fill="#14C6A5"/>
<path d="M141 28.0457V28.3084C141 29.6175 140.044 30.6827 138.87 30.6827H136.029C136.005 30.7181 135.977 30.762 135.949 30.8057C134.201 33.4698 131.392 35.0604 128.437 35.0604C126.361 35.0604 124.443 34.3016 122.892 33.0175C122.717 32.8715 122.543 32.7173 122.376 32.5567C121.439 31.6604 120.663 30.5597 120.104 29.3173C120.042 29.1818 119.984 29.0462 119.93 28.9067C119.754 28.4709 119.605 28.0206 119.485 27.5558V27.5516C119.249 26.6406 119.122 25.6754 119.122 24.6811V12.0963C119.122 10.8121 119.33 9.56136 119.739 8.37104C120.001 7.62058 120.34 6.90347 120.747 6.24056C122.488 3.40548 125.363 1.71277 128.437 1.71277C132.557 1.71277 136.235 4.79384 137.383 9.20698C137.421 9.3529 137.439 9.49881 137.439 9.64682C137.439 10.5182 136.806 11.2228 136.026 11.2228C135.401 11.2228 134.842 10.7538 134.666 10.0825C133.866 7.01187 131.304 4.8668 128.435 4.8668C126.823 4.8668 125.277 5.53387 124.082 6.74296C123.551 7.2787 123.106 7.902 122.761 8.59617C122.228 9.66142 121.948 10.8726 121.948 12.0983V24.6832C121.948 24.7895 121.948 24.8958 121.954 25C121.954 25 121.954 25 121.954 25.0043C122.01 26.4592 122.455 27.8038 123.175 28.9128C123.341 29.1713 123.523 29.4153 123.719 29.6467C124.901 31.0433 126.578 31.9168 128.435 31.9168C129.787 31.9168 131.107 31.4394 132.203 30.568C131.296 30.2658 130.588 29.7696 129.843 29.1151C129.38 28.7107 128.957 28.2417 128.59 27.7184C127.545 26.2404 126.969 24.3955 126.969 22.5235C126.969 19.3111 128.598 16.6699 130.984 15.2607C132.033 14.6395 133.088 14.2893 134.356 14.2893H137.75V27.2743H134.922V17.1536H134.354C133.957 17.1536 133.714 17.2056 133.344 17.3057C131.164 17.8853 129.537 19.9198 129.537 22.5235C129.537 24.729 130.715 26.7094 132.508 27.585C132.624 27.6434 132.744 27.6954 132.865 27.7434C132.877 27.7475 132.89 27.7518 132.903 27.758C133.402 27.9477 133.78 28.0477 134.313 28.0519H140.996L141 28.0457Z" fill="#14C6A5"/>
<path d="M110.206 8.778C109.878 8.778 109.598 8.66881 109.364 8.45043C109.145 8.21645 109.036 7.92787 109.036 7.5847C109.036 7.25713 109.145 6.98415 109.364 6.76577C109.598 6.53179 109.878 6.41481 110.206 6.41481C110.534 6.41481 110.807 6.53179 111.025 6.76577C111.259 6.98415 111.376 7.25713 111.376 7.5847C111.376 7.92787 111.259 8.21645 111.025 8.45043C110.807 8.66881 110.534 8.778 110.206 8.778ZM113.014 8.778C112.702 8.778 112.429 8.66881 112.195 8.45043C111.961 8.21645 111.844 7.92787 111.844 7.5847C111.844 7.25713 111.961 6.98415 112.195 6.76577C112.429 6.53179 112.702 6.41481 113.014 6.41481C113.341 6.41481 113.614 6.53179 113.833 6.76577C114.067 6.98415 114.184 7.25713 114.184 7.5847C114.184 7.92787 114.067 8.21645 113.833 8.45043C113.614 8.66881 113.341 8.778 113.014 8.778ZM111.61 10.1585C112.405 10.1585 113.115 10.3457 113.739 10.72C114.363 11.0944 114.854 11.6169 115.213 12.2877C115.588 12.9584 115.775 13.7462 115.775 14.6509C115.775 15.54 115.595 16.3199 115.237 16.9907C114.878 17.6614 114.386 18.184 113.763 18.5583C113.154 18.9327 112.46 19.1277 111.68 19.1433H105.339V16.8737H108.007C107.819 16.5617 107.679 16.2107 107.585 15.8208C107.507 15.4308 107.461 15.0408 107.445 14.6509C107.445 13.7462 107.624 12.9584 107.983 12.2877C108.358 11.6169 108.857 11.0944 109.481 10.72C110.12 10.3457 110.83 10.1585 111.61 10.1585ZM111.61 16.8737C112.047 16.8737 112.398 16.7567 112.663 16.5227C112.928 16.2731 113.123 15.969 113.248 15.6102C113.373 15.2514 113.435 14.9161 113.435 14.6041C113.435 14.2765 113.373 13.9333 113.248 13.5746C113.123 13.2158 112.928 12.9116 112.663 12.6621C112.398 12.4125 112.047 12.2877 111.61 12.2877C111.189 12.2877 110.838 12.4125 110.557 12.6621C110.292 12.9116 110.097 13.2158 109.972 13.5746C109.847 13.9333 109.785 14.2765 109.785 14.6041C109.785 14.9161 109.847 15.2514 109.972 15.6102C110.097 15.969 110.292 16.2731 110.557 16.5227C110.838 16.7567 111.189 16.8737 111.61 16.8737Z" fill="#1A2523"/>
<path d="M105.62 19.1433H104.871C103.592 19.1433 102.601 18.7689 101.899 18.0202C101.213 17.2715 100.87 16.2575 100.87 14.9785V8.05266C100.87 6.77358 101.478 6.13403 102.695 6.13403H102.882C103.054 6.13403 103.139 6.21203 103.139 6.36801V14.9317C103.139 15.5244 103.28 16.0002 103.56 16.3589C103.841 16.7021 104.255 16.8737 104.801 16.8737H105.62V19.1433Z" fill="#1A2523"/>
<path d="M94.0925 16.8737H96.5961C97.2045 16.8737 97.6802 17.0375 98.0234 17.365C98.3822 17.677 98.5616 18.0748 98.5616 18.5583V18.7455C98.5616 18.9171 98.5304 19.0263 98.468 19.0731C98.4212 19.1199 98.312 19.1433 98.1404 19.1433H87.4709V16.8737H90.3255C90.1071 16.5305 89.9355 16.1639 89.8107 15.774C89.7015 15.384 89.6391 14.9941 89.6235 14.6041C89.6235 13.715 89.8185 12.935 90.2085 12.2643C90.6141 11.5936 91.1522 11.0788 91.8229 10.72C92.5093 10.3457 93.258 10.1585 94.0692 10.1585C95.0207 10.1585 95.7928 10.3769 96.3855 10.8136C96.9939 11.2348 97.3059 11.7651 97.3215 12.4047C97.3215 12.5607 97.2903 12.7011 97.2279 12.8258C97.1811 12.935 97.0875 12.9896 96.9471 12.9896C96.8379 12.9896 96.7209 12.9506 96.5961 12.8726C96.3622 12.7478 96.0502 12.6231 95.6602 12.4983C95.2858 12.3579 94.8725 12.2877 94.4201 12.2877C93.7026 12.2877 93.1098 12.4983 92.6419 12.9194C92.1895 13.325 91.9555 13.8943 91.9399 14.6275C91.9399 14.9707 92.0179 15.3216 92.1739 15.6804C92.3299 16.0236 92.5639 16.3121 92.8759 16.5461C93.2034 16.7645 93.609 16.8737 94.0925 16.8737Z" fill="#1A2523"/>
<path d="M82.6756 9.15237C82.3481 9.15237 82.0673 9.04317 81.8333 8.82479C81.6149 8.59081 81.5057 8.30224 81.5057 7.95907C81.5057 7.6159 81.6149 7.33513 81.8333 7.11674C82.0673 6.88277 82.3481 6.76578 82.6756 6.76578C83.0032 6.76578 83.2762 6.88277 83.4946 7.11674C83.7285 7.33513 83.8455 7.6159 83.8455 7.95907C83.8455 8.30224 83.7285 8.59081 83.4946 8.82479C83.2762 9.04317 83.0032 9.15237 82.6756 9.15237ZM85.4834 9.15237C85.1714 9.15237 84.8984 9.04317 84.6645 8.82479C84.4305 8.59081 84.3135 8.30224 84.3135 7.95907C84.3135 7.6159 84.4305 7.33513 84.6645 7.11674C84.8984 6.88277 85.1714 6.76578 85.4834 6.76578C85.811 6.76578 86.0839 6.88277 86.3023 7.11674C86.5363 7.33513 86.6533 7.6159 86.6533 7.95907C86.6533 8.30224 86.5363 8.59081 86.3023 8.82479C86.0839 9.04317 85.811 9.15237 85.4834 9.15237ZM86.9341 16.8737H87.753V19.1433H86.9809C86.2789 19.1433 85.694 19.0419 85.226 18.8391C84.7581 18.6207 84.3915 18.379 84.1263 18.1138C83.7831 18.4413 83.3698 18.6987 82.8862 18.8859C82.4183 19.0575 81.8801 19.1433 81.2718 19.1433H80.5932V16.8737H81.3186C81.8801 16.8737 82.2935 16.7021 82.5586 16.3589C82.8394 16.0002 82.9798 15.5244 82.9798 14.9317V12.4983C82.9798 11.2192 83.5882 10.5796 84.8048 10.5796H85.0154C85.187 10.5796 85.2728 10.6576 85.2728 10.8136V14.9785C85.2728 15.6804 85.4444 16.1717 85.7876 16.4525C86.1307 16.7333 86.5129 16.8737 86.9341 16.8737Z" fill="#1A2523"/>
<path d="M80.0346 16.8737H80.8535V19.1433H80.1048C79.4028 19.1433 78.8179 19.0419 78.3499 18.8391C77.882 18.6207 77.5154 18.379 77.2502 18.1138C76.5327 18.8001 75.5812 19.1433 74.3957 19.1433H67.4933C66.2142 19.1433 65.1613 18.8235 64.3346 18.184C63.5234 17.5444 63.1179 16.6397 63.1179 15.4698C63.1179 14.7523 63.3207 14.0815 63.7262 13.4576C64.1318 12.818 64.6777 12.3501 65.3641 12.0537C65.5201 11.9757 65.6371 11.9367 65.715 11.9367C65.9178 11.9367 66.0192 12.0303 66.0192 12.2175C66.0192 12.3111 66.0036 12.3891 65.9724 12.4515C65.9412 12.5139 65.91 12.5685 65.8788 12.6153C65.6761 12.9116 65.4967 13.2314 65.3407 13.5746C65.1847 13.9021 65.1067 14.2843 65.1067 14.7211C65.1067 15.4854 65.3407 16.0392 65.8086 16.3823C66.2922 16.7099 66.8849 16.8737 67.5869 16.8737H74.4425C75.004 16.8737 75.4174 16.7021 75.6826 16.3589C75.9633 16.0002 76.1037 15.5244 76.1037 14.9317V8.05266C76.1037 6.77358 76.7121 6.13403 77.9288 6.13403H78.1394C78.3109 6.13403 78.3967 6.21203 78.3967 6.36801V14.9785C78.3967 15.6804 78.5683 16.1717 78.9115 16.4525C79.2547 16.7333 79.629 16.8737 80.0346 16.8737ZM68.7334 12.9896C68.671 12.9896 68.6242 12.9506 68.593 12.8726C68.5306 12.5919 68.5852 12.3423 68.7568 12.1239C68.9284 11.9055 69.1702 11.7573 69.4821 11.6793C69.2325 11.3362 69.1077 10.9618 69.1077 10.5562C69.1077 9.8855 69.3183 9.37075 69.7395 9.01198C70.1607 8.65321 70.6208 8.47383 71.12 8.47383C71.6035 8.45823 71.9935 8.56742 72.2899 8.8014C72.6018 9.03538 72.7656 9.31615 72.7812 9.64372C72.7812 9.8621 72.7266 9.9635 72.6174 9.9479C72.5706 9.9479 72.5161 9.9323 72.4537 9.9011C72.4069 9.8699 72.3445 9.83871 72.2665 9.80751C71.9857 9.66712 71.6815 9.59693 71.354 9.59693C70.652 9.59693 70.301 9.9167 70.301 10.5562C70.301 10.7902 70.3946 11.0242 70.5818 11.2582C70.769 11.4766 71.042 11.5858 71.4007 11.5858H72.3367C72.6486 11.5858 72.8826 11.6637 73.0386 11.8197C73.1946 11.9757 73.2726 12.1785 73.2726 12.4281V12.5217C73.2726 12.6621 73.2102 12.7323 73.0854 12.7323H70.1373C69.9033 12.7323 69.6849 12.7479 69.4821 12.779C69.2949 12.7946 69.1155 12.8414 68.944 12.9194C68.8504 12.9662 68.7802 12.9896 68.7334 12.9896Z" fill="#1A2523"/>
<path d="M56.3031 3.27949H57.1454C57.4262 3.27949 57.6367 3.35748 57.7771 3.51347C57.9331 3.65385 58.0111 3.83324 58.0111 4.05162V4.16861C58.0111 4.2778 57.9487 4.33239 57.8239 4.33239H55.18C54.9304 4.33239 54.7276 4.35579 54.5716 4.40259C54.4156 4.44938 54.283 4.49618 54.1739 4.54298C54.0803 4.58977 54.0257 4.61317 54.0101 4.61317C53.9633 4.61317 53.9321 4.57417 53.9165 4.49618C53.8697 4.41819 53.8463 4.3168 53.8463 4.19201C53.8619 3.75524 54.1115 3.47447 54.595 3.34968C54.5014 3.19369 54.4312 3.03771 54.3844 2.88172C54.3532 2.71014 54.3376 2.54635 54.3376 2.39037C54.3376 1.87561 54.5014 1.44665 54.829 1.10348C55.1722 0.744711 55.5933 0.557527 56.0925 0.541929C56.5136 0.526329 56.8568 0.63552 57.122 0.8695C57.3872 1.10348 57.5198 1.37645 57.5198 1.68843C57.5198 1.84441 57.4808 1.92241 57.4028 1.92241C57.3716 1.92241 57.3326 1.91461 57.2858 1.89901C57.2546 1.86781 57.1922 1.82881 57.0986 1.78202C56.8178 1.64163 56.5604 1.57144 56.3265 1.57144C56.0457 1.57144 55.8273 1.64943 55.6713 1.80542C55.5153 1.9614 55.4373 2.15639 55.4373 2.39037C55.4373 2.63994 55.5153 2.85052 55.6713 3.02211C55.8429 3.19369 56.0535 3.27949 56.3031 3.27949ZM56.5838 6.13403H56.7944C56.966 6.13403 57.0518 6.21203 57.0518 6.36802V17.2247C57.0518 18.5037 56.4435 19.1433 55.2268 19.1433H55.0396C54.8524 19.1433 54.7588 19.0653 54.7588 18.9093V8.05267C54.7588 6.77358 55.3671 6.13403 56.5838 6.13403Z" fill="#1A2523"/>
<path d="M51.786 12.6153C51.9732 13.0832 52.1057 13.637 52.1837 14.2765C52.2773 14.9161 52.3241 15.579 52.3241 16.2653C52.3241 17.2792 52.2773 18.2776 52.1837 19.2603C52.1057 20.243 51.8562 21.1243 51.435 21.9042C51.0918 22.6218 50.5927 23.1755 49.9375 23.5655C49.2824 23.9711 48.5571 24.166 47.7615 24.1504C47.2 24.1504 46.7008 24.0725 46.2641 23.9165C45.8429 23.7605 45.4763 23.5577 45.1644 23.3081C44.9616 23.1209 44.79 22.9104 44.6496 22.6764C44.5248 22.458 44.439 22.224 44.3922 21.9744C44.3454 21.6937 44.4546 21.5533 44.7198 21.5533C44.7822 21.5533 44.8446 21.5611 44.907 21.5767C44.9694 21.6079 45.024 21.6313 45.0708 21.6469C45.4139 21.7561 45.7337 21.8418 46.0301 21.9042C46.3421 21.9822 46.7866 22.0134 47.3638 21.9978C48.1905 21.9822 48.8144 21.6859 49.2356 21.1087C49.6724 20.5316 49.9219 19.7906 49.9843 18.8859C49.5944 19.0731 49.2278 19.1979 48.8846 19.2603C48.5571 19.3383 48.2451 19.3773 47.9487 19.3773C47.1532 19.3617 46.4512 19.1589 45.8429 18.7689C45.2346 18.3634 44.7588 17.8174 44.4156 17.1311C44.0881 16.4447 43.9243 15.6726 43.9243 14.8147C43.9243 13.8164 44.1036 12.974 44.4624 12.2877C44.8368 11.5858 45.3359 11.0554 45.9599 10.6966C46.5994 10.3379 47.3092 10.1585 48.0891 10.1585C49.0406 10.1585 49.8127 10.3769 50.4055 10.8136C51.0138 11.2504 51.474 11.8509 51.786 12.6153ZM49.9843 16.125C49.9843 15.6882 49.9609 15.2124 49.9141 14.6977C49.8829 14.1673 49.8049 13.754 49.6802 13.4576C49.5242 13.1144 49.3214 12.8336 49.0718 12.6153C48.8222 12.3969 48.4947 12.2877 48.0891 12.2877C47.512 12.2877 47.0674 12.5373 46.7554 13.0364C46.4434 13.52 46.2875 14.0815 46.2875 14.7211C46.2875 15.4854 46.4512 16.086 46.7788 16.5227C47.122 16.9595 47.5821 17.1779 48.1593 17.1779C48.5025 17.1779 48.83 17.1311 49.142 17.0375C49.454 16.9439 49.727 16.8035 49.9609 16.6163C49.9609 16.5383 49.9609 16.4603 49.9609 16.3823C49.9765 16.3043 49.9843 16.2185 49.9843 16.125Z" fill="#1A2523"/>
<path d="M40.4168 6.67219C40.7599 6.67219 41.0485 6.79698 41.2825 7.04656C41.5165 7.28054 41.6335 7.57691 41.6335 7.93568C41.6335 8.27885 41.5165 8.57522 41.2825 8.8248C41.0485 9.05878 40.7599 9.17577 40.4168 9.17577C40.0736 9.17577 39.7772 9.05878 39.5277 8.8248C39.2937 8.57522 39.1767 8.27885 39.1767 7.93568C39.1767 7.57691 39.2937 7.28054 39.5277 7.04656C39.7772 6.79698 40.0736 6.67219 40.4168 6.67219ZM37.492 19.1433H36.8135V16.8737H37.5388C38.1004 16.8737 38.5137 16.7021 38.7789 16.3589C39.0597 16.0002 39.2001 15.5244 39.2001 14.9317V12.4983C39.2001 11.2192 39.8084 10.5796 41.0251 10.5796H41.2357C41.4073 10.5796 41.4931 10.6576 41.4931 10.8136V14.9785C41.4931 16.2575 41.1421 17.2715 40.4402 18.0202C39.7382 18.7689 38.7555 19.1433 37.492 19.1433Z" fill="#1A2523"/>
<path d="M36.2581 16.8737H37.0771V19.1433H36.3283C35.6264 19.1433 35.0415 19.0419 34.5735 18.8391C34.1055 18.6207 33.739 18.379 33.4738 18.1138C33.1306 18.4413 32.7173 18.6987 32.2337 18.8859C31.7657 19.0575 31.2276 19.1433 30.6192 19.1433H25.3781C25.2065 19.1433 25.0895 19.1199 25.0271 19.0731C24.9647 19.0107 24.9335 18.9015 24.9335 18.7455V18.5349C24.9335 18.0514 25.1051 17.6536 25.4483 17.3416C25.7915 17.0297 26.2282 16.8737 26.7586 16.8737H28.1391L26.2438 11.0476C25.9319 10.1117 26.0722 9.44094 26.665 9.03538C26.7742 8.95739 26.8834 8.89499 26.9926 8.84819C27.1174 8.7858 27.2811 8.7234 27.4839 8.66101L27.6477 8.59082C27.7725 8.54402 27.8661 8.60641 27.9285 8.778L30.5958 16.8737H30.8298C31.3134 16.8737 31.68 16.6943 31.9295 16.3355C32.1947 15.9612 32.3273 15.4932 32.3273 14.9317V8.05266C32.3273 7.6159 32.4053 7.24933 32.5613 6.95296C32.7173 6.64099 32.9512 6.43041 33.2632 6.32122C33.4036 6.25882 33.5284 6.21203 33.6376 6.18083C33.7468 6.14963 33.9184 6.13403 34.1523 6.13403H34.3629C34.5345 6.13403 34.6203 6.21203 34.6203 6.36801V14.9785C34.6203 15.6804 34.7919 16.1717 35.135 16.4525C35.4782 16.7333 35.8526 16.8737 36.2581 16.8737Z" fill="#1A2523"/>
<path d="M18.6183 19.1433H17.9398V16.8737H18.6651C19.2266 16.8737 19.64 16.7021 19.9052 16.3589C20.186 16.0002 20.3264 15.5244 20.3264 14.9317V12.4983C20.3264 11.2192 20.9347 10.5796 22.1514 10.5796H22.362C22.5336 10.5796 22.6193 10.6576 22.6193 10.8136V14.9785C22.6193 16.2575 22.2684 17.2715 21.5664 18.0202C20.8645 18.7689 19.8818 19.1433 18.6183 19.1433ZM18.7821 20.6876C19.1097 20.6876 19.3826 20.7967 19.601 21.0151C19.835 21.2491 19.952 21.5377 19.952 21.8808C19.952 22.224 19.835 22.5048 19.601 22.7232C19.3826 22.9572 19.1097 23.0741 18.7821 23.0741C18.4545 23.0741 18.1815 22.9572 17.9632 22.7232C17.7292 22.5048 17.6122 22.224 17.6122 21.8808C17.6122 21.5377 17.7292 21.2491 17.9632 21.0151C18.1815 20.7967 18.4545 20.6876 18.7821 20.6876ZM21.6132 20.6876C21.9252 20.6876 22.1904 20.7967 22.4088 21.0151C22.6427 21.2491 22.7597 21.5377 22.7597 21.8808C22.7597 22.224 22.6427 22.5048 22.4088 22.7232C22.1904 22.9572 21.9252 23.0741 21.6132 23.0741C21.2857 23.0741 21.0049 22.9572 20.7709 22.7232C20.5369 22.5048 20.4199 22.224 20.4199 21.8808C20.4199 21.5377 20.5369 21.2491 20.7709 21.0151C21.0049 20.7967 21.2857 20.6876 21.6132 20.6876Z" fill="#1A2523"/>
<path d="M9.83822 11.4688C9.49505 11.4688 9.19868 11.344 8.9491 11.0944C8.71512 10.8448 8.59813 10.5484 8.59813 10.2053C8.59813 9.8465 8.71512 9.55013 8.9491 9.31615C9.19868 9.06657 9.49505 8.94178 9.83822 8.94178C10.1814 8.94178 10.47 9.06657 10.7039 9.31615C10.9379 9.55013 11.0549 9.8465 11.0549 10.2053C11.0549 10.5484 10.9379 10.8448 10.7039 11.0944C10.47 11.344 10.1814 11.4688 9.83822 11.4688ZM17.466 16.8737H18.1913V19.1433H17.5127C17.154 19.1433 16.8264 19.1121 16.53 19.0497C16.2337 18.9873 15.9685 18.9093 15.7345 18.8157C15.5005 20.5004 14.8376 21.8106 13.7457 22.7466C12.6538 23.6825 11.3201 24.1504 9.74463 24.1504C8.60593 24.1504 7.58422 23.9009 6.6795 23.4017C5.77478 22.9026 5.05725 22.2006 4.52689 21.2959C4.01214 20.3912 3.75476 19.3305 3.75476 18.1138C3.77036 17.0531 4.02774 16.1172 4.52689 15.306C5.04165 14.4949 5.68899 13.9255 6.46892 13.598C6.53132 13.5668 6.58591 13.5434 6.63271 13.5278C6.6951 13.5122 6.7497 13.5044 6.79649 13.5044C6.89008 13.5044 6.96808 13.5356 7.03047 13.598C7.10846 13.6448 7.13966 13.715 7.12406 13.8086C7.12406 13.9177 7.08507 14.0113 7.00707 14.0893C6.7107 14.5885 6.46112 15.1422 6.25834 15.7506C6.05556 16.3433 5.95417 16.9751 5.95417 17.6458C5.93857 18.6285 6.10235 19.4397 6.44552 20.0792C6.78869 20.7187 7.24885 21.1945 7.826 21.5065C8.41875 21.834 9.05829 21.9978 9.74463 21.9978C10.431 21.9978 11.0549 21.834 11.6165 21.5065C12.1936 21.1945 12.6538 20.7187 12.9969 20.0792C13.3557 19.4397 13.5351 18.6285 13.5351 17.6458V12.4983C13.5351 11.2192 14.1434 10.5796 15.3601 10.5796H15.5473C15.7189 10.5796 15.8047 10.6576 15.8047 10.8136V14.9785C15.8047 15.6804 15.9763 16.1717 16.3195 16.4525C16.6626 16.7333 17.0448 16.8737 17.466 16.8737Z" fill="#1A2523"/>
<path d="M110.611 31.0952C110.646 31.3839 110.769 31.6041 110.979 31.7557C111.189 31.9073 111.456 31.9831 111.778 31.9831C112.045 31.9831 112.266 31.9542 112.441 31.8965C112.616 31.8387 112.792 31.7593 112.967 31.6583C113.03 31.6149 113.086 31.5933 113.135 31.5933C113.213 31.5933 113.251 31.6438 113.251 31.7449C113.251 31.8965 113.195 32.0589 113.083 32.2322C112.978 32.4054 112.809 32.557 112.578 32.687C112.346 32.8097 112.038 32.8711 111.652 32.8711C111.273 32.8711 110.926 32.7916 110.611 32.6328C110.302 32.4668 110.057 32.2249 109.874 31.9073C109.692 31.5825 109.601 31.1854 109.601 30.7162C109.601 30.3047 109.678 29.9401 109.832 29.6225C109.994 29.3049 110.218 29.0558 110.506 28.8753C110.8 28.6949 111.144 28.6046 111.536 28.6046C111.957 28.6046 112.297 28.6949 112.557 28.8753C112.823 29.0486 113.016 29.276 113.135 29.5575C113.262 29.8391 113.325 30.1387 113.325 30.4563C113.325 30.5646 113.321 30.662 113.314 30.7487C113.314 30.8281 113.311 30.8967 113.304 30.9544C113.297 31.0483 113.237 31.0952 113.125 31.0952H110.611ZM110.611 30.348H112.315C112.329 30.2253 112.315 30.0989 112.273 29.969C112.238 29.8318 112.161 29.7163 112.041 29.6225C111.922 29.5286 111.754 29.4817 111.536 29.4817C111.27 29.4817 111.056 29.5611 110.895 29.72C110.741 29.8716 110.646 30.0809 110.611 30.348Z" fill="#718480"/>
<path d="M106 29.2219C106.133 29.0342 106.302 28.8862 106.505 28.7779C106.715 28.6696 106.943 28.6155 107.189 28.6155C107.687 28.6155 108.076 28.7671 108.356 29.0703C108.644 29.3735 108.788 29.8247 108.788 30.4238V32.6437C108.788 32.7231 108.749 32.7628 108.672 32.7628H107.894C107.816 32.7628 107.778 32.7231 107.778 32.6437V30.5538C107.778 30.2001 107.697 29.9474 107.536 29.7958C107.375 29.6442 107.171 29.5684 106.926 29.5684C106.68 29.5684 106.477 29.6478 106.316 29.8066C106.154 29.9582 106.074 30.2145 106.074 30.5754V32.6437C106.074 32.7231 106.032 32.7628 105.948 32.7628H105.18C105.103 32.7628 105.064 32.7231 105.064 32.6437V28.8212C105.064 28.7346 105.103 28.6913 105.18 28.6913H105.232C105.436 28.6913 105.604 28.7382 105.737 28.832C105.87 28.9187 105.958 29.0486 106 29.2219Z" fill="#718480"/>
<path d="M102.987 27.6301C102.987 27.4568 103.04 27.316 103.145 27.2077C103.257 27.0922 103.394 27.0345 103.555 27.0345C103.716 27.0345 103.85 27.0922 103.955 27.2077C104.067 27.316 104.123 27.4568 104.123 27.6301C104.123 27.7961 104.067 27.9369 103.955 28.0524C103.85 28.1679 103.716 28.2256 103.555 28.2256C103.394 28.2256 103.257 28.1679 103.145 28.0524C103.04 27.9369 102.987 27.7961 102.987 27.6301ZM103.166 32.7628C103.096 32.7628 103.061 32.7231 103.061 32.6437V28.8212C103.061 28.7346 103.096 28.6912 103.166 28.6912H103.218C103.485 28.6912 103.692 28.7634 103.839 28.9078C103.986 29.0522 104.06 29.2868 104.06 29.6117V32.6437C104.06 32.7231 104.021 32.7628 103.944 32.7628H103.166Z" fill="#718480"/>
<path d="M102.386 31.7232C102.4 31.716 102.414 31.7052 102.428 31.6908C102.449 31.6763 102.47 31.6691 102.491 31.6691C102.533 31.6691 102.561 31.6872 102.575 31.7232C102.596 31.7521 102.606 31.7846 102.606 31.8207C102.606 31.9651 102.575 32.1203 102.512 32.2863C102.449 32.4451 102.344 32.5787 102.196 32.687C102.049 32.7953 101.846 32.8494 101.586 32.8494C101.257 32.8494 100.994 32.7375 100.797 32.5137C100.608 32.2899 100.513 31.9434 100.513 31.4742V26.8721C100.513 26.7854 100.548 26.7421 100.618 26.7421H100.671C100.944 26.7421 101.155 26.8143 101.302 26.9587C101.449 27.0959 101.523 27.3269 101.523 27.6517V31.3767C101.523 31.7521 101.653 31.9398 101.912 31.9398C102.017 31.9398 102.105 31.9218 102.175 31.8857C102.245 31.8496 102.315 31.7954 102.386 31.7232Z" fill="#718480"/>
<path d="M96.7652 29.2219C96.8984 29.0342 97.0667 28.8862 97.2701 28.7779C97.4805 28.6696 97.7084 28.6155 97.9538 28.6155C98.4517 28.6155 98.841 28.7671 99.1215 29.0703C99.409 29.3735 99.5528 29.8247 99.5528 30.4238V32.6437C99.5528 32.7231 99.5142 32.7628 99.437 32.7628H98.6586C98.5815 32.7628 98.5429 32.7231 98.5429 32.6437V30.5538C98.5429 30.2001 98.4623 29.9474 98.301 29.7958C98.1397 29.6442 97.9363 29.5684 97.6909 29.5684C97.4454 29.5684 97.2421 29.6478 97.0808 29.8066C96.9195 29.9582 96.8388 30.2145 96.8388 30.5754V32.6437C96.8388 32.7231 96.7967 32.7628 96.7126 32.7628H95.9447C95.8675 32.7628 95.829 32.7231 95.829 32.6437V28.8212C95.829 28.7346 95.8675 28.6913 95.9447 28.6913H95.9973C96.2007 28.6913 96.369 28.7382 96.5022 28.832C96.6354 28.9187 96.7231 29.0486 96.7652 29.2219Z" fill="#718480"/>
<path d="M92.1428 32.8711C91.2732 32.8711 90.6 32.5931 90.1231 32.0373C89.6463 31.4742 89.4078 30.7162 89.4078 29.7633C89.4078 29.128 89.5165 28.5758 89.7339 28.1065C89.9513 27.6373 90.2634 27.2763 90.6701 27.0237C91.0839 26.7638 91.5748 26.6339 92.1428 26.6339C92.7179 26.6339 93.2052 26.7638 93.605 27.0237C94.0117 27.2763 94.3238 27.6373 94.5412 28.1065C94.7586 28.5758 94.8673 29.128 94.8673 29.7633C94.8673 30.7162 94.6288 31.4742 94.152 32.0373C93.6821 32.5931 93.0124 32.8711 92.1428 32.8711ZM92.1428 31.864C92.4444 31.864 92.7214 31.8027 92.9738 31.6799C93.2263 31.55 93.4297 31.3334 93.5839 31.0302C93.7382 30.7198 93.8154 30.2975 93.8154 29.7633C93.8154 29.2291 93.7382 28.8068 93.5839 28.4964C93.4297 28.1859 93.2228 27.9658 92.9633 27.8358C92.7108 27.7059 92.4373 27.6409 92.1428 27.6409C91.8413 27.6409 91.5608 27.7059 91.3013 27.8358C91.0488 27.9658 90.8455 28.1859 90.6912 28.4964C90.5369 28.8068 90.4598 29.2291 90.4598 29.7633C90.4598 30.2975 90.5369 30.7198 90.6912 31.0302C90.8455 31.3334 91.0488 31.55 91.3013 31.6799C91.5608 31.8027 91.8413 31.864 92.1428 31.864Z" fill="#718480"/>
<path d="M87.7058 31.2805C87.92 31.2805 88.1043 31.3643 88.2586 31.5319C88.4129 31.6907 88.49 31.8849 88.49 32.1143C88.49 32.3348 88.4129 32.5289 88.2586 32.6966C88.1043 32.8554 87.92 32.9348 87.7058 32.9348C87.4915 32.9348 87.3072 32.8554 87.1529 32.6966C86.9986 32.5289 86.9215 32.3348 86.9215 32.1143C86.9215 31.8849 86.9986 31.6907 87.1529 31.5319C87.3072 31.3643 87.4915 31.2805 87.7058 31.2805Z" fill="#14C6A5"/>
<path d="M83.8251 31.4309V32.6437C83.8251 32.7231 83.79 32.7628 83.7199 32.7628H82.931C82.8679 32.7628 82.8363 32.7231 82.8363 32.6437V26.8721C82.8363 26.7854 82.8679 26.7421 82.931 26.7421H82.9836C83.2571 26.7421 83.4639 26.8143 83.6042 26.9587C83.7515 27.0959 83.8251 27.3269 83.8251 27.6517V30.1639L85.0558 28.832C85.119 28.7382 85.1926 28.6913 85.2767 28.6913H86.1604C86.1954 28.6913 86.2165 28.7093 86.2235 28.7454C86.2305 28.7743 86.227 28.7995 86.2129 28.8212L84.9717 30.1748L86.3707 32.6437C86.3848 32.6725 86.3848 32.7014 86.3707 32.7303C86.3567 32.752 86.3322 32.7628 86.2971 32.7628H85.4345C85.3223 32.7628 85.2487 32.7195 85.2136 32.6328L84.2774 30.9436L83.8251 31.4309Z" fill="#718480"/>
<path d="M80.1763 29.6333H79.482C79.4049 29.6333 79.3663 29.59 79.3663 29.5034V28.8212C79.3663 28.7346 79.4049 28.6913 79.482 28.6913H80.1763V27.381C80.1763 27.3016 80.2114 27.2619 80.2815 27.2619H80.3341C80.6076 27.2619 80.8145 27.3341 80.9547 27.4785C81.102 27.6229 81.1756 27.8539 81.1756 28.1715V28.6913H82.0277C82.0908 28.6913 82.1223 28.7346 82.1223 28.8212V29.5034C82.1223 29.59 82.0908 29.6333 82.0277 29.6333H81.1756V32.6437C81.1756 32.7231 81.1406 32.7628 81.0704 32.7628H80.2815C80.2114 32.7628 80.1763 32.7231 80.1763 32.6437V29.6333Z" fill="#718480"/>
<path d="M77.7371 32.2539C77.5968 32.4488 77.418 32.6004 77.2006 32.7087C76.9832 32.8097 76.7518 32.8603 76.5063 32.8603C76.1136 32.8603 75.7805 32.7628 75.507 32.5679C75.2405 32.373 75.0371 32.1131 74.8969 31.7882C74.7636 31.4634 74.697 31.1061 74.697 30.7162C74.697 30.312 74.7707 29.951 74.9179 29.6334C75.0652 29.3085 75.2756 29.0522 75.5491 28.8645C75.8296 28.6769 76.1557 28.583 76.5274 28.583C76.8359 28.583 77.0954 28.6408 77.3058 28.7563C77.5232 28.8718 77.695 29.0089 77.8212 29.1677C77.8773 29.0017 77.9685 28.8826 78.0947 28.8104C78.2279 28.731 78.3857 28.6913 78.5681 28.6913H78.6207C78.6978 28.6913 78.7364 28.7346 78.7364 28.8212V32.6437C78.7364 32.7231 78.6978 32.7628 78.6207 32.7628H77.8422C77.7721 32.7628 77.7371 32.7231 77.7371 32.6437V32.2539ZM76.7272 31.8857C76.8605 31.8857 77.0042 31.8568 77.1585 31.7991C77.3198 31.7341 77.4565 31.6186 77.5687 31.4526C77.6809 31.2865 77.7371 31.0411 77.7371 30.7162C77.7371 30.3914 77.6809 30.1495 77.5687 29.9907C77.4565 29.8247 77.3233 29.7164 77.169 29.6659C77.0147 29.6081 76.871 29.5792 76.7377 29.5792C76.5975 29.5792 76.4467 29.6117 76.2854 29.6767C76.1311 29.7417 75.9979 29.8572 75.8857 30.0232C75.7805 30.1892 75.7279 30.4202 75.7279 30.7162C75.7279 31.0266 75.784 31.2685 75.8962 31.4417C76.0154 31.6078 76.1522 31.7233 76.3064 31.7882C76.4607 31.8532 76.601 31.8857 76.7272 31.8857Z" fill="#718480"/>
<path d="M72.8679 32.2539C72.7277 32.4488 72.5488 32.6004 72.3314 32.7087C72.114 32.8097 71.8826 32.8603 71.6372 32.8603C71.2445 32.8603 70.9114 32.7628 70.6379 32.5679C70.3714 32.373 70.168 32.1131 70.0277 31.7882C69.8945 31.4634 69.8279 31.1061 69.8279 30.7162C69.8279 30.312 69.9015 29.951 70.0488 29.6334C70.1961 29.3085 70.4064 29.0522 70.6799 28.8645C70.9604 28.6769 71.2865 28.583 71.6582 28.583C71.9668 28.583 72.2262 28.6408 72.4366 28.7563C72.654 28.8718 72.8258 29.0089 72.9521 29.1677C73.0082 29.0017 73.0993 28.8826 73.2256 28.8104C73.3588 28.731 73.5166 28.6913 73.6989 28.6913H73.7515C73.8287 28.6913 73.8672 28.7346 73.8672 28.8212V32.6437C73.8672 32.7231 73.8287 32.7628 73.7515 32.7628H72.9731C72.903 32.7628 72.8679 32.7231 72.8679 32.6437V32.2539ZM71.8581 31.8857C71.9913 31.8857 72.1351 31.8568 72.2894 31.7991C72.4507 31.7341 72.5874 31.6186 72.6996 31.4526C72.8118 31.2865 72.8679 31.0411 72.8679 30.7162C72.8679 30.3914 72.8118 30.1495 72.6996 29.9907C72.5874 29.8247 72.4542 29.7164 72.2999 29.6659C72.1456 29.6081 72.0018 29.5792 71.8686 29.5792C71.7283 29.5792 71.5776 29.6117 71.4163 29.6767C71.262 29.7417 71.1287 29.8572 71.0165 30.0232C70.9114 30.1892 70.8588 30.4202 70.8588 30.7162C70.8588 31.0266 70.9149 31.2685 71.0271 31.4417C71.1463 31.6078 71.283 31.7233 71.4373 31.7882C71.5916 31.8532 71.7318 31.8857 71.8581 31.8857Z" fill="#718480"/>
<path d="M65.941 32.8494C65.1906 32.7628 64.6086 32.4488 64.1948 31.9073C63.7881 31.3587 63.5847 30.644 63.5847 29.7633C63.5847 29.128 63.6934 28.5758 63.9108 28.1065C64.1282 27.6373 64.4403 27.2763 64.847 27.0237C65.2608 26.7638 65.7517 26.6339 66.3197 26.6339C66.8947 26.6339 67.3821 26.7638 67.7819 27.0237C68.1886 27.2763 68.5007 27.6373 68.7181 28.1065C68.9354 28.5758 69.0441 29.128 69.0441 29.7633C69.0441 30.5502 68.8829 31.2035 68.5603 31.7233C68.2447 32.2358 67.7854 32.5715 67.1823 32.7303C67.2594 32.8458 67.3576 32.936 67.4768 33.001C67.596 33.0732 67.7433 33.1093 67.9186 33.1093C68.1711 33.1093 68.42 33.0082 68.6655 32.8061C68.7005 32.7772 68.7356 32.7628 68.7706 32.7628C68.8478 32.7628 68.8864 32.8278 68.8864 32.9577C68.8864 33.1093 68.8338 33.2645 68.7286 33.4233C68.6304 33.5822 68.4866 33.7157 68.2973 33.824C68.1079 33.9395 67.88 33.9972 67.6135 33.9972C67.1858 33.9972 66.8386 33.8926 66.5722 33.6832C66.3057 33.4739 66.0953 33.1959 65.941 32.8494ZM66.3197 31.864C66.6212 31.864 66.8982 31.8027 67.1507 31.6799C67.4032 31.55 67.603 31.3334 67.7503 31.0302C67.9046 30.7198 67.9817 30.2975 67.9817 29.7633C67.9817 29.2219 67.9046 28.7996 67.7503 28.4964C67.596 28.1859 67.3926 27.9694 67.1402 27.8466C66.8877 27.7167 66.6142 27.6517 66.3197 27.6517C66.0252 27.6517 65.7482 27.7167 65.4887 27.8466C65.2362 27.9694 65.0293 28.1859 64.8681 28.4964C64.7138 28.7996 64.6366 29.2219 64.6366 29.7633C64.6366 30.2975 64.7138 30.7198 64.8681 31.0302C65.0293 31.3334 65.2362 31.55 65.4887 31.6799C65.7482 31.8027 66.0252 31.864 66.3197 31.864Z" fill="#718480"/>
</svg>
