<svg width="244" height="52" viewBox="0 0 244 52" fill="none" xmlns="http://www.w3.org/2000/svg">
  <g clip-path="url(#clip0_154_5101)">
    <path
      d="M234.593 17.2568C234.593 17.6993 234.434 18.0772 234.114 18.3937C233.813 18.6941 233.457 18.8524 233.049 18.8685C233.023 18.8685 233 18.8685 232.975 18.8685C232.531 18.8685 232.156 18.7135 231.845 18.3937C231.615 18.1612 231.47 17.8931 231.412 17.596C231.386 17.4894 231.376 17.3764 231.376 17.2568C231.376 16.8176 231.531 16.4429 231.842 16.1296C232.153 15.8196 232.528 15.6646 232.968 15.6646C233.408 15.6646 233.787 15.8196 234.107 16.1296C234.428 16.4397 234.586 16.8176 234.586 17.2536L234.593 17.2568Z"
      fill="url(#paint0_linear_154_5101)" />
    <path
      d="M238.512 17.2569C238.512 17.6962 238.353 18.0741 238.033 18.3938C237.715 18.7136 237.334 18.8718 236.894 18.8718C236.453 18.8718 236.078 18.7136 235.767 18.3938C235.457 18.0773 235.301 17.6962 235.301 17.2569C235.301 16.8177 235.457 16.443 235.767 16.1329C236.078 15.8229 236.453 15.6678 236.894 15.6678C237.334 15.6678 237.712 15.8229 238.033 16.1329C238.353 16.443 238.512 16.8177 238.512 17.2569Z"
      fill="url(#paint1_linear_154_5101)" />
    <path
      d="M244 40.8022V41.2091C244 43.2375 242.346 44.8879 240.314 44.8879H235.398C235.356 44.9428 235.308 45.0106 235.259 45.0785C232.233 49.2062 227.373 51.6705 222.26 51.6705C218.668 51.6705 215.347 50.4949 212.665 48.5053C212.36 48.2792 212.059 48.0402 211.771 47.7915C210.15 46.4027 208.807 44.6973 207.84 42.7724C207.733 42.5624 207.632 42.3525 207.539 42.1361C207.234 41.4611 206.976 40.7634 206.768 40.0432V40.0367C206.361 38.6253 206.141 37.1299 206.141 35.5893V16.0909C206.141 14.1013 206.5 12.1634 207.209 10.3192C207.662 9.15647 208.247 8.04541 208.953 7.01833C211.966 2.62578 216.94 0.00317383 222.26 0.00317383C229.389 0.00317383 235.754 4.77684 237.741 11.6144C237.806 11.8404 237.838 12.0665 237.838 12.2958C237.838 13.6459 236.741 14.7376 235.392 14.7376C234.311 14.7376 233.343 14.0109 233.039 12.9709C231.654 8.21336 227.221 4.88988 222.256 4.88988C219.467 4.88988 216.791 5.92342 214.723 7.79671C213.804 8.62678 213.034 9.59249 212.438 10.668C211.516 12.3185 211.03 14.195 211.03 16.0941V35.5925C211.03 35.7572 211.03 35.9219 211.04 36.0834C211.04 36.0834 211.04 36.0834 211.04 36.0899C211.137 38.3443 211.907 40.4275 213.153 42.1458C213.441 42.5463 213.755 42.9242 214.095 43.2827C216.14 45.4467 219.043 46.7999 222.256 46.7999C224.596 46.7999 226.881 46.0603 228.777 44.7103C227.208 44.2419 225.981 43.4732 224.693 42.4591C223.891 41.8325 223.159 41.1058 222.525 40.2951C220.716 38.0052 219.719 35.1468 219.719 32.2464C219.719 27.2693 222.538 23.1771 226.667 20.9937C228.483 20.0312 230.308 19.4886 232.502 19.4886H238.376V39.6071H233.483V23.9264H232.499C231.813 23.9264 231.392 24.0071 230.751 24.1622C226.978 25.0601 224.163 28.2124 224.163 32.2464C224.163 35.6635 226.201 38.7319 229.305 40.0884C229.505 40.1788 229.713 40.2596 229.923 40.3339C229.942 40.3403 229.965 40.3468 229.988 40.3565C230.852 40.6504 231.505 40.8054 232.428 40.8119H243.993L244 40.8022Z"
      fill="url(#paint2_linear_154_5101)" />
    <path
      d="M26.6009 30.1116C29.1607 30.1116 31.1185 29.4979 32.468 28.2674C33.8207 27.0368 34.4938 25.3218 34.4938 23.1223C34.4938 21.1811 34.1378 17.7737 33.4259 12.8999H28.9438C29.6558 17.7026 30.0117 20.8614 30.0117 22.3762C30.0117 23.4646 29.7626 24.2462 29.2642 24.7178C28.7658 25.1926 27.8759 25.4284 26.5976 25.4284H23.6819C21.5008 25.4284 20.3034 24.6952 20.0898 23.2288L20.0542 23.0157C20.0316 22.6604 19.9701 22.0693 19.8762 21.2425C19.5688 18.8298 19.2581 16.5819 18.9507 14.4987H14.4687C15.3942 20.7225 15.857 24.7081 15.857 26.4619C15.857 30.8641 13.7826 33.0636 9.63392 33.0636C7.7861 33.0636 6.41398 32.5243 5.52729 31.4487C4.63736 30.3732 4.19401 28.9101 4.19401 27.0659C4.19401 25.0311 4.70208 22.6765 5.72469 20.0023H1.56628C0.996724 21.6818 0.592209 23.0609 0.355973 24.1364C0.119736 25.212 0 26.4748 0 27.9153C0 31.1096 0.812265 33.5481 2.4368 35.2276C4.06133 36.9071 6.40104 37.7469 9.45917 37.7469C12.0416 37.7469 14.1936 37.172 15.9152 36.0254C17.6336 34.8788 18.8374 33.2639 19.5235 31.1806C19.8309 30.3054 20.0316 29.4301 20.1286 28.5548L20.4134 28.9101C21.0768 29.7143 22.1674 30.118 23.6851 30.118H26.6009V30.1116Z"
      fill="white" />
    <path
      d="M62.4507 12.8967C63.1626 17.6994 63.5186 20.8581 63.5186 22.3729C63.5186 23.4614 63.2629 24.243 62.7548 24.7145C62.2435 25.1893 61.3504 25.4251 60.0689 25.4251C58.7874 25.4251 57.9007 25.1893 57.4023 24.7145C56.9039 24.243 56.6548 23.4614 56.6548 22.3729V4.37964H52.1727V23.1222C52.1727 23.6907 52.2083 24.2236 52.2795 24.721C51.4252 24.9116 50.5482 25.0537 49.6486 25.1473C48.9593 25.241 48.4027 25.3024 47.9787 25.325V24.6855C48.0014 24.046 47.9787 23.442 47.9075 22.8768C47.694 21.2199 46.7458 16.5367 45.063 8.82063H40.4386C42.4288 17.4119 43.4967 22.2147 43.6391 23.2321C43.7588 23.8942 43.8268 24.5692 43.8527 25.2539V25.4316C43.1634 25.409 42.1343 25.325 40.759 25.1829C39.2186 24.9923 37.8659 24.7339 36.7041 24.4013V28.9101C39.1215 29.7143 41.979 30.118 45.2733 30.118C47.6907 30.118 50.1825 29.6465 52.7423 28.6969C53.3572 28.4611 53.7973 28.2835 54.0594 28.164L54.1662 28.235C55.493 29.4882 57.4606 30.1148 60.0689 30.1148C62.6286 30.1148 64.5865 29.5011 65.936 28.2706C67.2886 27.04 67.9618 25.325 67.9618 23.1255C67.9618 21.2102 67.6058 17.8027 66.8938 12.9031H62.4474L62.4507 12.8967Z"
      fill="white" />
    <path
      d="M84.7668 14.8313C83.4044 13.3747 81.5954 12.6479 79.3431 12.6479C77.0907 12.6479 75.0229 13.5103 73.421 15.2383C71.8191 16.9662 71.0198 19.1076 71.0198 21.6624C71.0198 24.2171 71.7252 26.2358 73.1362 27.7861C74.5471 29.3364 76.4273 30.1116 78.7735 30.1116C79.699 30.1116 80.5857 29.9565 81.4401 29.6497C81.8899 29.485 82.4012 29.2718 82.9708 29.0102C82.8996 30.4055 82.152 31.5294 80.7314 32.3821C79.2622 33.2574 77.0325 33.6966 74.0455 33.6966V37.7436C82.864 37.7436 87.2748 34.643 87.2748 28.445C87.2521 25.3702 87.1809 22.8832 87.0612 20.9906C86.8962 18.3421 86.1292 16.2879 84.7668 14.8313ZM82.864 24.9665C82.4594 25.086 82.1164 25.1796 81.8316 25.2507C80.9547 25.4412 80.0874 25.5349 79.2363 25.5349C76.628 25.5349 75.3238 24.2107 75.3238 21.559C75.3238 20.3511 75.6798 19.3369 76.3917 18.5068C77.1037 17.68 77.9807 17.2634 79.0227 17.2634C81.275 17.2634 82.4853 18.6231 82.6504 21.3458L82.864 24.6467V24.9665Z"
      fill="white" />
    <path d="M96.378 4.37964H91.896V30.1116H96.378V4.37964Z" fill="white" />
    <path
      d="M125.613 18.0094L126.645 14.6375H123.338C121.869 14.6375 121.134 14.2693 121.134 13.5362C121.134 13.2067 121.277 12.9322 121.562 12.719C121.846 12.5058 122.225 12.3993 122.701 12.3993C123.413 12.3993 124.254 12.564 125.225 12.8966V9.84448C124.205 9.34708 123.316 9.09839 122.558 9.09839C121.303 9.09839 120.299 9.45367 119.552 10.1642C118.804 10.8748 118.432 11.7501 118.432 12.7901C118.432 13.5717 118.668 14.2209 119.144 14.7409L119.18 14.7764C118.895 14.8248 118.61 14.8959 118.325 14.9896L117.222 15.3448V18.6102C118.503 18.2097 119.759 18.0062 120.992 18.0062H125.616L125.613 18.0094Z"
      fill="white" />
    <path
      d="M163.948 24.8954L164.019 24.8599C162.1 25.002 160.534 24.6047 159.324 23.6713C158.113 22.7379 157.512 21.6527 157.512 20.4221C157.512 19.3563 157.913 18.5068 158.722 17.8673C159.528 17.2278 160.605 16.9081 161.958 16.9081C163.427 16.9081 165.301 17.2504 167.576 17.9384V13.7849C165.158 12.8385 163.094 12.3637 161.388 12.3637C159.016 12.3637 157.055 13.0872 155.502 14.5277C153.949 15.9714 153.172 17.7704 153.172 19.9215C153.172 22.1921 154.036 24.0169 155.767 25.3863C154.936 25.409 153.586 25.4219 151.712 25.4219C150.881 25.4219 149.981 25.2798 149.01 24.9955C148.347 24.7824 147.622 24.4529 146.842 24.0008C146.962 23.5518 147.078 22.9349 147.198 22.1565C147.389 20.5222 147.483 18.7975 147.483 16.9727H143.321C143.321 18.8654 143.269 20.322 143.163 21.3394C143.056 22.3568 142.8 23.1836 142.399 23.8231C141.735 24.889 140.396 25.4219 138.38 25.4219C137.098 25.4219 136.211 25.1861 135.713 24.7113C135.215 24.2398 134.965 23.4581 134.965 22.3697V4.37964H130.483V23.1222C130.483 23.5486 130.496 23.8683 130.519 24.0815C128.529 24.9826 125.681 25.4316 121.982 25.4316H118.319C116.044 25.4316 114.465 25.0311 113.588 24.2236C112.711 23.4194 112.271 22.0952 112.271 20.2477C112.271 19.3724 112.449 18.0708 112.805 16.3429H108.607C108.18 18.3292 107.967 20.0475 107.967 21.4912C107.967 24.285 108.759 26.4199 110.348 27.8991C111.937 29.3784 114.248 30.118 117.283 30.118H122.228C124.458 30.0696 126.39 29.8112 128.024 29.3364C129.306 28.9811 130.574 28.403 131.83 27.5955C131.995 27.8087 132.208 28.0219 132.47 28.235C133.797 29.4882 135.765 30.1148 138.373 30.1148C140.389 30.1148 142.014 29.7854 143.247 29.12C144.124 28.6485 144.836 28.0542 145.379 27.3468C146.065 27.9863 146.861 28.5645 147.761 29.0877C149.065 29.7757 150.382 30.118 151.709 30.118C157.848 30.118 163.764 29.6109 169.456 28.5903L170.382 23.9394C168.508 24.2721 166.99 24.5078 165.828 24.6499L163.945 24.8986L163.948 24.8954Z"
      fill="white" />
    <path
      d="M196.827 14.6731C195.296 13.0872 193.384 12.2959 191.083 12.2959C188.782 12.2959 186.779 13.042 185.216 14.5309C183.65 16.0231 182.87 17.8673 182.87 20.0668C182.87 21.6527 183.404 23.1901 184.472 24.6822L184.97 25.4283H181.698C180.417 25.4283 179.53 25.1926 179.032 24.7178C178.533 24.2462 178.284 23.4646 178.284 22.3762V4.37964H173.802V23.1222C173.802 25.3218 174.478 27.04 175.828 28.2673C177.181 29.4979 179.135 30.1116 181.695 30.1116H189.662C192.53 30.1116 194.824 29.2427 196.546 27.5019C198.264 25.761 199.125 23.4614 199.125 20.5965C199.125 18.2323 198.361 16.2557 196.83 14.6698L196.827 14.6731ZM193.29 24.201C192.413 25.0181 191.229 25.4251 189.734 25.4251H189.271C189.177 25.2345 188.879 24.7275 188.381 23.8974C187.549 22.6668 187.135 21.601 187.135 20.7031C187.135 19.6147 187.484 18.6974 188.183 17.9513C188.882 17.2052 189.789 16.8338 190.905 16.8338C192.021 16.8338 192.856 17.2181 193.555 17.9868C194.254 18.7555 194.604 19.7083 194.604 20.8452C194.604 22.2663 194.164 23.3839 193.287 24.201H193.29Z"
      fill="white" />
    <path
      d="M190.714 6.27226C190.714 7.01189 190.449 7.6417 189.915 8.17462C189.41 8.67847 188.818 8.94332 188.135 8.96593C188.093 8.96916 188.054 8.96916 188.012 8.96916C187.271 8.96916 186.643 8.70754 186.125 8.17462C185.743 7.78381 185.501 7.3381 185.4 6.83748C185.358 6.65661 185.342 6.46928 185.342 6.27226C185.342 5.53909 185.601 4.90928 186.122 4.38928C186.64 3.87251 187.268 3.6109 188.009 3.60767C188.743 3.60767 189.378 3.86928 189.912 4.38605C190.446 4.90605 190.714 5.53263 190.714 6.26903V6.27226Z"
      fill="white" />
    <path
      d="M197.267 6.2691C197.267 7.0055 197.002 7.63854 196.468 8.17146C195.934 8.70438 195.3 8.96922 194.565 8.97245C193.827 8.97245 193.199 8.70761 192.678 8.17469C192.157 7.64177 191.898 7.00873 191.895 6.27556C191.895 5.54239 192.154 4.91258 192.675 4.39258C193.196 3.87258 193.824 3.61419 194.562 3.61096C195.296 3.61096 195.934 3.86935 196.468 4.38935C197.002 4.90935 197.267 5.53593 197.27 6.2691H197.267Z"
      fill="white" />
    <path
      d="M144.532 9.56352C144.532 10.3031 144.266 10.933 143.732 11.4659C143.227 11.9697 142.635 12.2346 141.952 12.2572C141.91 12.2604 141.871 12.2604 141.829 12.2604C141.088 12.2604 140.46 11.9988 139.943 11.4659C139.561 11.0751 139.318 10.6294 139.218 10.1287C139.176 9.94787 139.16 9.76054 139.16 9.56352C139.16 8.83035 139.418 8.20054 139.939 7.68054C140.457 7.16377 141.085 6.90216 141.826 6.89893C142.561 6.89893 143.195 7.16054 143.729 7.67731C144.263 8.19731 144.532 8.82389 144.532 9.56029V9.56352Z"
      fill="white" />
    <path
      d="M151.081 9.56024C151.081 10.2966 150.816 10.9297 150.282 11.4626C149.748 11.9955 149.114 12.2604 148.379 12.2636C147.641 12.2636 147.014 11.9987 146.492 11.4658C145.971 10.9329 145.713 10.2999 145.709 9.5667C145.709 8.83353 145.968 8.20371 146.489 7.68371C147.01 7.16371 147.638 6.90533 148.376 6.9021C149.111 6.9021 149.748 7.16048 150.282 7.68048C150.816 8.20048 151.081 8.82707 151.085 9.56024H151.081Z"
      fill="white" />
    <path
      d="M28.083 36.2321C28.083 36.9717 27.8177 37.6015 27.2837 38.1345C26.7789 38.6383 26.1866 38.9032 25.5038 38.9258C25.4618 38.929 25.4229 38.929 25.3809 38.929C24.6398 38.929 24.012 38.6674 23.4942 38.1345C23.1123 37.7437 22.8696 37.2979 22.7693 36.7973C22.7272 36.6164 22.7111 36.4291 22.7111 36.2321C22.7111 35.4989 22.9699 34.8691 23.491 34.3491C24.0087 33.8323 24.6365 33.5707 25.3776 33.5675C26.1122 33.5675 26.7465 33.8291 27.2805 34.3459C27.8144 34.8659 28.083 35.4925 28.083 36.2289V36.2321Z"
      fill="white" />
    <path
      d="M34.6329 36.2288C34.6329 36.9652 34.3676 37.5983 33.8336 38.1312C33.2997 38.6641 32.6654 38.9289 31.9308 38.9322C31.1929 38.9322 30.5651 38.6673 30.0441 38.1344C29.5231 37.6015 29.2642 36.9684 29.261 36.2353C29.261 35.5021 29.5199 34.8723 30.0409 34.3523C30.5619 33.8323 31.1897 33.5739 31.9275 33.5707C32.6621 33.5707 33.2997 33.8291 33.8336 34.3491C34.3676 34.8691 34.6329 35.4956 34.6362 36.2288H34.6329Z"
      fill="white" />
    <path
      d="M67.2919 7.91302C67.2919 8.64942 67.0265 9.28246 66.4926 9.81538C65.9586 10.3483 65.3243 10.6131 64.5897 10.6164C63.8519 10.6164 63.2241 10.3515 62.7031 9.81861C62.182 9.28569 61.9232 8.65265 61.9199 7.91948C61.9199 7.18631 62.1788 6.5565 62.6998 6.0365C63.2208 5.5165 63.8486 5.25811 64.5865 5.25488C65.3211 5.25488 65.9586 5.51327 66.4926 6.03327C67.0265 6.55327 67.2919 7.17985 67.2951 7.91302H67.2919Z"
      fill="white" />
    <path
      d="M11.2131 12.8547C11.2131 13.5911 10.9478 14.2241 10.4138 14.757C9.87986 15.2899 9.24558 15.5548 8.51098 15.558C7.77315 15.558 7.14534 15.2932 6.62433 14.7603C6.10331 14.2273 5.84442 13.5943 5.84119 12.8611C5.84119 12.128 6.10008 11.4981 6.62109 10.9781C7.14211 10.4581 7.76991 10.1998 8.50775 10.1965C9.24235 10.1965 9.87986 10.4549 10.4138 10.9749C10.9478 11.4949 11.2131 12.1215 11.2164 12.8547H11.2131Z"
      fill="white" />
    <path
      d="M112.775 38.8094C113.604 38.8094 114.319 38.9547 114.911 39.2486C115.507 39.5393 115.992 39.9237 116.377 40.3985C116.759 40.8732 117.041 41.3997 117.219 41.9811C117.397 42.5592 117.487 43.1373 117.487 43.7122C117.487 44.2387 117.403 44.7845 117.238 45.3433C117.073 45.9021 116.824 46.435 116.494 46.9388C116.164 47.4427 115.746 47.8787 115.241 48.2534C114.737 48.6248 114.151 48.8832 113.481 49.0221V49.035C113.746 49.035 113.989 49.0511 114.209 49.0834C114.429 49.1157 114.659 49.1932 114.895 49.316C115.131 49.4387 115.4 49.6422 115.701 49.9232C116.096 50.2914 116.416 50.5821 116.662 50.7984C116.908 51.0148 117.102 51.1763 117.241 51.2797C117.38 51.383 117.507 51.4509 117.617 51.4832C117.724 51.5155 117.84 51.5316 117.963 51.5316V51.9967H117.51C117.17 51.9967 116.882 51.9838 116.646 51.9612C116.41 51.9386 116.183 51.8707 115.966 51.7642C115.749 51.6544 115.494 51.4702 115.203 51.2054C114.853 50.8857 114.555 50.5982 114.313 50.343C114.067 50.0879 113.847 49.8715 113.656 49.6939C113.465 49.5162 113.264 49.3773 113.06 49.2837C112.856 49.19 112.614 49.1416 112.332 49.1416C111.5 49.1416 110.789 48.9962 110.196 48.712C109.601 48.4245 109.115 48.0466 108.73 47.5751C108.348 47.1035 108.067 46.5835 107.889 46.0151C107.711 45.4466 107.62 44.875 107.62 44.3001C107.62 43.5766 107.74 42.8822 107.983 42.2233C108.222 41.5644 108.569 40.9798 109.022 40.4663C109.475 39.9527 110.018 39.549 110.649 39.2519C111.28 38.9547 111.989 38.8062 112.772 38.8062L112.775 38.8094ZM112.704 39.3746C112.109 39.3746 111.585 39.5103 111.125 39.7848C110.669 40.0593 110.28 40.4211 109.967 40.8732C109.649 41.3254 109.407 41.8228 109.238 42.3622C109.07 42.9048 108.983 43.4474 108.983 43.9932C108.973 44.4745 109.031 44.9783 109.151 45.5112C109.274 46.0442 109.468 46.5416 109.737 47.0002C110.005 47.4621 110.358 47.8367 110.798 48.1306C111.238 48.4213 111.772 48.5699 112.403 48.5699C113.034 48.5699 113.555 48.4342 114.015 48.1597C114.478 47.8852 114.863 47.5234 115.177 47.0648C115.487 46.6094 115.724 46.1055 115.885 45.5597C116.047 45.0139 116.125 44.4712 116.125 43.9351C116.125 43.3989 116.05 42.8305 115.905 42.2911C115.759 41.7485 115.542 41.2608 115.254 40.8216C114.966 40.3823 114.61 40.0335 114.186 39.7686C113.763 39.5038 113.267 39.3746 112.701 39.3746H112.704Z"
      fill="#999999" />
    <path
      d="M122.736 41.7065C123.018 41.7065 123.332 41.7292 123.668 41.7711C124.008 41.8131 124.328 41.8713 124.629 41.9488C124.555 42.514 124.48 43.076 124.409 43.638C124.338 44.1967 124.273 44.7296 124.212 45.2335C124.15 45.7373 124.102 46.1895 124.063 46.59C124.024 46.9905 124.008 47.3038 124.008 47.5299C124.008 47.7172 124.021 47.9078 124.05 48.0951C124.079 48.2824 124.196 48.3761 124.403 48.3761C124.565 48.3761 124.739 48.2728 124.933 48.066C125.128 47.8593 125.296 47.5073 125.435 47.0067L125.83 47.0906C125.801 47.2586 125.743 47.4556 125.652 47.6752C125.561 47.8981 125.442 48.1145 125.289 48.3309C125.137 48.5473 124.956 48.7249 124.736 48.867C124.519 49.0092 124.27 49.0802 123.985 49.0802C123.607 49.0802 123.338 48.9639 123.18 48.7282C123.018 48.4924 122.94 48.1855 122.94 47.8109C122.94 47.5364 122.966 47.2424 123.018 46.9227C123.069 46.6029 123.128 46.267 123.196 45.9214H123.154C122.927 46.6191 122.694 47.1778 122.455 47.5945C122.215 48.0144 121.972 48.3309 121.733 48.5473C121.493 48.7637 121.257 48.909 121.034 48.9769C120.807 49.0479 120.594 49.0834 120.396 49.0834C119.888 49.0834 119.461 48.8961 119.115 48.5182C118.772 48.1403 118.597 47.5105 118.597 46.6255C118.597 45.9667 118.681 45.3401 118.853 44.7458C119.021 44.1515 119.28 43.6283 119.623 43.1696C119.966 42.7142 120.4 42.3557 120.917 42.0973C121.435 41.839 122.04 41.7098 122.73 41.7098L122.736 41.7065ZM122.296 42.2136C121.872 42.2136 121.5 42.3299 121.186 42.5657C120.869 42.8014 120.607 43.118 120.4 43.5185C120.193 43.919 120.037 44.3647 119.94 44.8588C119.84 45.353 119.791 45.8601 119.791 46.3769C119.791 46.9808 119.856 47.475 119.989 47.8658C120.121 48.2566 120.361 48.4536 120.71 48.4536C120.966 48.4536 121.222 48.3277 121.481 48.0725C121.739 47.8173 121.982 47.4782 122.209 47.0487C122.435 46.6191 122.639 46.1411 122.817 45.6082C122.995 45.0752 123.137 44.5326 123.241 43.9771C123.345 43.4216 123.396 42.8887 123.396 42.3816C123.254 42.3267 123.089 42.2814 122.901 42.2556C122.714 42.2265 122.51 42.2136 122.293 42.2136H122.296Z"
      fill="#999999" />
    <path
      d="M130.49 41.7065C130.771 41.7065 131.085 41.7292 131.422 41.7711C131.762 41.8131 132.082 41.8713 132.383 41.9488C132.309 42.514 132.234 43.076 132.163 43.638C132.092 44.1967 132.027 44.7296 131.966 45.2335C131.904 45.7373 131.856 46.1895 131.817 46.59C131.778 46.9905 131.762 47.3038 131.762 47.5299C131.762 47.7172 131.775 47.9078 131.804 48.0951C131.833 48.2824 131.949 48.3761 132.157 48.3761C132.318 48.3761 132.493 48.2728 132.687 48.066C132.881 47.8593 133.05 47.5073 133.189 47.0067L133.584 47.0906C133.555 47.2586 133.496 47.4556 133.406 47.6752C133.315 47.8981 133.195 48.1145 133.043 48.3309C132.891 48.5473 132.71 48.7249 132.49 48.867C132.273 49.0092 132.024 49.0802 131.739 49.0802C131.36 49.0802 131.092 48.9639 130.933 48.7282C130.771 48.4924 130.694 48.1855 130.694 47.8109C130.694 47.5364 130.72 47.2424 130.771 46.9227C130.823 46.6029 130.882 46.267 130.949 45.9214H130.907C130.681 46.6191 130.448 47.1778 130.208 47.5945C129.969 48.0144 129.726 48.3309 129.487 48.5473C129.247 48.7637 129.011 48.909 128.788 48.9769C128.561 49.0479 128.348 49.0834 128.15 49.0834C127.642 49.0834 127.215 48.8961 126.869 48.5182C126.526 48.1403 126.351 47.5105 126.351 46.6255C126.351 45.9667 126.435 45.3401 126.607 44.7458C126.775 44.1515 127.034 43.6283 127.377 43.1696C127.72 42.7142 128.153 42.3557 128.671 42.0973C129.189 41.839 129.794 41.7098 130.483 41.7098L130.49 41.7065ZM130.05 42.2136C129.626 42.2136 129.254 42.3299 128.94 42.5657C128.623 42.8014 128.361 43.118 128.153 43.5185C127.946 43.919 127.791 44.3647 127.694 44.8588C127.594 45.353 127.545 45.8601 127.545 46.3769C127.545 46.9808 127.61 47.475 127.742 47.8658C127.875 48.2566 128.115 48.4536 128.464 48.4536C128.72 48.4536 128.975 48.3277 129.234 48.0725C129.493 47.8173 129.736 47.4782 129.962 47.0487C130.189 46.6191 130.393 46.1411 130.571 45.6082C130.749 45.0752 130.891 44.5326 130.995 43.9771C131.098 43.4216 131.15 42.8887 131.15 42.3816C131.008 42.3267 130.843 42.2814 130.655 42.2556C130.467 42.2265 130.263 42.2136 130.047 42.2136H130.05Z"
      fill="#999999" />
    <path
      d="M136.658 39.8688L136.402 41.8616H138.651L138.609 42.3978L136.347 42.4268C136.308 42.8209 136.263 43.2311 136.211 43.6477C136.16 44.0676 136.114 44.4842 136.075 44.8976C136.037 45.3111 136.004 45.7083 135.975 46.0895C135.946 46.4706 135.933 46.8162 135.933 47.1262C135.933 47.3039 135.946 47.4912 135.969 47.685C135.991 47.8788 136.05 48.037 136.147 48.1662C136.241 48.2922 136.393 48.3568 136.6 48.3568C136.694 48.3568 136.81 48.3374 136.946 48.3019C137.082 48.2631 137.237 48.1759 137.406 48.0338C137.574 47.8917 137.749 47.6721 137.93 47.3685L138.299 47.6075C138.024 48.0887 137.729 48.4537 137.415 48.7024C137.098 48.9511 136.713 49.077 136.263 49.077C135.894 49.077 135.606 48.9995 135.393 48.8445C135.179 48.6895 135.027 48.4827 134.933 48.2308C134.839 47.9789 134.791 47.7044 134.791 47.4104C134.791 47.0519 134.804 46.6159 134.833 46.1056C134.862 45.5921 134.904 45.0236 134.959 44.397C135.014 43.7704 135.082 43.118 135.156 42.4398L133.898 42.4527L133.94 41.8584C134.59 41.8584 135.072 41.684 135.383 41.3352C135.694 40.9863 135.94 40.4986 136.118 39.8656H136.655L136.658 39.8688Z"
      fill="#999999" />
    <path
      d="M144.172 49.077C143.813 49.077 143.515 48.9316 143.273 48.6409C143.033 48.3503 142.79 47.8787 142.545 47.2295C142.367 46.758 142.205 46.4188 142.062 46.2121C141.92 46.0054 141.713 45.8956 141.441 45.8859C141.376 45.8859 141.315 45.8859 141.257 45.8924C141.202 45.8988 141.137 45.8988 141.072 45.8988C140.969 46.2864 140.884 46.674 140.823 47.0648C140.761 47.4556 140.732 47.8238 140.732 48.1726C140.732 48.3147 140.732 48.4439 140.739 48.5602C140.742 48.6797 140.752 48.7992 140.761 48.9219H139.603C139.593 48.8573 139.59 48.796 139.59 48.7443V48.5537C139.59 48.2889 139.603 47.8981 139.632 47.3749C139.661 46.8516 139.697 46.2573 139.745 45.5888C139.794 44.9202 139.846 44.2322 139.901 43.5281C139.956 42.8208 140.02 42.1522 140.092 41.516C140.163 40.8797 140.231 40.3403 140.295 39.8978C140.334 39.6524 140.36 39.4973 140.373 39.4327C140.386 39.3681 140.402 39.2713 140.422 39.1517C140.26 39.1614 140.095 39.1711 139.927 39.1808C139.758 39.1905 139.59 39.2002 139.431 39.2099L139.486 38.6447C139.901 38.6447 140.224 38.6253 140.454 38.5898C140.684 38.551 140.859 38.5058 140.972 38.4476C141.085 38.3927 141.179 38.3314 141.253 38.2635H141.664C141.616 38.4993 141.574 38.7609 141.528 39.0549C141.486 39.3455 141.444 39.633 141.409 39.9172C141.37 40.1982 141.337 40.4501 141.308 40.6665C141.224 41.3254 141.147 42.0134 141.075 42.7271C141.004 43.4409 140.946 44.1547 140.897 44.8588H140.939C141.221 44.0223 141.512 43.3763 141.81 42.9242C142.108 42.472 142.415 42.1555 142.735 41.9778C143.056 41.8002 143.383 41.7098 143.713 41.7098C144.043 41.7098 144.308 41.784 144.506 41.9294C144.703 42.0747 144.849 42.2653 144.946 42.5011C145.04 42.7368 145.088 42.9823 145.088 43.2342C145.088 43.5637 144.988 43.906 144.79 44.2645C144.593 44.6231 144.292 44.9396 143.891 45.2173C143.489 45.4951 142.978 45.6921 142.357 45.8052V45.8181C142.687 45.8278 142.939 45.9053 143.114 46.0506C143.289 46.196 143.451 46.4479 143.603 46.8064C143.706 47.0228 143.807 47.2457 143.907 47.4717C144.007 47.6978 144.111 47.8852 144.224 48.037C144.337 48.1888 144.46 48.2727 144.593 48.2921C144.755 48.3018 144.891 48.2437 145.004 48.1242C145.117 48.0014 145.218 47.7657 145.302 47.4168L145.697 47.4879C145.642 47.7527 145.548 48.0047 145.421 48.2501C145.295 48.4956 145.127 48.6958 144.92 48.8509C144.713 49.0059 144.464 49.0834 144.169 49.0834L144.172 49.077ZM141.185 45.4886C142.082 45.4886 142.765 45.2949 143.237 44.9105C143.71 44.5262 143.946 43.9739 143.946 43.2568C143.946 43.1341 143.933 43.0017 143.904 42.8628C143.875 42.7207 143.813 42.598 143.719 42.4946C143.625 42.3913 143.48 42.3493 143.279 42.3686C143.023 42.388 142.768 42.5431 142.509 42.8337C142.25 43.1244 142.007 43.5055 141.781 43.9706C141.554 44.4357 141.357 44.9428 141.185 45.4886Z"
      fill="#999999" />
    <path
      d="M159.382 38.8094C160.211 38.8094 160.926 38.9548 161.518 39.2487C162.113 39.5394 162.599 39.9237 162.984 40.3985C163.366 40.8733 163.647 41.3998 163.825 41.9811C164.003 42.5593 164.094 43.1374 164.094 43.7123C164.094 44.3163 163.987 44.9332 163.777 45.5694C163.563 46.2057 163.246 46.7935 162.822 47.3362C162.398 47.8788 161.861 48.3148 161.217 48.6507C160.57 48.9834 159.812 49.1513 158.945 49.1513C158.078 49.1513 157.402 49.006 156.809 48.7217C156.214 48.4343 155.728 48.0564 155.343 47.5849C154.962 47.1133 154.68 46.5933 154.502 46.0249C154.324 45.4564 154.233 44.8847 154.233 44.3098C154.233 43.5863 154.353 42.8919 154.596 42.233C154.835 41.5742 155.182 40.9896 155.635 40.476C156.088 39.9625 156.631 39.5588 157.262 39.2616C157.893 38.9645 158.602 38.8159 159.385 38.8159L159.382 38.8094ZM159.311 39.3747C158.715 39.3747 158.191 39.5103 157.732 39.7849C157.275 40.0594 156.887 40.4211 156.573 40.8733C156.256 41.3255 156.013 41.8229 155.845 42.3622C155.677 42.9049 155.589 43.4475 155.589 43.9933C155.58 44.4745 155.638 44.9784 155.758 45.5113C155.881 46.0442 156.075 46.5416 156.343 47.0003C156.612 47.4621 156.965 47.8368 157.405 48.1307C157.845 48.4214 158.379 48.5699 159.01 48.5699C159.641 48.5699 160.162 48.4343 160.621 48.1598C161.084 47.8852 161.469 47.5235 161.783 47.0649C162.094 46.6094 162.33 46.1056 162.492 45.5598C162.654 45.0139 162.731 44.4713 162.731 43.9352C162.731 43.399 162.657 42.8306 162.511 42.2912C162.366 41.7486 162.149 41.2609 161.861 40.8216C161.573 40.3824 161.217 40.0335 160.793 39.7687C160.369 39.5039 159.874 39.3747 159.308 39.3747H159.311Z"
      fill="#999999" />
    <path
      d="M171.382 49.077C170.938 49.077 170.637 48.9608 170.475 48.725C170.314 48.4892 170.236 48.1565 170.236 47.7237C170.236 47.4589 170.259 47.1488 170.301 46.7903C170.343 46.4318 170.395 46.0507 170.456 45.647C170.518 45.2433 170.569 44.8331 170.611 44.4197C170.653 44.0062 170.676 43.609 170.676 43.2343C170.676 43.1213 170.66 42.9985 170.628 42.8661C170.595 42.7337 170.53 42.6174 170.437 42.5205C170.343 42.4204 170.2 42.372 170.013 42.372C169.747 42.372 169.485 42.4947 169.22 42.7402C168.954 42.9856 168.705 43.3151 168.469 43.7285C168.233 44.1419 168.019 44.6005 167.832 45.1044C167.644 45.6082 167.495 46.125 167.385 46.6579C167.275 47.1908 167.223 47.6947 167.223 48.1759C167.223 48.318 167.223 48.4472 167.23 48.5635C167.233 48.683 167.243 48.8025 167.252 48.9252H166.065C166.055 48.8606 166.052 48.7993 166.052 48.7476V48.557C166.052 48.3956 166.061 48.2115 166.081 47.9983C166.1 47.7851 166.129 47.5041 166.171 47.1521C166.213 46.8 166.269 46.3252 166.333 45.7342C166.398 45.1787 166.45 44.7459 166.482 44.4358C166.514 44.1257 166.54 43.8867 166.56 43.722C166.579 43.5573 166.589 43.4313 166.595 43.3409C166.599 43.2505 166.602 43.1568 166.602 43.0502C166.602 42.8823 166.579 42.7337 166.531 42.6045C166.482 42.4753 166.379 42.4139 166.22 42.4139C166.068 42.4139 165.893 42.5173 165.696 42.724C165.498 42.9307 165.327 43.2828 165.188 43.7834L164.793 43.6994C164.822 43.5315 164.88 43.3344 164.971 43.1148C165.061 42.8952 165.181 42.6756 165.333 42.4592C165.485 42.2428 165.667 42.0651 165.887 41.923C166.103 41.7809 166.353 41.7098 166.637 41.7098C166.958 41.7098 167.197 41.797 167.353 41.9715C167.508 42.1459 167.608 42.3687 167.65 42.6433C167.692 42.9178 167.705 43.2085 167.686 43.5185C167.667 43.7834 167.637 44.0353 167.595 44.2808C167.553 44.5262 167.511 44.7426 167.476 44.93H167.518C167.838 44.0741 168.155 43.412 168.466 42.9469C168.777 42.4818 169.087 42.1588 169.391 41.9811C169.699 41.8035 170.003 41.7131 170.304 41.7131C170.683 41.7131 170.984 41.797 171.21 41.9682C171.437 42.1362 171.598 42.3623 171.699 42.64C171.799 42.9178 171.848 43.2214 171.848 43.5508C171.848 44.0676 171.812 44.5973 171.741 45.1399C171.67 45.6825 171.598 46.1799 171.527 46.6353C171.456 47.0907 171.42 47.4557 171.42 47.7302C171.42 47.8982 171.443 48.05 171.485 48.1824C171.527 48.3148 171.634 48.3794 171.802 48.3794C171.964 48.3794 172.139 48.2793 172.333 48.0758C172.527 47.8723 172.695 47.517 172.835 47.01L173.229 47.1101C173.2 47.2716 173.142 47.4621 173.051 47.6882C172.961 47.9143 172.841 48.1339 172.692 48.3439C172.54 48.557 172.356 48.7315 172.139 48.8736C171.922 49.0157 171.673 49.0867 171.388 49.0867L171.382 49.077Z"
      fill="#999999" />
    <path
      d="M176.417 38.2604C176.388 38.4962 176.349 38.7578 176.297 39.0517C176.245 39.3424 176.197 39.6298 176.155 39.914C176.113 40.195 176.077 40.447 176.048 40.6634C175.993 41.0574 175.935 41.5096 175.88 42.0134C175.825 42.5173 175.766 43.0405 175.711 43.5799C175.656 44.1225 175.605 44.6522 175.563 45.169C175.521 45.6857 175.485 46.1605 175.456 46.5868C175.427 47.0164 175.414 47.3652 175.414 47.6398C175.414 47.8174 175.433 47.9853 175.469 48.1404C175.508 48.2954 175.614 48.3729 175.796 48.3729C175.957 48.3729 176.132 48.2728 176.326 48.0693C176.521 47.8658 176.689 47.5106 176.828 47.0035L177.223 47.1036C177.194 47.2651 177.135 47.4557 177.045 47.6817C176.954 47.9078 176.834 48.1275 176.682 48.3374C176.53 48.5506 176.349 48.725 176.139 48.8671C175.925 49.0092 175.679 49.0803 175.394 49.0803C175.006 49.0803 174.724 48.9834 174.546 48.7896C174.368 48.5958 174.271 48.3116 174.265 47.9337C174.255 47.6979 174.265 47.3491 174.301 46.8904C174.336 46.4318 174.375 45.9053 174.427 45.3143C174.479 44.7232 174.537 44.1096 174.605 43.4636C174.669 42.8176 174.741 42.1911 174.818 41.5774C174.893 40.967 174.964 40.4114 175.032 39.9108C175.08 39.6557 175.11 39.4909 175.123 39.4102C175.135 39.3294 175.148 39.2422 175.158 39.1486C174.99 39.1583 174.822 39.168 174.657 39.1776C174.491 39.1873 174.323 39.197 174.155 39.2067L174.226 38.6415C174.64 38.6415 174.964 38.6221 175.197 38.5866C175.427 38.5478 175.605 38.5026 175.728 38.4445C175.851 38.3896 175.948 38.3282 176.025 38.2604H176.42H176.417Z"
      fill="#999999" />
    <path
      d="M179.274 41.7066C179.669 41.7066 179.967 41.8422 180.164 42.1103C180.362 42.3784 180.462 42.7337 180.462 43.1762C180.462 43.4571 180.436 43.7801 180.384 44.1419C180.333 44.5036 180.268 44.8912 180.194 45.3078C180.119 45.7245 180.054 46.1379 180.003 46.5578C179.951 46.9776 179.925 47.3846 179.925 47.7786C179.925 47.966 179.961 48.1113 180.032 48.2179C180.103 48.3245 180.213 48.3729 180.365 48.3729C180.527 48.3729 180.702 48.2696 180.896 48.0629C181.09 47.8562 181.258 47.5041 181.397 47.0035L181.792 47.0875C181.753 47.2845 181.692 47.5009 181.601 47.7302C181.511 47.9595 181.397 48.1759 181.255 48.3794C181.113 48.5829 180.941 48.7476 180.737 48.88C180.533 49.0124 180.3 49.077 180.038 49.077C179.605 49.077 179.284 48.964 179.077 48.7379C178.87 48.5118 178.766 48.1824 178.766 47.7496C178.766 47.3168 178.796 46.9324 178.851 46.5416C178.906 46.1508 178.97 45.7665 179.042 45.3854C179.113 45.0042 179.177 44.6199 179.232 44.2355C179.287 43.8512 179.317 43.4539 179.317 43.0502C179.317 42.9275 179.291 42.7918 179.239 42.64C179.187 42.4882 179.08 42.4139 178.922 42.4139C178.77 42.4139 178.595 42.5173 178.398 42.724C178.2 42.9307 178.029 43.2827 177.889 43.7834L177.495 43.6994C177.524 43.5314 177.579 43.3344 177.663 43.1148C177.747 42.8952 177.864 42.6755 178.009 42.4591C178.155 42.2427 178.333 42.0651 178.54 41.923C178.747 41.7809 178.993 41.7098 179.274 41.7098V41.7066ZM180.084 38.6544C180.3 38.6544 180.478 38.7287 180.621 38.874C180.763 39.0194 180.834 39.2164 180.834 39.4586C180.834 39.7009 180.76 39.885 180.608 40.0303C180.456 40.1757 180.278 40.2499 180.071 40.2499C179.863 40.2499 179.685 40.1757 179.54 40.0303C179.394 39.885 179.32 39.6944 179.32 39.4586C179.32 39.2229 179.394 39.0194 179.546 38.874C179.698 38.7287 179.876 38.6544 180.084 38.6544Z"
      fill="#999999" />
    <path
      d="M188.672 49.077C188.229 49.077 187.928 48.9608 187.766 48.725C187.604 48.4892 187.527 48.1565 187.527 47.7237C187.527 47.4589 187.549 47.1488 187.591 46.7903C187.633 46.4318 187.685 46.0507 187.747 45.647C187.808 45.2433 187.86 44.8331 187.902 44.4197C187.944 44.0062 187.967 43.609 187.967 43.2343C187.967 43.1213 187.95 42.9985 187.918 42.8661C187.886 42.7337 187.821 42.6174 187.727 42.5205C187.633 42.4204 187.491 42.372 187.303 42.372C187.038 42.372 186.776 42.4947 186.51 42.7402C186.245 42.9856 185.996 43.3151 185.76 43.7285C185.523 44.1419 185.31 44.6005 185.122 45.1044C184.934 45.6082 184.786 46.125 184.676 46.6579C184.565 47.1908 184.514 47.6947 184.514 48.1759C184.514 48.318 184.514 48.4472 184.52 48.5635C184.523 48.683 184.533 48.8025 184.543 48.9252H183.355C183.345 48.8606 183.342 48.7993 183.342 48.7476V48.557C183.342 48.3956 183.352 48.2115 183.371 47.9983C183.391 47.7851 183.42 47.5041 183.462 47.1521C183.504 46.8 183.559 46.3252 183.624 45.7342C183.688 45.1787 183.74 44.7459 183.773 44.4358C183.805 44.1257 183.831 43.8867 183.85 43.722C183.87 43.5573 183.879 43.4313 183.886 43.3409C183.889 43.2505 183.892 43.1568 183.892 43.0502C183.892 42.8823 183.87 42.7337 183.821 42.6045C183.773 42.4753 183.669 42.4139 183.511 42.4139C183.358 42.4139 183.184 42.5173 182.986 42.724C182.789 42.9307 182.617 43.2828 182.478 43.7834L182.083 43.6994C182.112 43.5315 182.171 43.3344 182.261 43.1148C182.352 42.8952 182.472 42.6756 182.624 42.4592C182.776 42.2428 182.957 42.0651 183.177 41.923C183.394 41.7809 183.643 41.7098 183.928 41.7098C184.248 41.7098 184.488 41.797 184.643 41.9715C184.798 42.1459 184.899 42.3687 184.941 42.6433C184.983 42.9178 184.996 43.2085 184.976 43.5185C184.957 43.7834 184.928 44.0353 184.886 44.2808C184.844 44.5262 184.802 44.7426 184.766 44.93H184.808C185.129 44.0741 185.446 43.412 185.756 42.9469C186.067 42.4818 186.378 42.1588 186.682 41.9811C186.989 41.8035 187.294 41.7131 187.594 41.7131C187.973 41.7131 188.274 41.797 188.501 41.9682C188.727 42.1362 188.889 42.3623 188.989 42.64C189.09 42.9178 189.138 43.2214 189.138 43.5508C189.138 44.0676 189.103 44.5973 189.031 45.1399C188.96 45.6825 188.889 46.1799 188.818 46.6353C188.747 47.0907 188.711 47.4557 188.711 47.7302C188.711 47.8982 188.734 48.05 188.776 48.1824C188.818 48.3148 188.925 48.3794 189.093 48.3794C189.255 48.3794 189.429 48.2793 189.624 48.0758C189.818 47.8723 189.986 47.517 190.125 47.01L190.52 47.1101C190.491 47.2716 190.433 47.4621 190.342 47.6882C190.251 47.9143 190.132 48.1339 189.983 48.3439C189.831 48.557 189.646 48.7315 189.429 48.8736C189.213 49.0157 188.963 49.0867 188.679 49.0867L188.672 49.077Z"
      fill="#999999" />
    <path
      d="M194.669 41.7066C195.008 41.7066 195.329 41.7583 195.63 41.8616C195.931 41.965 196.177 42.1362 196.364 42.3687C196.552 42.6045 196.646 42.9242 196.646 43.328C196.646 43.7317 196.513 44.0482 196.251 44.3292C195.986 44.6102 195.643 44.846 195.219 45.0269C194.795 45.2109 194.342 45.3595 193.86 45.4726C193.377 45.5856 192.918 45.6664 192.475 45.7116C192.475 46.2962 192.533 46.7839 192.653 47.1811C192.769 47.5752 192.947 47.8723 193.183 48.0726C193.42 48.2696 193.721 48.3697 194.089 48.3697C194.365 48.3697 194.64 48.3083 194.918 48.1856C195.196 48.0629 195.462 47.8788 195.717 47.6269C195.973 47.3749 196.203 47.0552 196.41 46.6579L196.876 46.926C196.61 47.4169 196.329 47.8206 196.028 48.1404C195.727 48.4601 195.397 48.6959 195.038 48.8477C194.678 48.9995 194.284 49.0738 193.85 49.0738C192.954 49.0738 192.293 48.7928 191.869 48.2341C191.446 47.6753 191.232 46.9389 191.232 46.0249C191.232 45.479 191.303 44.9461 191.446 44.4293C191.588 43.9126 191.798 43.4475 192.083 43.0373C192.365 42.6271 192.724 42.3041 193.157 42.0619C193.591 41.8196 194.096 41.7034 194.672 41.7034L194.669 41.7066ZM194.471 42.1846C194.038 42.1846 193.682 42.33 193.403 42.6239C193.125 42.9146 192.911 43.2924 192.766 43.7543C192.62 44.2162 192.526 44.7006 192.491 45.2077C192.989 45.1431 193.468 45.0236 193.921 44.8557C194.374 44.6877 194.746 44.4681 195.038 44.2C195.329 43.9319 195.478 43.6187 195.478 43.2601C195.478 42.9598 195.394 42.7046 195.229 42.4979C195.064 42.2912 194.811 42.1878 194.471 42.1878V42.1846Z"
      fill="#999999" />
    <path
      d="M150.133 46.4996C149.428 46.4996 148.855 47.0713 148.855 47.7754C148.855 48.4795 149.428 49.0544 150.133 49.0544C150.839 49.0544 151.415 48.4827 151.415 47.7754C151.415 47.0681 150.842 46.4996 150.133 46.4996Z"
      fill="url(#paint3_linear_154_5101)" />
  </g>
  <defs>
    <linearGradient id="paint0_linear_154_5101" x1="257.22" y1="-13.9238" x2="214.83" y2="40.8338"
                    gradientUnits="userSpaceOnUse">
      <stop stop-color="#002037" />
      <stop offset="0.03" stop-color="#015A5E" />
      <stop offset="1" stop-color="#29E9C4" />
    </linearGradient>
    <linearGradient id="paint1_linear_154_5101" x1="259.666" y1="-12.031" x2="217.276" y2="42.7267"
                    gradientUnits="userSpaceOnUse">
      <stop stop-color="#002037" />
      <stop offset="0.03" stop-color="#015A5E" />
      <stop offset="1" stop-color="#29E9C4" />
    </linearGradient>
    <linearGradient id="paint2_linear_154_5101" x1="256.776" y1="-14.2694" x2="214.386" y2="40.4914"
                    gradientUnits="userSpaceOnUse">
      <stop stop-color="#002037" />
      <stop offset="0.03" stop-color="#015A5E" />
      <stop offset="1" stop-color="#29E9C4" />
    </linearGradient>
    <linearGradient id="paint3_linear_154_5101" x1="148.855" y1="47.7754" x2="151.415" y2="47.7754"
                    gradientUnits="userSpaceOnUse">
      <stop stop-color="#002037" />
      <stop offset="0.03" stop-color="#015A5E" />
      <stop offset="1" stop-color="#29E9C4" />
    </linearGradient>
    <clipPath id="clip0_154_5101">
      <rect width="244" height="52" fill="white" />
    </clipPath>
  </defs>
</svg>
