<svg xmlns="http://www.w3.org/2000/svg" width="12" height="13" viewBox="0 0 12 13" fill="none">
<path d="M11.5312 2.03125L1.5 12.0312C1.21875 12.3438 0.75 12.3438 0.46875 12.0312C0.15625 11.75 0.15625 11.2812 0.46875 10.9688L10.4688 1C10.75 0.6875 11.2188 0.6875 11.5312 1C11.8125 1.28125 11.8125 1.75 11.5312 2.03125ZM3.5 2.5C3.5 3.0625 3.1875 3.53125 2.75 3.8125C2.28125 4.09375 1.6875 4.09375 1.25 3.8125C0.78125 3.53125 0.5 3.0625 0.5 2.5C0.5 1.96875 0.78125 1.5 1.25 1.21875C1.6875 0.9375 2.28125 0.9375 2.75 1.21875C3.1875 1.5 3.5 1.96875 3.5 2.5ZM11.5 10.5C11.5 11.0625 11.1875 11.5312 10.75 11.8125C10.2812 12.0938 9.6875 12.0938 9.25 11.8125C8.78125 11.5312 8.5 11.0625 8.5 10.5C8.5 9.96875 8.78125 9.5 9.25 9.21875C9.6875 8.9375 10.2812 8.9375 10.75 9.21875C11.1875 9.5 11.5 9.96875 11.5 10.5Z" fill="#1eab8f"/>
</svg>
