<svg width="327" height="237" viewBox="0 0 327 237" fill="none" xmlns="http://www.w3.org/2000/svg">
  <circle opacity="0.3" cx="163.25" cy="92.75" r="86.75" stroke="url(#paint0_linear_761_5288)" stroke-width="2"/>
  <path d="M66.572 203.392C67.0093 203.392 67.4467 203.483 67.884 203.664C68.3213 203.845 68.7373 204.08 69.132 204.368C69.5373 204.645 69.9373 204.933 70.332 205.232C70.7267 205.531 71.18 205.819 71.692 206.096C72.204 206.363 72.7213 206.555 73.244 206.672L72.668 208.72C72.0493 208.72 71.3667 208.8 70.62 208.96C69.8733 209.109 69.1427 209.323 68.428 209.6C67.7133 209.877 67.116 210.251 66.636 210.72C66.1667 211.189 65.932 211.701 65.932 212.256C65.932 212.907 66.1613 213.408 66.62 213.76C67.0893 214.123 67.7667 214.304 68.652 214.304C69.708 214.304 70.9293 214.101 72.316 213.696V215.648C70.8013 216.149 69.5427 216.4 68.54 216.4C67.0787 216.4 65.948 216.069 65.148 215.408C64.348 214.747 63.948 213.808 63.948 212.592C63.948 211.408 64.364 210.416 65.196 209.616C66.0387 208.816 67.1427 208.224 68.508 207.84C69.1053 207.659 69.7027 207.515 70.3 207.408C70.1507 207.333 69.9373 207.211 69.66 207.04C69.5427 206.965 69.3187 206.816 68.988 206.592C68.6573 206.357 68.4227 206.203 68.284 206.128C68.156 206.043 67.964 205.936 67.708 205.808C67.4627 205.68 67.2333 205.595 67.02 205.552C66.8173 205.499 66.604 205.472 66.38 205.472C65.8253 205.472 65.2067 205.6 64.524 205.856V203.968C65.1213 203.584 65.804 203.392 66.572 203.392ZM74.7636 200.4H76.7796V208.512C76.7796 209.003 76.8916 209.355 77.1156 209.568C77.3396 209.781 77.7396 209.888 78.3156 209.888C78.4223 209.888 78.4756 209.941 78.4756 210.048V211.824C78.4756 211.941 78.4223 212 78.3156 212C77.1636 212 76.2836 211.723 75.6756 211.168C75.0676 210.613 74.7636 209.84 74.7636 208.848V200.4ZM81.3365 204.128C81.8698 204.128 82.4032 204.256 82.9365 204.512C83.4698 204.757 83.9392 205.045 84.3445 205.376C84.7498 205.696 85.2565 206.032 85.8645 206.384C86.4832 206.736 87.1072 206.987 87.7365 207.136L87.1605 209.184L86.6805 209.264C86.7232 209.339 86.7978 209.429 86.9045 209.536C87.1712 209.771 87.6725 209.888 88.4085 209.888C88.5152 209.888 88.5685 209.941 88.5685 210.048V211.824C88.5685 211.941 88.5152 212 88.4085 212C87.4165 212 86.6592 211.76 86.1365 211.28C85.7312 210.907 85.4858 210.368 85.4005 209.664C85.0165 209.824 84.6645 210 84.3445 210.192C84.2272 210.256 83.9925 210.395 83.6405 210.608C83.2992 210.811 83.0485 210.955 82.8885 211.04C82.7285 211.125 82.4672 211.243 82.1045 211.392C81.7418 211.541 81.4005 211.653 81.0805 211.728C80.7712 211.792 80.3712 211.856 79.8805 211.92C79.4005 211.973 78.8832 212 78.3285 212C78.2112 212 78.1525 211.941 78.1525 211.824V210.048C78.1525 209.941 78.2112 209.888 78.3285 209.888C79.2672 209.888 80.1418 209.808 80.9525 209.648C81.7632 209.488 82.3232 209.344 82.6325 209.216C82.9525 209.088 83.4752 208.864 84.2005 208.544C84.4992 208.395 84.8352 208.251 85.2085 208.112C84.8032 207.92 84.4938 207.755 84.2805 207.616C84.1952 207.563 84.0192 207.451 83.7525 207.28C83.4858 207.099 83.3045 206.981 83.2085 206.928C83.1125 206.864 82.9525 206.773 82.7285 206.656C82.5152 206.528 82.3392 206.443 82.2005 206.4C82.0725 206.357 81.9125 206.315 81.7205 206.272C81.5285 206.229 81.3418 206.208 81.1605 206.208C80.6592 206.208 80.0405 206.336 79.3045 206.592V204.72C79.9232 204.325 80.6005 204.128 81.3365 204.128ZM80.8085 214.448L82.2965 212.96L83.8005 214.448L82.3125 215.936L80.8085 214.448ZM90.1503 206.08H92.0063C92.0063 207.051 91.9529 207.872 91.8463 208.544C91.8143 208.789 91.7449 209.109 91.6383 " fill="white" />

<ellipse cx="163.5" cy="93.0295" rx="60" ry="61.3811" fill="url(#paint1_linear_761_5288)"/>
<g filter="url(#filter0_f_761_5288)">
<path d="M121.883 83.6276C122.129 69.5807 122.253 62.5572 123.915 60.2241C125.578 57.8909 132.073 55.7488 145.063 51.4644L147.537 50.6482C154.309 48.4149 157.694 47.2982 161.179 47.3621C164.663 47.426 168.007 48.6661 174.696 51.1463L177.141 52.0528L177.141 52.0528C189.972 56.8107 196.388 59.1896 197.968 61.5822C199.547 63.9748 199.424 70.9983 199.178 85.0453L199.057 91.9629C198.623 116.731 180.209 128.417 168.699 133.311C165.577 134.638 164.016 135.302 159.639 135.222C155.262 135.142 153.725 134.421 150.651 132.98C139.32 127.667 121.328 115.313 121.762 90.5453L121.883 83.6276Z" fill="#B9EDE5"/>
</g>
<g clip-path="url(#clip0_761_5288)">
<path d="M163 57.2246C144.528 57.2246 129.5 72.5981 129.5 91.4957C129.5 110.393 144.528 125.767 163 125.767C181.472 125.767 196.5 110.393 196.5 91.4957C196.5 72.5981 181.472 57.2246 163 57.2246ZM180.308 87.2461L167.952 99.6551C165.767 101.848 162.953 102.942 160.136 102.942C157.35 102.942 154.564 101.868 152.386 99.7179L147.085 94.3859C145.985 93.2807 145.971 91.4729 147.051 90.3476C148.129 89.2195 149.902 89.2053 150.999 90.3134L156.283 95.6282C158.45 97.7702 161.869 97.7588 164.047 95.5768L176.4 83.1707C177.497 82.0626 179.259 82.0826 180.347 83.2078C181.428 84.333 181.411 86.1408 180.308 87.2461Z" fill="url(#paint2_linear_761_5288)"/>
<path d="M180.675 82.6707C181.79 83.8447 181.773 85.7309 180.635 86.884L167.888 99.831C165.633 102.119 162.73 103.261 159.825 103.261C156.95 103.261 154.076 102.14 151.83 99.8966L146.361 94.3334C145.226 93.1802 145.212 91.2941 146.326 90.12C147.438 88.943 149.267 88.9281 150.399 90.0843L155.85 95.6296C158.085 97.8644 161.613 97.8525 163.859 95.576L176.603 82.6319C177.735 81.4758 179.552 81.4966 180.675 82.6707Z" fill="white"/>
</g>
<defs>
<filter id="filter0_f_761_5288" x="97.7544" y="23.3594" width="125.57" height="135.869" filterUnits="userSpaceOnUse" color-interpolation-filters="sRGB">
<feFlood flood-opacity="0" result="BackgroundImageFix"/>
<feBlend mode="normal" in="SourceGraphic" in2="BackgroundImageFix" result="shape"/>
<feGaussianBlur stdDeviation="12" result="effect1_foregroundBlur_761_5288"/>
</filter>
<linearGradient id="paint0_linear_761_5288" x1="163.25" y1="7" x2="163.25" y2="178.5" gradientUnits="userSpaceOnUse">
<stop stop-color="#00A77D"/>
<stop offset="1" stop-color="#00A77D" stop-opacity="0"/>
</linearGradient>
<linearGradient id="paint1_linear_761_5288" x1="170.75" y1="-244.566" x2="163.163" y2="154.404" gradientUnits="userSpaceOnUse">
<stop stop-color="#90EEE0"/>
<stop offset="1" stop-color="white"/>
</linearGradient>
<linearGradient id="paint2_linear_761_5288" x1="163" y1="57.2246" x2="163" y2="142.931" gradientUnits="userSpaceOnUse">
<stop stop-color="#2CCBB3"/>
<stop offset="1" stop-color="#51A79A" stop-opacity="0"/>
</linearGradient>
<clipPath id="clip0_761_5288">
<rect width="67" height="68.5422" fill="white" transform="translate(129.5 57.2246)"/>
</clipPath>
</defs>
</svg>
