<svg width="19" height="11" viewBox="0 0 19 11" fill="none" xmlns="http://www.w3.org/2000/svg">
<path d="M12 1.25C12 0.84375 12.3125 0.5 12.75 0.5H18.25C18.6562 0.5 19 0.84375 19 1.25V6.75C19 7.1875 18.6562 7.5 18.25 7.5C17.8125 7.5 17.5 7.1875 17.5 6.75V3.0625L11.5312 9.03125C11.2188 9.34375 10.75 9.34375 10.4688 9.03125L7 5.5625L2.28125 10.2812C1.96875 10.5938 1.5 10.5938 1.21875 10.2812C0.90625 10 0.90625 9.53125 1.21875 9.25L6.46875 3.96875C6.75 3.6875 7.21875 3.6875 7.5 3.96875L10.9688 7.4375L16.4375 2H12.75C12.3125 2 12 1.6875 12 1.25Z" fill="#1A2523"/>
</svg>
