<svg xmlns="http://www.w3.org/2000/svg" class="svg-icon" style="width: 24px; height: 24px;vertical-align: middle;fill: #1eab8f;overflow: hidden;" viewBox="0 0 1024 1024" version="1.1"><path d="M920.619413 949.137297C904.26336 965.500676 882.467409 974.53787 859.27275 974.53787L164.975245 974.53787C141.780587 974.53787 119.984365 965.500676 103.599551 949.108808 87.228303 932.766864 78.188668 910.979595 78.188668 887.796875L78.188668 785.609598 80.095033 780.61224C127.86949 655.776763 226.378344 558.712742 349.35331 512.508473 289.891578 464.777429 251.761823 391.535381 251.761823 309.562472 251.761823 166.089598 368.566741 49.358482 512.123184 49.358482 655.681255 49.358482 772.485901 166.089598 772.485901 309.562472 772.485901 391.601857 734.29374 464.896 674.748981 512.624059 796.901817 558.930077 896.720924 656.692502 944.152691 780.61224L946.059328 785.609598 946.059328 887.796875C946.059328 910.979595 937.019693 932.766864 920.619413 949.137297ZM714.625831 309.562472C714.625831 197.966007 623.788023 107.177853 512.123184 107.177853 400.461058 107.177853 309.620536 197.966007 309.620536 309.562472 309.620536 421.158936 400.461058 511.951703 512.123184 511.951703 623.788023 511.951703 714.625831 421.158936 714.625831 309.562472ZM888.201971 796.378692C839.723955 674.597308 733.231754 582.470953 606.69341 552.00329 577.365062 563.470245 545.466675 569.771074 512.123184 569.771074 478.769653 569.771074 446.86177 563.466446 417.525825 551.992437 289.616992 582.639449 184.755214 673.814249 136.046024 796.378692L136.046024 887.796875C136.046024 895.523816 139.055076 902.778913 144.507455 908.22885 149.98751 913.704564 157.248848 916.713615 164.975245 916.713615L859.27275 916.713615C866.999148 916.713615 874.260485 913.704564 879.711508 908.257068 885.19292 902.778913 888.201971 895.523816 888.201971 887.796875L888.201971 796.378692Z"/></svg>
